G04 #@! TF.GenerationSoftware,KiCad,Pcbnew,(5.1.4-0-10_14)*
G04 #@! TF.CreationDate,2021-03-21T04:54:58+00:00*
G04 #@! TF.ProjectId,aio3,61696f33-2e6b-4696-9361-645f70636258,rev?*
G04 #@! TF.SameCoordinates,Original*
G04 #@! TF.FileFunction,Soldermask,Top*
G04 #@! TF.FilePolarity,Negative*
%FSLAX46Y46*%
G04 Gerber Fmt 4.6, Leading zero omitted, Abs format (unit mm)*
G04 Created by KiCad (PCBNEW (5.1.4-0-10_14)) date 2021-03-21 04:54:58*
%MOMM*%
%LPD*%
G04 APERTURE LIST*
%ADD10C,0.100000*%
G04 APERTURE END LIST*
D10*
G36*
X131596974Y-88330684D02*
G01*
X131814974Y-88420983D01*
X131969123Y-88484833D01*
X132304048Y-88708623D01*
X132588877Y-88993452D01*
X132812667Y-89328377D01*
X132845062Y-89406586D01*
X132966816Y-89700526D01*
X133045400Y-90095594D01*
X133045400Y-90498406D01*
X132966816Y-90893474D01*
X132915951Y-91016272D01*
X132812667Y-91265623D01*
X132588877Y-91600548D01*
X132304048Y-91885377D01*
X131969123Y-92109167D01*
X131814974Y-92173017D01*
X131596974Y-92263316D01*
X131201906Y-92341900D01*
X130799094Y-92341900D01*
X130404026Y-92263316D01*
X130186026Y-92173017D01*
X130031877Y-92109167D01*
X129696952Y-91885377D01*
X129412123Y-91600548D01*
X129188333Y-91265623D01*
X129085049Y-91016272D01*
X129034184Y-90893474D01*
X128955600Y-90498406D01*
X128955600Y-90095594D01*
X129034184Y-89700526D01*
X129155938Y-89406586D01*
X129188333Y-89328377D01*
X129412123Y-88993452D01*
X129696952Y-88708623D01*
X130031877Y-88484833D01*
X130186026Y-88420983D01*
X130404026Y-88330684D01*
X130799094Y-88252100D01*
X131201906Y-88252100D01*
X131596974Y-88330684D01*
X131596974Y-88330684D01*
G37*
G36*
X112546974Y-88330684D02*
G01*
X112764974Y-88420983D01*
X112919123Y-88484833D01*
X113254048Y-88708623D01*
X113538877Y-88993452D01*
X113762667Y-89328377D01*
X113795062Y-89406586D01*
X113916816Y-89700526D01*
X113995400Y-90095594D01*
X113995400Y-90498406D01*
X113916816Y-90893474D01*
X113865951Y-91016272D01*
X113762667Y-91265623D01*
X113538877Y-91600548D01*
X113254048Y-91885377D01*
X112919123Y-92109167D01*
X112764974Y-92173017D01*
X112546974Y-92263316D01*
X112151906Y-92341900D01*
X111749094Y-92341900D01*
X111354026Y-92263316D01*
X111136026Y-92173017D01*
X110981877Y-92109167D01*
X110646952Y-91885377D01*
X110362123Y-91600548D01*
X110138333Y-91265623D01*
X110035049Y-91016272D01*
X109984184Y-90893474D01*
X109905600Y-90498406D01*
X109905600Y-90095594D01*
X109984184Y-89700526D01*
X110105938Y-89406586D01*
X110138333Y-89328377D01*
X110362123Y-88993452D01*
X110646952Y-88708623D01*
X110981877Y-88484833D01*
X111136026Y-88420983D01*
X111354026Y-88330684D01*
X111749094Y-88252100D01*
X112151906Y-88252100D01*
X112546974Y-88330684D01*
X112546974Y-88330684D01*
G37*
G36*
X136350604Y-89406585D02*
G01*
X136519126Y-89476389D01*
X136670791Y-89577728D01*
X136799772Y-89706709D01*
X136901111Y-89858374D01*
X136970915Y-90026896D01*
X137006500Y-90205797D01*
X137006500Y-90388203D01*
X136970915Y-90567104D01*
X136901111Y-90735626D01*
X136799772Y-90887291D01*
X136670791Y-91016272D01*
X136519126Y-91117611D01*
X136350604Y-91187415D01*
X136171703Y-91223000D01*
X135989297Y-91223000D01*
X135810396Y-91187415D01*
X135641874Y-91117611D01*
X135490209Y-91016272D01*
X135361228Y-90887291D01*
X135259889Y-90735626D01*
X135190085Y-90567104D01*
X135154500Y-90388203D01*
X135154500Y-90205797D01*
X135190085Y-90026896D01*
X135259889Y-89858374D01*
X135361228Y-89706709D01*
X135490209Y-89577728D01*
X135641874Y-89476389D01*
X135810396Y-89406585D01*
X135989297Y-89371000D01*
X136171703Y-89371000D01*
X136350604Y-89406585D01*
X136350604Y-89406585D01*
G37*
G36*
X126190604Y-89406585D02*
G01*
X126359126Y-89476389D01*
X126510791Y-89577728D01*
X126639772Y-89706709D01*
X126741111Y-89858374D01*
X126810915Y-90026896D01*
X126846500Y-90205797D01*
X126846500Y-90388203D01*
X126810915Y-90567104D01*
X126741111Y-90735626D01*
X126639772Y-90887291D01*
X126510791Y-91016272D01*
X126359126Y-91117611D01*
X126190604Y-91187415D01*
X126011703Y-91223000D01*
X125829297Y-91223000D01*
X125650396Y-91187415D01*
X125481874Y-91117611D01*
X125330209Y-91016272D01*
X125201228Y-90887291D01*
X125099889Y-90735626D01*
X125030085Y-90567104D01*
X124994500Y-90388203D01*
X124994500Y-90205797D01*
X125030085Y-90026896D01*
X125099889Y-89858374D01*
X125201228Y-89706709D01*
X125330209Y-89577728D01*
X125481874Y-89476389D01*
X125650396Y-89406585D01*
X125829297Y-89371000D01*
X126011703Y-89371000D01*
X126190604Y-89406585D01*
X126190604Y-89406585D01*
G37*
G36*
X117300604Y-89406585D02*
G01*
X117469126Y-89476389D01*
X117620791Y-89577728D01*
X117749772Y-89706709D01*
X117851111Y-89858374D01*
X117920915Y-90026896D01*
X117956500Y-90205797D01*
X117956500Y-90388203D01*
X117920915Y-90567104D01*
X117851111Y-90735626D01*
X117749772Y-90887291D01*
X117620791Y-91016272D01*
X117469126Y-91117611D01*
X117300604Y-91187415D01*
X117121703Y-91223000D01*
X116939297Y-91223000D01*
X116760396Y-91187415D01*
X116591874Y-91117611D01*
X116440209Y-91016272D01*
X116311228Y-90887291D01*
X116209889Y-90735626D01*
X116140085Y-90567104D01*
X116104500Y-90388203D01*
X116104500Y-90205797D01*
X116140085Y-90026896D01*
X116209889Y-89858374D01*
X116311228Y-89706709D01*
X116440209Y-89577728D01*
X116591874Y-89476389D01*
X116760396Y-89406585D01*
X116939297Y-89371000D01*
X117121703Y-89371000D01*
X117300604Y-89406585D01*
X117300604Y-89406585D01*
G37*
G36*
X107140604Y-89406585D02*
G01*
X107309126Y-89476389D01*
X107460791Y-89577728D01*
X107589772Y-89706709D01*
X107691111Y-89858374D01*
X107760915Y-90026896D01*
X107796500Y-90205797D01*
X107796500Y-90388203D01*
X107760915Y-90567104D01*
X107691111Y-90735626D01*
X107589772Y-90887291D01*
X107460791Y-91016272D01*
X107309126Y-91117611D01*
X107140604Y-91187415D01*
X106961703Y-91223000D01*
X106779297Y-91223000D01*
X106600396Y-91187415D01*
X106431874Y-91117611D01*
X106280209Y-91016272D01*
X106151228Y-90887291D01*
X106049889Y-90735626D01*
X105980085Y-90567104D01*
X105944500Y-90388203D01*
X105944500Y-90205797D01*
X105980085Y-90026896D01*
X106049889Y-89858374D01*
X106151228Y-89706709D01*
X106280209Y-89577728D01*
X106431874Y-89476389D01*
X106600396Y-89406585D01*
X106779297Y-89371000D01*
X106961703Y-89371000D01*
X107140604Y-89406585D01*
X107140604Y-89406585D01*
G37*
G36*
X131596974Y-69280684D02*
G01*
X131814974Y-69370983D01*
X131969123Y-69434833D01*
X132304048Y-69658623D01*
X132588877Y-69943452D01*
X132812667Y-70278377D01*
X132845062Y-70356586D01*
X132966816Y-70650526D01*
X133045400Y-71045594D01*
X133045400Y-71448406D01*
X132966816Y-71843474D01*
X132915951Y-71966272D01*
X132812667Y-72215623D01*
X132588877Y-72550548D01*
X132304048Y-72835377D01*
X131969123Y-73059167D01*
X131814974Y-73123017D01*
X131596974Y-73213316D01*
X131201906Y-73291900D01*
X130799094Y-73291900D01*
X130404026Y-73213316D01*
X130186026Y-73123017D01*
X130031877Y-73059167D01*
X129696952Y-72835377D01*
X129412123Y-72550548D01*
X129188333Y-72215623D01*
X129085049Y-71966272D01*
X129034184Y-71843474D01*
X128955600Y-71448406D01*
X128955600Y-71045594D01*
X129034184Y-70650526D01*
X129155938Y-70356586D01*
X129188333Y-70278377D01*
X129412123Y-69943452D01*
X129696952Y-69658623D01*
X130031877Y-69434833D01*
X130186026Y-69370983D01*
X130404026Y-69280684D01*
X130799094Y-69202100D01*
X131201906Y-69202100D01*
X131596974Y-69280684D01*
X131596974Y-69280684D01*
G37*
G36*
X112546974Y-69280684D02*
G01*
X112764974Y-69370983D01*
X112919123Y-69434833D01*
X113254048Y-69658623D01*
X113538877Y-69943452D01*
X113762667Y-70278377D01*
X113795062Y-70356586D01*
X113916816Y-70650526D01*
X113995400Y-71045594D01*
X113995400Y-71448406D01*
X113916816Y-71843474D01*
X113865951Y-71966272D01*
X113762667Y-72215623D01*
X113538877Y-72550548D01*
X113254048Y-72835377D01*
X112919123Y-73059167D01*
X112764974Y-73123017D01*
X112546974Y-73213316D01*
X112151906Y-73291900D01*
X111749094Y-73291900D01*
X111354026Y-73213316D01*
X111136026Y-73123017D01*
X110981877Y-73059167D01*
X110646952Y-72835377D01*
X110362123Y-72550548D01*
X110138333Y-72215623D01*
X110035049Y-71966272D01*
X109984184Y-71843474D01*
X109905600Y-71448406D01*
X109905600Y-71045594D01*
X109984184Y-70650526D01*
X110105938Y-70356586D01*
X110138333Y-70278377D01*
X110362123Y-69943452D01*
X110646952Y-69658623D01*
X110981877Y-69434833D01*
X111136026Y-69370983D01*
X111354026Y-69280684D01*
X111749094Y-69202100D01*
X112151906Y-69202100D01*
X112546974Y-69280684D01*
X112546974Y-69280684D01*
G37*
G36*
X117300604Y-70356585D02*
G01*
X117469126Y-70426389D01*
X117620791Y-70527728D01*
X117749772Y-70656709D01*
X117851111Y-70808374D01*
X117920915Y-70976896D01*
X117956500Y-71155797D01*
X117956500Y-71338203D01*
X117920915Y-71517104D01*
X117851111Y-71685626D01*
X117749772Y-71837291D01*
X117620791Y-71966272D01*
X117469126Y-72067611D01*
X117300604Y-72137415D01*
X117121703Y-72173000D01*
X116939297Y-72173000D01*
X116760396Y-72137415D01*
X116591874Y-72067611D01*
X116440209Y-71966272D01*
X116311228Y-71837291D01*
X116209889Y-71685626D01*
X116140085Y-71517104D01*
X116104500Y-71338203D01*
X116104500Y-71155797D01*
X116140085Y-70976896D01*
X116209889Y-70808374D01*
X116311228Y-70656709D01*
X116440209Y-70527728D01*
X116591874Y-70426389D01*
X116760396Y-70356585D01*
X116939297Y-70321000D01*
X117121703Y-70321000D01*
X117300604Y-70356585D01*
X117300604Y-70356585D01*
G37*
G36*
X126190604Y-70356585D02*
G01*
X126359126Y-70426389D01*
X126510791Y-70527728D01*
X126639772Y-70656709D01*
X126741111Y-70808374D01*
X126810915Y-70976896D01*
X126846500Y-71155797D01*
X126846500Y-71338203D01*
X126810915Y-71517104D01*
X126741111Y-71685626D01*
X126639772Y-71837291D01*
X126510791Y-71966272D01*
X126359126Y-72067611D01*
X126190604Y-72137415D01*
X126011703Y-72173000D01*
X125829297Y-72173000D01*
X125650396Y-72137415D01*
X125481874Y-72067611D01*
X125330209Y-71966272D01*
X125201228Y-71837291D01*
X125099889Y-71685626D01*
X125030085Y-71517104D01*
X124994500Y-71338203D01*
X124994500Y-71155797D01*
X125030085Y-70976896D01*
X125099889Y-70808374D01*
X125201228Y-70656709D01*
X125330209Y-70527728D01*
X125481874Y-70426389D01*
X125650396Y-70356585D01*
X125829297Y-70321000D01*
X126011703Y-70321000D01*
X126190604Y-70356585D01*
X126190604Y-70356585D01*
G37*
G36*
X136350604Y-70356585D02*
G01*
X136519126Y-70426389D01*
X136670791Y-70527728D01*
X136799772Y-70656709D01*
X136901111Y-70808374D01*
X136970915Y-70976896D01*
X137006500Y-71155797D01*
X137006500Y-71338203D01*
X136970915Y-71517104D01*
X136901111Y-71685626D01*
X136799772Y-71837291D01*
X136670791Y-71966272D01*
X136519126Y-72067611D01*
X136350604Y-72137415D01*
X136171703Y-72173000D01*
X135989297Y-72173000D01*
X135810396Y-72137415D01*
X135641874Y-72067611D01*
X135490209Y-71966272D01*
X135361228Y-71837291D01*
X135259889Y-71685626D01*
X135190085Y-71517104D01*
X135154500Y-71338203D01*
X135154500Y-71155797D01*
X135190085Y-70976896D01*
X135259889Y-70808374D01*
X135361228Y-70656709D01*
X135490209Y-70527728D01*
X135641874Y-70426389D01*
X135810396Y-70356585D01*
X135989297Y-70321000D01*
X136171703Y-70321000D01*
X136350604Y-70356585D01*
X136350604Y-70356585D01*
G37*
G36*
X107140604Y-70356585D02*
G01*
X107309126Y-70426389D01*
X107460791Y-70527728D01*
X107589772Y-70656709D01*
X107691111Y-70808374D01*
X107760915Y-70976896D01*
X107796500Y-71155797D01*
X107796500Y-71338203D01*
X107760915Y-71517104D01*
X107691111Y-71685626D01*
X107589772Y-71837291D01*
X107460791Y-71966272D01*
X107309126Y-72067611D01*
X107140604Y-72137415D01*
X106961703Y-72173000D01*
X106779297Y-72173000D01*
X106600396Y-72137415D01*
X106431874Y-72067611D01*
X106280209Y-71966272D01*
X106151228Y-71837291D01*
X106049889Y-71685626D01*
X105980085Y-71517104D01*
X105944500Y-71338203D01*
X105944500Y-71155797D01*
X105980085Y-70976896D01*
X106049889Y-70808374D01*
X106151228Y-70656709D01*
X106280209Y-70527728D01*
X106431874Y-70426389D01*
X106600396Y-70356585D01*
X106779297Y-70321000D01*
X106961703Y-70321000D01*
X107140604Y-70356585D01*
X107140604Y-70356585D01*
G37*
G36*
X86440127Y-66612037D02*
G01*
X86609966Y-66663557D01*
X86766491Y-66747222D01*
X86802229Y-66776552D01*
X86903686Y-66859814D01*
X86986948Y-66961271D01*
X87016278Y-66997009D01*
X87099943Y-67153534D01*
X87151463Y-67323373D01*
X87164500Y-67455742D01*
X87164500Y-68544258D01*
X87151463Y-68676627D01*
X87099943Y-68846466D01*
X87016278Y-69002991D01*
X86986948Y-69038729D01*
X86903686Y-69140186D01*
X86766489Y-69252779D01*
X86609967Y-69336442D01*
X86609965Y-69336443D01*
X86440126Y-69387963D01*
X86263500Y-69405359D01*
X86086873Y-69387963D01*
X85917034Y-69336443D01*
X85760509Y-69252778D01*
X85698758Y-69202100D01*
X85623314Y-69140186D01*
X85510721Y-69002989D01*
X85427058Y-68846467D01*
X85427057Y-68846465D01*
X85375537Y-68676626D01*
X85362500Y-68544257D01*
X85362501Y-67455742D01*
X85375538Y-67323373D01*
X85427058Y-67153534D01*
X85510723Y-66997009D01*
X85540053Y-66961271D01*
X85623315Y-66859814D01*
X85724772Y-66776552D01*
X85760510Y-66747222D01*
X85917035Y-66663557D01*
X86086874Y-66612037D01*
X86263500Y-66594641D01*
X86440127Y-66612037D01*
X86440127Y-66612037D01*
G37*
G36*
X79140127Y-66612037D02*
G01*
X79309966Y-66663557D01*
X79466491Y-66747222D01*
X79502229Y-66776552D01*
X79603686Y-66859814D01*
X79686948Y-66961271D01*
X79716278Y-66997009D01*
X79799943Y-67153534D01*
X79851463Y-67323373D01*
X79864500Y-67455742D01*
X79864500Y-68544258D01*
X79851463Y-68676627D01*
X79799943Y-68846466D01*
X79716278Y-69002991D01*
X79686948Y-69038729D01*
X79603686Y-69140186D01*
X79466489Y-69252779D01*
X79309967Y-69336442D01*
X79309965Y-69336443D01*
X79140126Y-69387963D01*
X78963500Y-69405359D01*
X78786873Y-69387963D01*
X78617034Y-69336443D01*
X78460509Y-69252778D01*
X78398758Y-69202100D01*
X78323314Y-69140186D01*
X78210721Y-69002989D01*
X78127058Y-68846467D01*
X78127057Y-68846465D01*
X78075537Y-68676626D01*
X78062500Y-68544257D01*
X78062501Y-67455742D01*
X78075538Y-67323373D01*
X78127058Y-67153534D01*
X78210723Y-66997009D01*
X78240053Y-66961271D01*
X78323315Y-66859814D01*
X78424772Y-66776552D01*
X78460510Y-66747222D01*
X78617035Y-66663557D01*
X78786874Y-66612037D01*
X78963500Y-66594641D01*
X79140127Y-66612037D01*
X79140127Y-66612037D01*
G37*
G36*
X86440127Y-62112037D02*
G01*
X86609966Y-62163557D01*
X86766491Y-62247222D01*
X86802229Y-62276552D01*
X86903686Y-62359814D01*
X86986948Y-62461271D01*
X87016278Y-62497009D01*
X87099943Y-62653534D01*
X87151463Y-62823373D01*
X87164500Y-62955742D01*
X87164500Y-64044258D01*
X87151463Y-64176627D01*
X87099943Y-64346466D01*
X87016278Y-64502991D01*
X86986948Y-64538729D01*
X86903686Y-64640186D01*
X86766489Y-64752779D01*
X86609967Y-64836442D01*
X86609965Y-64836443D01*
X86440126Y-64887963D01*
X86263500Y-64905359D01*
X86086873Y-64887963D01*
X85917034Y-64836443D01*
X85760509Y-64752778D01*
X85724771Y-64723448D01*
X85623314Y-64640186D01*
X85510721Y-64502989D01*
X85427058Y-64346467D01*
X85427057Y-64346465D01*
X85375537Y-64176626D01*
X85362500Y-64044257D01*
X85362501Y-62955742D01*
X85375538Y-62823373D01*
X85427058Y-62653534D01*
X85510723Y-62497009D01*
X85540053Y-62461271D01*
X85623315Y-62359814D01*
X85724772Y-62276552D01*
X85760510Y-62247222D01*
X85917035Y-62163557D01*
X86086874Y-62112037D01*
X86263500Y-62094641D01*
X86440127Y-62112037D01*
X86440127Y-62112037D01*
G37*
G36*
X79140127Y-62112037D02*
G01*
X79309966Y-62163557D01*
X79466491Y-62247222D01*
X79502229Y-62276552D01*
X79603686Y-62359814D01*
X79686948Y-62461271D01*
X79716278Y-62497009D01*
X79799943Y-62653534D01*
X79851463Y-62823373D01*
X79864500Y-62955742D01*
X79864500Y-64044258D01*
X79851463Y-64176627D01*
X79799943Y-64346466D01*
X79716278Y-64502991D01*
X79686948Y-64538729D01*
X79603686Y-64640186D01*
X79466489Y-64752779D01*
X79309967Y-64836442D01*
X79309965Y-64836443D01*
X79140126Y-64887963D01*
X78963500Y-64905359D01*
X78786873Y-64887963D01*
X78617034Y-64836443D01*
X78460509Y-64752778D01*
X78424771Y-64723448D01*
X78323314Y-64640186D01*
X78210721Y-64502989D01*
X78127058Y-64346467D01*
X78127057Y-64346465D01*
X78075537Y-64176626D01*
X78062500Y-64044257D01*
X78062501Y-62955742D01*
X78075538Y-62823373D01*
X78127058Y-62653534D01*
X78210723Y-62497009D01*
X78240053Y-62461271D01*
X78323315Y-62359814D01*
X78424772Y-62276552D01*
X78460510Y-62247222D01*
X78617035Y-62163557D01*
X78786874Y-62112037D01*
X78963500Y-62094641D01*
X79140127Y-62112037D01*
X79140127Y-62112037D01*
G37*
M02*
