G04 #@! TF.GenerationSoftware,KiCad,Pcbnew,(5.1.4-0-10_14)*
G04 #@! TF.CreationDate,2021-03-21T04:54:58+00:00*
G04 #@! TF.ProjectId,aio3,61696f33-2e6b-4696-9361-645f70636258,rev?*
G04 #@! TF.SameCoordinates,Original*
G04 #@! TF.FileFunction,Legend,Bot*
G04 #@! TF.FilePolarity,Positive*
%FSLAX46Y46*%
G04 Gerber Fmt 4.6, Leading zero omitted, Abs format (unit mm)*
G04 Created by KiCad (PCBNEW (5.1.4-0-10_14)) date 2021-03-21 04:54:58*
%MOMM*%
%LPD*%
G04 APERTURE LIST*
%ADD10C,0.150000*%
%ADD11C,0.120000*%
%ADD12O,1.802000X2.802000*%
%ADD13R,0.602000X2.352000*%
%ADD14R,1.902000X1.202000*%
%ADD15C,0.100000*%
%ADD16C,1.077000*%
%ADD17R,1.502000X1.302000*%
%ADD18R,0.652000X1.602000*%
%ADD19R,1.602000X0.652000*%
%ADD20R,1.302000X1.002000*%
%ADD21C,1.352000*%
%ADD22C,2.352000*%
%ADD23C,2.352000*%
%ADD24C,4.089800*%
%ADD25C,1.852000*%
G04 APERTURE END LIST*
D10*
X78763500Y-63500000D02*
X78763500Y-68950000D01*
X86463500Y-63500000D02*
X86463500Y-68950000D01*
X78763500Y-68950000D02*
X86463500Y-68950000D01*
X85181750Y-92459500D02*
X79981750Y-92459500D01*
X79981750Y-92459500D02*
X79981750Y-97659500D01*
X79981750Y-97659500D02*
X85181750Y-97659500D01*
X85181750Y-97659500D02*
X85181750Y-92459500D01*
X83581750Y-95059500D02*
G75*
G03X83581750Y-95059500I-1000000J0D01*
G01*
D11*
X98198172Y-94349500D02*
X98715328Y-94349500D01*
X98198172Y-95769500D02*
X98715328Y-95769500D01*
X97281750Y-70515750D02*
X93281750Y-70515750D01*
X97281750Y-67215750D02*
X97281750Y-70515750D01*
D10*
X89313000Y-86165750D02*
X88038000Y-86165750D01*
X99663000Y-86740750D02*
X98988000Y-86740750D01*
X99663000Y-76390750D02*
X98988000Y-76390750D01*
X89313000Y-76390750D02*
X89988000Y-76390750D01*
X89313000Y-86740750D02*
X89988000Y-86740750D01*
X89313000Y-76390750D02*
X89313000Y-77065750D01*
X99663000Y-76390750D02*
X99663000Y-77065750D01*
X99663000Y-86740750D02*
X99663000Y-86065750D01*
X89313000Y-86740750D02*
X89313000Y-86165750D01*
D11*
X87237500Y-73029578D02*
X87237500Y-72512422D01*
X88657500Y-73029578D02*
X88657500Y-72512422D01*
X83459250Y-73093078D02*
X83459250Y-72575922D01*
X84879250Y-73093078D02*
X84879250Y-72575922D01*
X98715328Y-91007000D02*
X98198172Y-91007000D01*
X98715328Y-89587000D02*
X98198172Y-89587000D01*
X139938000Y-73497000D02*
X137938000Y-73497000D01*
X137938000Y-73497000D02*
X137938000Y-69597000D01*
X139938000Y-73497000D02*
X139938000Y-69597000D01*
X85673000Y-76544672D02*
X85673000Y-77061828D01*
X84253000Y-76544672D02*
X84253000Y-77061828D01*
X79490500Y-73093078D02*
X79490500Y-72575922D01*
X80910500Y-73093078D02*
X80910500Y-72575922D01*
X90736922Y-89841000D02*
X91254078Y-89841000D01*
X90736922Y-91261000D02*
X91254078Y-91261000D01*
X99334250Y-69124328D02*
X99334250Y-68607172D01*
X100754250Y-69124328D02*
X100754250Y-68607172D01*
X91229250Y-68607172D02*
X91229250Y-69124328D01*
X89809250Y-68607172D02*
X89809250Y-69124328D01*
X85609500Y-85593422D02*
X85609500Y-86110578D01*
X84189500Y-85593422D02*
X84189500Y-86110578D01*
X120888000Y-92547000D02*
X118888000Y-92547000D01*
X118888000Y-92547000D02*
X118888000Y-88647000D01*
X120888000Y-92547000D02*
X120888000Y-88647000D01*
X84253000Y-81030578D02*
X84253000Y-80513422D01*
X85673000Y-81030578D02*
X85673000Y-80513422D01*
X120888000Y-73497000D02*
X118888000Y-73497000D01*
X118888000Y-73497000D02*
X118888000Y-69597000D01*
X120888000Y-73497000D02*
X120888000Y-69597000D01*
X79290500Y-78992814D02*
X79290500Y-77788686D01*
X81110500Y-78992814D02*
X81110500Y-77788686D01*
X139938000Y-92547000D02*
X137938000Y-92547000D01*
X137938000Y-92547000D02*
X137938000Y-88647000D01*
X139938000Y-92547000D02*
X139938000Y-88647000D01*
D10*
X84351595Y-64984380D02*
X84351595Y-65793904D01*
X84303976Y-65889142D01*
X84256357Y-65936761D01*
X84161119Y-65984380D01*
X83970642Y-65984380D01*
X83875404Y-65936761D01*
X83827785Y-65889142D01*
X83780166Y-65793904D01*
X83780166Y-64984380D01*
X83351595Y-65936761D02*
X83208738Y-65984380D01*
X82970642Y-65984380D01*
X82875404Y-65936761D01*
X82827785Y-65889142D01*
X82780166Y-65793904D01*
X82780166Y-65698666D01*
X82827785Y-65603428D01*
X82875404Y-65555809D01*
X82970642Y-65508190D01*
X83161119Y-65460571D01*
X83256357Y-65412952D01*
X83303976Y-65365333D01*
X83351595Y-65270095D01*
X83351595Y-65174857D01*
X83303976Y-65079619D01*
X83256357Y-65032000D01*
X83161119Y-64984380D01*
X82923023Y-64984380D01*
X82780166Y-65032000D01*
X82018261Y-65460571D02*
X81875404Y-65508190D01*
X81827785Y-65555809D01*
X81780166Y-65651047D01*
X81780166Y-65793904D01*
X81827785Y-65889142D01*
X81875404Y-65936761D01*
X81970642Y-65984380D01*
X82351595Y-65984380D01*
X82351595Y-64984380D01*
X82018261Y-64984380D01*
X81923023Y-65032000D01*
X81875404Y-65079619D01*
X81827785Y-65174857D01*
X81827785Y-65270095D01*
X81875404Y-65365333D01*
X81923023Y-65412952D01*
X82018261Y-65460571D01*
X82351595Y-65460571D01*
X80827785Y-65984380D02*
X81399214Y-65984380D01*
X81113500Y-65984380D02*
X81113500Y-64984380D01*
X81208738Y-65127238D01*
X81303976Y-65222476D01*
X81399214Y-65270095D01*
X83915083Y-99528261D02*
X83772226Y-99575880D01*
X83534130Y-99575880D01*
X83438892Y-99528261D01*
X83391273Y-99480642D01*
X83343654Y-99385404D01*
X83343654Y-99290166D01*
X83391273Y-99194928D01*
X83438892Y-99147309D01*
X83534130Y-99099690D01*
X83724607Y-99052071D01*
X83819845Y-99004452D01*
X83867464Y-98956833D01*
X83915083Y-98861595D01*
X83915083Y-98766357D01*
X83867464Y-98671119D01*
X83819845Y-98623500D01*
X83724607Y-98575880D01*
X83486511Y-98575880D01*
X83343654Y-98623500D01*
X83010321Y-98575880D02*
X82772226Y-99575880D01*
X82581750Y-98861595D01*
X82391273Y-99575880D01*
X82153178Y-98575880D01*
X81248416Y-99575880D02*
X81819845Y-99575880D01*
X81534130Y-99575880D02*
X81534130Y-98575880D01*
X81629369Y-98718738D01*
X81724607Y-98813976D01*
X81819845Y-98861595D01*
X98623416Y-97161880D02*
X98956750Y-96685690D01*
X99194845Y-97161880D02*
X99194845Y-96161880D01*
X98813892Y-96161880D01*
X98718654Y-96209500D01*
X98671035Y-96257119D01*
X98623416Y-96352357D01*
X98623416Y-96495214D01*
X98671035Y-96590452D01*
X98718654Y-96638071D01*
X98813892Y-96685690D01*
X99194845Y-96685690D01*
X97766273Y-96495214D02*
X97766273Y-97161880D01*
X98004369Y-96114261D02*
X98242464Y-96828547D01*
X97623416Y-96828547D01*
X95757940Y-66391940D02*
X95757940Y-66868130D01*
X96091273Y-65868130D02*
X95757940Y-66391940D01*
X95424607Y-65868130D01*
X94567464Y-66868130D02*
X95138892Y-66868130D01*
X94853178Y-66868130D02*
X94853178Y-65868130D01*
X94948416Y-66010988D01*
X95043654Y-66106226D01*
X95138892Y-66153845D01*
X95249904Y-88468130D02*
X95249904Y-89277654D01*
X95202285Y-89372892D01*
X95154666Y-89420511D01*
X95059428Y-89468130D01*
X94868952Y-89468130D01*
X94773714Y-89420511D01*
X94726095Y-89372892D01*
X94678476Y-89277654D01*
X94678476Y-88468130D01*
X93678476Y-89468130D02*
X94249904Y-89468130D01*
X93964190Y-89468130D02*
X93964190Y-88468130D01*
X94059428Y-88610988D01*
X94154666Y-88706226D01*
X94249904Y-88753845D01*
X90049880Y-72604333D02*
X89573690Y-72271000D01*
X90049880Y-72032904D02*
X89049880Y-72032904D01*
X89049880Y-72413857D01*
X89097500Y-72509095D01*
X89145119Y-72556714D01*
X89240357Y-72604333D01*
X89383214Y-72604333D01*
X89478452Y-72556714D01*
X89526071Y-72509095D01*
X89573690Y-72413857D01*
X89573690Y-72032904D01*
X89049880Y-72937666D02*
X89049880Y-73556714D01*
X89430833Y-73223380D01*
X89430833Y-73366238D01*
X89478452Y-73461476D01*
X89526071Y-73509095D01*
X89621309Y-73556714D01*
X89859404Y-73556714D01*
X89954642Y-73509095D01*
X90002261Y-73461476D01*
X90049880Y-73366238D01*
X90049880Y-73080523D01*
X90002261Y-72985285D01*
X89954642Y-72937666D01*
X86271630Y-72667833D02*
X85795440Y-72334500D01*
X86271630Y-72096404D02*
X85271630Y-72096404D01*
X85271630Y-72477357D01*
X85319250Y-72572595D01*
X85366869Y-72620214D01*
X85462107Y-72667833D01*
X85604964Y-72667833D01*
X85700202Y-72620214D01*
X85747821Y-72572595D01*
X85795440Y-72477357D01*
X85795440Y-72096404D01*
X85366869Y-73048785D02*
X85319250Y-73096404D01*
X85271630Y-73191642D01*
X85271630Y-73429738D01*
X85319250Y-73524976D01*
X85366869Y-73572595D01*
X85462107Y-73620214D01*
X85557345Y-73620214D01*
X85700202Y-73572595D01*
X86271630Y-73001166D01*
X86271630Y-73620214D01*
X98623416Y-89004142D02*
X98671035Y-89051761D01*
X98813892Y-89099380D01*
X98909130Y-89099380D01*
X99051988Y-89051761D01*
X99147226Y-88956523D01*
X99194845Y-88861285D01*
X99242464Y-88670809D01*
X99242464Y-88527952D01*
X99194845Y-88337476D01*
X99147226Y-88242238D01*
X99051988Y-88147000D01*
X98909130Y-88099380D01*
X98813892Y-88099380D01*
X98671035Y-88147000D01*
X98623416Y-88194619D01*
X98242464Y-88194619D02*
X98194845Y-88147000D01*
X98099607Y-88099380D01*
X97861511Y-88099380D01*
X97766273Y-88147000D01*
X97718654Y-88194619D01*
X97671035Y-88289857D01*
X97671035Y-88385095D01*
X97718654Y-88527952D01*
X98290083Y-89099380D01*
X97671035Y-89099380D01*
X141390380Y-70508904D02*
X140390380Y-70508904D01*
X140390380Y-70747000D01*
X140438000Y-70889857D01*
X140533238Y-70985095D01*
X140628476Y-71032714D01*
X140818952Y-71080333D01*
X140961809Y-71080333D01*
X141152285Y-71032714D01*
X141247523Y-70985095D01*
X141342761Y-70889857D01*
X141390380Y-70747000D01*
X141390380Y-70508904D01*
X140390380Y-71413666D02*
X140390380Y-72032714D01*
X140771333Y-71699380D01*
X140771333Y-71842238D01*
X140818952Y-71937476D01*
X140866571Y-71985095D01*
X140961809Y-72032714D01*
X141199904Y-72032714D01*
X141295142Y-71985095D01*
X141342761Y-71937476D01*
X141390380Y-71842238D01*
X141390380Y-71556523D01*
X141342761Y-71461285D01*
X141295142Y-71413666D01*
X83670142Y-76636583D02*
X83717761Y-76588964D01*
X83765380Y-76446107D01*
X83765380Y-76350869D01*
X83717761Y-76208011D01*
X83622523Y-76112773D01*
X83527285Y-76065154D01*
X83336809Y-76017535D01*
X83193952Y-76017535D01*
X83003476Y-76065154D01*
X82908238Y-76112773D01*
X82813000Y-76208011D01*
X82765380Y-76350869D01*
X82765380Y-76446107D01*
X82813000Y-76588964D01*
X82860619Y-76636583D01*
X83765380Y-77588964D02*
X83765380Y-77017535D01*
X83765380Y-77303250D02*
X82765380Y-77303250D01*
X82908238Y-77208011D01*
X83003476Y-77112773D01*
X83051095Y-77017535D01*
X82302880Y-72667833D02*
X81826690Y-72334500D01*
X82302880Y-72096404D02*
X81302880Y-72096404D01*
X81302880Y-72477357D01*
X81350500Y-72572595D01*
X81398119Y-72620214D01*
X81493357Y-72667833D01*
X81636214Y-72667833D01*
X81731452Y-72620214D01*
X81779071Y-72572595D01*
X81826690Y-72477357D01*
X81826690Y-72096404D01*
X82302880Y-73620214D02*
X82302880Y-73048785D01*
X82302880Y-73334500D02*
X81302880Y-73334500D01*
X81445738Y-73239261D01*
X81540976Y-73144023D01*
X81588595Y-73048785D01*
X91162166Y-92558142D02*
X91209785Y-92605761D01*
X91352642Y-92653380D01*
X91447880Y-92653380D01*
X91590738Y-92605761D01*
X91685976Y-92510523D01*
X91733595Y-92415285D01*
X91781214Y-92224809D01*
X91781214Y-92081952D01*
X91733595Y-91891476D01*
X91685976Y-91796238D01*
X91590738Y-91701000D01*
X91447880Y-91653380D01*
X91352642Y-91653380D01*
X91209785Y-91701000D01*
X91162166Y-91748619D01*
X90828833Y-91653380D02*
X90209785Y-91653380D01*
X90543119Y-92034333D01*
X90400261Y-92034333D01*
X90305023Y-92081952D01*
X90257404Y-92129571D01*
X90209785Y-92224809D01*
X90209785Y-92462904D01*
X90257404Y-92558142D01*
X90305023Y-92605761D01*
X90400261Y-92653380D01*
X90685976Y-92653380D01*
X90781214Y-92605761D01*
X90828833Y-92558142D01*
X102051392Y-68699083D02*
X102099011Y-68651464D01*
X102146630Y-68508607D01*
X102146630Y-68413369D01*
X102099011Y-68270511D01*
X102003773Y-68175273D01*
X101908535Y-68127654D01*
X101718059Y-68080035D01*
X101575202Y-68080035D01*
X101384726Y-68127654D01*
X101289488Y-68175273D01*
X101194250Y-68270511D01*
X101146630Y-68413369D01*
X101146630Y-68508607D01*
X101194250Y-68651464D01*
X101241869Y-68699083D01*
X101479964Y-69556226D02*
X102146630Y-69556226D01*
X101099011Y-69318130D02*
X101813297Y-69080035D01*
X101813297Y-69699083D01*
X89226392Y-68699083D02*
X89274011Y-68651464D01*
X89321630Y-68508607D01*
X89321630Y-68413369D01*
X89274011Y-68270511D01*
X89178773Y-68175273D01*
X89083535Y-68127654D01*
X88893059Y-68080035D01*
X88750202Y-68080035D01*
X88559726Y-68127654D01*
X88464488Y-68175273D01*
X88369250Y-68270511D01*
X88321630Y-68413369D01*
X88321630Y-68508607D01*
X88369250Y-68651464D01*
X88416869Y-68699083D01*
X88321630Y-69603845D02*
X88321630Y-69127654D01*
X88797821Y-69080035D01*
X88750202Y-69127654D01*
X88702583Y-69222892D01*
X88702583Y-69460988D01*
X88750202Y-69556226D01*
X88797821Y-69603845D01*
X88893059Y-69651464D01*
X89131154Y-69651464D01*
X89226392Y-69603845D01*
X89274011Y-69556226D01*
X89321630Y-69460988D01*
X89321630Y-69222892D01*
X89274011Y-69127654D01*
X89226392Y-69080035D01*
X83606642Y-85685333D02*
X83654261Y-85637714D01*
X83701880Y-85494857D01*
X83701880Y-85399619D01*
X83654261Y-85256761D01*
X83559023Y-85161523D01*
X83463785Y-85113904D01*
X83273309Y-85066285D01*
X83130452Y-85066285D01*
X82939976Y-85113904D01*
X82844738Y-85161523D01*
X82749500Y-85256761D01*
X82701880Y-85399619D01*
X82701880Y-85494857D01*
X82749500Y-85637714D01*
X82797119Y-85685333D01*
X82701880Y-86542476D02*
X82701880Y-86352000D01*
X82749500Y-86256761D01*
X82797119Y-86209142D01*
X82939976Y-86113904D01*
X83130452Y-86066285D01*
X83511404Y-86066285D01*
X83606642Y-86113904D01*
X83654261Y-86161523D01*
X83701880Y-86256761D01*
X83701880Y-86447238D01*
X83654261Y-86542476D01*
X83606642Y-86590095D01*
X83511404Y-86637714D01*
X83273309Y-86637714D01*
X83178071Y-86590095D01*
X83130452Y-86542476D01*
X83082833Y-86447238D01*
X83082833Y-86256761D01*
X83130452Y-86161523D01*
X83178071Y-86113904D01*
X83273309Y-86066285D01*
X122340380Y-89558904D02*
X121340380Y-89558904D01*
X121340380Y-89797000D01*
X121388000Y-89939857D01*
X121483238Y-90035095D01*
X121578476Y-90082714D01*
X121768952Y-90130333D01*
X121911809Y-90130333D01*
X122102285Y-90082714D01*
X122197523Y-90035095D01*
X122292761Y-89939857D01*
X122340380Y-89797000D01*
X122340380Y-89558904D01*
X121435619Y-90511285D02*
X121388000Y-90558904D01*
X121340380Y-90654142D01*
X121340380Y-90892238D01*
X121388000Y-90987476D01*
X121435619Y-91035095D01*
X121530857Y-91082714D01*
X121626095Y-91082714D01*
X121768952Y-91035095D01*
X122340380Y-90463666D01*
X122340380Y-91082714D01*
X86970142Y-80605333D02*
X87017761Y-80557714D01*
X87065380Y-80414857D01*
X87065380Y-80319619D01*
X87017761Y-80176761D01*
X86922523Y-80081523D01*
X86827285Y-80033904D01*
X86636809Y-79986285D01*
X86493952Y-79986285D01*
X86303476Y-80033904D01*
X86208238Y-80081523D01*
X86113000Y-80176761D01*
X86065380Y-80319619D01*
X86065380Y-80414857D01*
X86113000Y-80557714D01*
X86160619Y-80605333D01*
X86065380Y-80938666D02*
X86065380Y-81605333D01*
X87065380Y-81176761D01*
X121435619Y-71985095D02*
X122435619Y-71985095D01*
X122435619Y-71747000D01*
X122388000Y-71604142D01*
X122292761Y-71508904D01*
X122197523Y-71461285D01*
X122007047Y-71413666D01*
X121864190Y-71413666D01*
X121673714Y-71461285D01*
X121578476Y-71508904D01*
X121483238Y-71604142D01*
X121435619Y-71747000D01*
X121435619Y-71985095D01*
X121435619Y-70461285D02*
X121435619Y-71032714D01*
X121435619Y-70747000D02*
X122435619Y-70747000D01*
X122292761Y-70842238D01*
X122197523Y-70937476D01*
X122149904Y-71032714D01*
X81949071Y-78057416D02*
X81949071Y-77724083D01*
X82472880Y-77724083D02*
X81472880Y-77724083D01*
X81472880Y-78200273D01*
X82472880Y-79105035D02*
X82472880Y-78533607D01*
X82472880Y-78819321D02*
X81472880Y-78819321D01*
X81615738Y-78724083D01*
X81710976Y-78628845D01*
X81758595Y-78533607D01*
X141390380Y-89558904D02*
X140390380Y-89558904D01*
X140390380Y-89797000D01*
X140438000Y-89939857D01*
X140533238Y-90035095D01*
X140628476Y-90082714D01*
X140818952Y-90130333D01*
X140961809Y-90130333D01*
X141152285Y-90082714D01*
X141247523Y-90035095D01*
X141342761Y-89939857D01*
X141390380Y-89797000D01*
X141390380Y-89558904D01*
X140723714Y-90987476D02*
X141390380Y-90987476D01*
X140342761Y-90749380D02*
X141057047Y-90511285D01*
X141057047Y-91130333D01*
%LPC*%
D12*
X78963500Y-63500000D03*
X86263500Y-63500000D03*
X86263500Y-68000000D03*
X78963500Y-68000000D03*
D13*
X81013500Y-68000000D03*
X81813500Y-68000000D03*
X82613500Y-68000000D03*
X83413500Y-68000000D03*
X84213500Y-68000000D03*
D14*
X85681750Y-96909500D03*
X79481750Y-93209500D03*
X85681750Y-93209500D03*
X79481750Y-96909500D03*
D15*
G36*
X99689891Y-94309797D02*
G01*
X99716028Y-94313674D01*
X99741659Y-94320094D01*
X99766538Y-94328995D01*
X99790424Y-94340293D01*
X99813087Y-94353877D01*
X99834310Y-94369617D01*
X99853889Y-94387361D01*
X99871633Y-94406940D01*
X99887373Y-94428163D01*
X99900957Y-94450826D01*
X99912255Y-94474712D01*
X99921156Y-94499591D01*
X99927576Y-94525222D01*
X99931453Y-94551359D01*
X99932750Y-94577750D01*
X99932750Y-95541250D01*
X99931453Y-95567641D01*
X99927576Y-95593778D01*
X99921156Y-95619409D01*
X99912255Y-95644288D01*
X99900957Y-95668174D01*
X99887373Y-95690837D01*
X99871633Y-95712060D01*
X99853889Y-95731639D01*
X99834310Y-95749383D01*
X99813087Y-95765123D01*
X99790424Y-95778707D01*
X99766538Y-95790005D01*
X99741659Y-95798906D01*
X99716028Y-95805326D01*
X99689891Y-95809203D01*
X99663500Y-95810500D01*
X99125000Y-95810500D01*
X99098609Y-95809203D01*
X99072472Y-95805326D01*
X99046841Y-95798906D01*
X99021962Y-95790005D01*
X98998076Y-95778707D01*
X98975413Y-95765123D01*
X98954190Y-95749383D01*
X98934611Y-95731639D01*
X98916867Y-95712060D01*
X98901127Y-95690837D01*
X98887543Y-95668174D01*
X98876245Y-95644288D01*
X98867344Y-95619409D01*
X98860924Y-95593778D01*
X98857047Y-95567641D01*
X98855750Y-95541250D01*
X98855750Y-94577750D01*
X98857047Y-94551359D01*
X98860924Y-94525222D01*
X98867344Y-94499591D01*
X98876245Y-94474712D01*
X98887543Y-94450826D01*
X98901127Y-94428163D01*
X98916867Y-94406940D01*
X98934611Y-94387361D01*
X98954190Y-94369617D01*
X98975413Y-94353877D01*
X98998076Y-94340293D01*
X99021962Y-94328995D01*
X99046841Y-94320094D01*
X99072472Y-94313674D01*
X99098609Y-94309797D01*
X99125000Y-94308500D01*
X99663500Y-94308500D01*
X99689891Y-94309797D01*
X99689891Y-94309797D01*
G37*
D16*
X99394250Y-95059500D03*
D15*
G36*
X97814891Y-94309797D02*
G01*
X97841028Y-94313674D01*
X97866659Y-94320094D01*
X97891538Y-94328995D01*
X97915424Y-94340293D01*
X97938087Y-94353877D01*
X97959310Y-94369617D01*
X97978889Y-94387361D01*
X97996633Y-94406940D01*
X98012373Y-94428163D01*
X98025957Y-94450826D01*
X98037255Y-94474712D01*
X98046156Y-94499591D01*
X98052576Y-94525222D01*
X98056453Y-94551359D01*
X98057750Y-94577750D01*
X98057750Y-95541250D01*
X98056453Y-95567641D01*
X98052576Y-95593778D01*
X98046156Y-95619409D01*
X98037255Y-95644288D01*
X98025957Y-95668174D01*
X98012373Y-95690837D01*
X97996633Y-95712060D01*
X97978889Y-95731639D01*
X97959310Y-95749383D01*
X97938087Y-95765123D01*
X97915424Y-95778707D01*
X97891538Y-95790005D01*
X97866659Y-95798906D01*
X97841028Y-95805326D01*
X97814891Y-95809203D01*
X97788500Y-95810500D01*
X97250000Y-95810500D01*
X97223609Y-95809203D01*
X97197472Y-95805326D01*
X97171841Y-95798906D01*
X97146962Y-95790005D01*
X97123076Y-95778707D01*
X97100413Y-95765123D01*
X97079190Y-95749383D01*
X97059611Y-95731639D01*
X97041867Y-95712060D01*
X97026127Y-95690837D01*
X97012543Y-95668174D01*
X97001245Y-95644288D01*
X96992344Y-95619409D01*
X96985924Y-95593778D01*
X96982047Y-95567641D01*
X96980750Y-95541250D01*
X96980750Y-94577750D01*
X96982047Y-94551359D01*
X96985924Y-94525222D01*
X96992344Y-94499591D01*
X97001245Y-94474712D01*
X97012543Y-94450826D01*
X97026127Y-94428163D01*
X97041867Y-94406940D01*
X97059611Y-94387361D01*
X97079190Y-94369617D01*
X97100413Y-94353877D01*
X97123076Y-94340293D01*
X97146962Y-94328995D01*
X97171841Y-94320094D01*
X97197472Y-94313674D01*
X97223609Y-94309797D01*
X97250000Y-94308500D01*
X97788500Y-94308500D01*
X97814891Y-94309797D01*
X97814891Y-94309797D01*
G37*
D16*
X97519250Y-95059500D03*
D17*
X96381750Y-68015750D03*
X94181750Y-68015750D03*
X94181750Y-69715750D03*
X96381750Y-69715750D03*
D18*
X90488000Y-87265750D03*
X91288000Y-87265750D03*
X92088000Y-87265750D03*
X92888000Y-87265750D03*
X93688000Y-87265750D03*
X94488000Y-87265750D03*
X95288000Y-87265750D03*
X96088000Y-87265750D03*
X96888000Y-87265750D03*
X97688000Y-87265750D03*
X98488000Y-87265750D03*
D19*
X100188000Y-85565750D03*
X100188000Y-84765750D03*
X100188000Y-83965750D03*
X100188000Y-83165750D03*
X100188000Y-82365750D03*
X100188000Y-81565750D03*
X100188000Y-80765750D03*
X100188000Y-79965750D03*
X100188000Y-79165750D03*
X100188000Y-78365750D03*
X100188000Y-77565750D03*
D18*
X98488000Y-75865750D03*
X97688000Y-75865750D03*
X96888000Y-75865750D03*
X96088000Y-75865750D03*
X95288000Y-75865750D03*
X94488000Y-75865750D03*
X93688000Y-75865750D03*
X92888000Y-75865750D03*
X92088000Y-75865750D03*
X91288000Y-75865750D03*
X90488000Y-75865750D03*
D19*
X88788000Y-77565750D03*
X88788000Y-78365750D03*
X88788000Y-79165750D03*
X88788000Y-79965750D03*
X88788000Y-80765750D03*
X88788000Y-81565750D03*
X88788000Y-82365750D03*
X88788000Y-83165750D03*
X88788000Y-83965750D03*
X88788000Y-84765750D03*
X88788000Y-85565750D03*
D15*
G36*
X88455641Y-71296297D02*
G01*
X88481778Y-71300174D01*
X88507409Y-71306594D01*
X88532288Y-71315495D01*
X88556174Y-71326793D01*
X88578837Y-71340377D01*
X88600060Y-71356117D01*
X88619639Y-71373861D01*
X88637383Y-71393440D01*
X88653123Y-71414663D01*
X88666707Y-71437326D01*
X88678005Y-71461212D01*
X88686906Y-71486091D01*
X88693326Y-71511722D01*
X88697203Y-71537859D01*
X88698500Y-71564250D01*
X88698500Y-72102750D01*
X88697203Y-72129141D01*
X88693326Y-72155278D01*
X88686906Y-72180909D01*
X88678005Y-72205788D01*
X88666707Y-72229674D01*
X88653123Y-72252337D01*
X88637383Y-72273560D01*
X88619639Y-72293139D01*
X88600060Y-72310883D01*
X88578837Y-72326623D01*
X88556174Y-72340207D01*
X88532288Y-72351505D01*
X88507409Y-72360406D01*
X88481778Y-72366826D01*
X88455641Y-72370703D01*
X88429250Y-72372000D01*
X87465750Y-72372000D01*
X87439359Y-72370703D01*
X87413222Y-72366826D01*
X87387591Y-72360406D01*
X87362712Y-72351505D01*
X87338826Y-72340207D01*
X87316163Y-72326623D01*
X87294940Y-72310883D01*
X87275361Y-72293139D01*
X87257617Y-72273560D01*
X87241877Y-72252337D01*
X87228293Y-72229674D01*
X87216995Y-72205788D01*
X87208094Y-72180909D01*
X87201674Y-72155278D01*
X87197797Y-72129141D01*
X87196500Y-72102750D01*
X87196500Y-71564250D01*
X87197797Y-71537859D01*
X87201674Y-71511722D01*
X87208094Y-71486091D01*
X87216995Y-71461212D01*
X87228293Y-71437326D01*
X87241877Y-71414663D01*
X87257617Y-71393440D01*
X87275361Y-71373861D01*
X87294940Y-71356117D01*
X87316163Y-71340377D01*
X87338826Y-71326793D01*
X87362712Y-71315495D01*
X87387591Y-71306594D01*
X87413222Y-71300174D01*
X87439359Y-71296297D01*
X87465750Y-71295000D01*
X88429250Y-71295000D01*
X88455641Y-71296297D01*
X88455641Y-71296297D01*
G37*
D16*
X87947500Y-71833500D03*
D15*
G36*
X88455641Y-73171297D02*
G01*
X88481778Y-73175174D01*
X88507409Y-73181594D01*
X88532288Y-73190495D01*
X88556174Y-73201793D01*
X88578837Y-73215377D01*
X88600060Y-73231117D01*
X88619639Y-73248861D01*
X88637383Y-73268440D01*
X88653123Y-73289663D01*
X88666707Y-73312326D01*
X88678005Y-73336212D01*
X88686906Y-73361091D01*
X88693326Y-73386722D01*
X88697203Y-73412859D01*
X88698500Y-73439250D01*
X88698500Y-73977750D01*
X88697203Y-74004141D01*
X88693326Y-74030278D01*
X88686906Y-74055909D01*
X88678005Y-74080788D01*
X88666707Y-74104674D01*
X88653123Y-74127337D01*
X88637383Y-74148560D01*
X88619639Y-74168139D01*
X88600060Y-74185883D01*
X88578837Y-74201623D01*
X88556174Y-74215207D01*
X88532288Y-74226505D01*
X88507409Y-74235406D01*
X88481778Y-74241826D01*
X88455641Y-74245703D01*
X88429250Y-74247000D01*
X87465750Y-74247000D01*
X87439359Y-74245703D01*
X87413222Y-74241826D01*
X87387591Y-74235406D01*
X87362712Y-74226505D01*
X87338826Y-74215207D01*
X87316163Y-74201623D01*
X87294940Y-74185883D01*
X87275361Y-74168139D01*
X87257617Y-74148560D01*
X87241877Y-74127337D01*
X87228293Y-74104674D01*
X87216995Y-74080788D01*
X87208094Y-74055909D01*
X87201674Y-74030278D01*
X87197797Y-74004141D01*
X87196500Y-73977750D01*
X87196500Y-73439250D01*
X87197797Y-73412859D01*
X87201674Y-73386722D01*
X87208094Y-73361091D01*
X87216995Y-73336212D01*
X87228293Y-73312326D01*
X87241877Y-73289663D01*
X87257617Y-73268440D01*
X87275361Y-73248861D01*
X87294940Y-73231117D01*
X87316163Y-73215377D01*
X87338826Y-73201793D01*
X87362712Y-73190495D01*
X87387591Y-73181594D01*
X87413222Y-73175174D01*
X87439359Y-73171297D01*
X87465750Y-73170000D01*
X88429250Y-73170000D01*
X88455641Y-73171297D01*
X88455641Y-73171297D01*
G37*
D16*
X87947500Y-73708500D03*
D15*
G36*
X84677391Y-71359797D02*
G01*
X84703528Y-71363674D01*
X84729159Y-71370094D01*
X84754038Y-71378995D01*
X84777924Y-71390293D01*
X84800587Y-71403877D01*
X84821810Y-71419617D01*
X84841389Y-71437361D01*
X84859133Y-71456940D01*
X84874873Y-71478163D01*
X84888457Y-71500826D01*
X84899755Y-71524712D01*
X84908656Y-71549591D01*
X84915076Y-71575222D01*
X84918953Y-71601359D01*
X84920250Y-71627750D01*
X84920250Y-72166250D01*
X84918953Y-72192641D01*
X84915076Y-72218778D01*
X84908656Y-72244409D01*
X84899755Y-72269288D01*
X84888457Y-72293174D01*
X84874873Y-72315837D01*
X84859133Y-72337060D01*
X84841389Y-72356639D01*
X84821810Y-72374383D01*
X84800587Y-72390123D01*
X84777924Y-72403707D01*
X84754038Y-72415005D01*
X84729159Y-72423906D01*
X84703528Y-72430326D01*
X84677391Y-72434203D01*
X84651000Y-72435500D01*
X83687500Y-72435500D01*
X83661109Y-72434203D01*
X83634972Y-72430326D01*
X83609341Y-72423906D01*
X83584462Y-72415005D01*
X83560576Y-72403707D01*
X83537913Y-72390123D01*
X83516690Y-72374383D01*
X83497111Y-72356639D01*
X83479367Y-72337060D01*
X83463627Y-72315837D01*
X83450043Y-72293174D01*
X83438745Y-72269288D01*
X83429844Y-72244409D01*
X83423424Y-72218778D01*
X83419547Y-72192641D01*
X83418250Y-72166250D01*
X83418250Y-71627750D01*
X83419547Y-71601359D01*
X83423424Y-71575222D01*
X83429844Y-71549591D01*
X83438745Y-71524712D01*
X83450043Y-71500826D01*
X83463627Y-71478163D01*
X83479367Y-71456940D01*
X83497111Y-71437361D01*
X83516690Y-71419617D01*
X83537913Y-71403877D01*
X83560576Y-71390293D01*
X83584462Y-71378995D01*
X83609341Y-71370094D01*
X83634972Y-71363674D01*
X83661109Y-71359797D01*
X83687500Y-71358500D01*
X84651000Y-71358500D01*
X84677391Y-71359797D01*
X84677391Y-71359797D01*
G37*
D16*
X84169250Y-71897000D03*
D15*
G36*
X84677391Y-73234797D02*
G01*
X84703528Y-73238674D01*
X84729159Y-73245094D01*
X84754038Y-73253995D01*
X84777924Y-73265293D01*
X84800587Y-73278877D01*
X84821810Y-73294617D01*
X84841389Y-73312361D01*
X84859133Y-73331940D01*
X84874873Y-73353163D01*
X84888457Y-73375826D01*
X84899755Y-73399712D01*
X84908656Y-73424591D01*
X84915076Y-73450222D01*
X84918953Y-73476359D01*
X84920250Y-73502750D01*
X84920250Y-74041250D01*
X84918953Y-74067641D01*
X84915076Y-74093778D01*
X84908656Y-74119409D01*
X84899755Y-74144288D01*
X84888457Y-74168174D01*
X84874873Y-74190837D01*
X84859133Y-74212060D01*
X84841389Y-74231639D01*
X84821810Y-74249383D01*
X84800587Y-74265123D01*
X84777924Y-74278707D01*
X84754038Y-74290005D01*
X84729159Y-74298906D01*
X84703528Y-74305326D01*
X84677391Y-74309203D01*
X84651000Y-74310500D01*
X83687500Y-74310500D01*
X83661109Y-74309203D01*
X83634972Y-74305326D01*
X83609341Y-74298906D01*
X83584462Y-74290005D01*
X83560576Y-74278707D01*
X83537913Y-74265123D01*
X83516690Y-74249383D01*
X83497111Y-74231639D01*
X83479367Y-74212060D01*
X83463627Y-74190837D01*
X83450043Y-74168174D01*
X83438745Y-74144288D01*
X83429844Y-74119409D01*
X83423424Y-74093778D01*
X83419547Y-74067641D01*
X83418250Y-74041250D01*
X83418250Y-73502750D01*
X83419547Y-73476359D01*
X83423424Y-73450222D01*
X83429844Y-73424591D01*
X83438745Y-73399712D01*
X83450043Y-73375826D01*
X83463627Y-73353163D01*
X83479367Y-73331940D01*
X83497111Y-73312361D01*
X83516690Y-73294617D01*
X83537913Y-73278877D01*
X83560576Y-73265293D01*
X83584462Y-73253995D01*
X83609341Y-73245094D01*
X83634972Y-73238674D01*
X83661109Y-73234797D01*
X83687500Y-73233500D01*
X84651000Y-73233500D01*
X84677391Y-73234797D01*
X84677391Y-73234797D01*
G37*
D16*
X84169250Y-73772000D03*
D15*
G36*
X97814891Y-89547297D02*
G01*
X97841028Y-89551174D01*
X97866659Y-89557594D01*
X97891538Y-89566495D01*
X97915424Y-89577793D01*
X97938087Y-89591377D01*
X97959310Y-89607117D01*
X97978889Y-89624861D01*
X97996633Y-89644440D01*
X98012373Y-89665663D01*
X98025957Y-89688326D01*
X98037255Y-89712212D01*
X98046156Y-89737091D01*
X98052576Y-89762722D01*
X98056453Y-89788859D01*
X98057750Y-89815250D01*
X98057750Y-90778750D01*
X98056453Y-90805141D01*
X98052576Y-90831278D01*
X98046156Y-90856909D01*
X98037255Y-90881788D01*
X98025957Y-90905674D01*
X98012373Y-90928337D01*
X97996633Y-90949560D01*
X97978889Y-90969139D01*
X97959310Y-90986883D01*
X97938087Y-91002623D01*
X97915424Y-91016207D01*
X97891538Y-91027505D01*
X97866659Y-91036406D01*
X97841028Y-91042826D01*
X97814891Y-91046703D01*
X97788500Y-91048000D01*
X97250000Y-91048000D01*
X97223609Y-91046703D01*
X97197472Y-91042826D01*
X97171841Y-91036406D01*
X97146962Y-91027505D01*
X97123076Y-91016207D01*
X97100413Y-91002623D01*
X97079190Y-90986883D01*
X97059611Y-90969139D01*
X97041867Y-90949560D01*
X97026127Y-90928337D01*
X97012543Y-90905674D01*
X97001245Y-90881788D01*
X96992344Y-90856909D01*
X96985924Y-90831278D01*
X96982047Y-90805141D01*
X96980750Y-90778750D01*
X96980750Y-89815250D01*
X96982047Y-89788859D01*
X96985924Y-89762722D01*
X96992344Y-89737091D01*
X97001245Y-89712212D01*
X97012543Y-89688326D01*
X97026127Y-89665663D01*
X97041867Y-89644440D01*
X97059611Y-89624861D01*
X97079190Y-89607117D01*
X97100413Y-89591377D01*
X97123076Y-89577793D01*
X97146962Y-89566495D01*
X97171841Y-89557594D01*
X97197472Y-89551174D01*
X97223609Y-89547297D01*
X97250000Y-89546000D01*
X97788500Y-89546000D01*
X97814891Y-89547297D01*
X97814891Y-89547297D01*
G37*
D16*
X97519250Y-90297000D03*
D15*
G36*
X99689891Y-89547297D02*
G01*
X99716028Y-89551174D01*
X99741659Y-89557594D01*
X99766538Y-89566495D01*
X99790424Y-89577793D01*
X99813087Y-89591377D01*
X99834310Y-89607117D01*
X99853889Y-89624861D01*
X99871633Y-89644440D01*
X99887373Y-89665663D01*
X99900957Y-89688326D01*
X99912255Y-89712212D01*
X99921156Y-89737091D01*
X99927576Y-89762722D01*
X99931453Y-89788859D01*
X99932750Y-89815250D01*
X99932750Y-90778750D01*
X99931453Y-90805141D01*
X99927576Y-90831278D01*
X99921156Y-90856909D01*
X99912255Y-90881788D01*
X99900957Y-90905674D01*
X99887373Y-90928337D01*
X99871633Y-90949560D01*
X99853889Y-90969139D01*
X99834310Y-90986883D01*
X99813087Y-91002623D01*
X99790424Y-91016207D01*
X99766538Y-91027505D01*
X99741659Y-91036406D01*
X99716028Y-91042826D01*
X99689891Y-91046703D01*
X99663500Y-91048000D01*
X99125000Y-91048000D01*
X99098609Y-91046703D01*
X99072472Y-91042826D01*
X99046841Y-91036406D01*
X99021962Y-91027505D01*
X98998076Y-91016207D01*
X98975413Y-91002623D01*
X98954190Y-90986883D01*
X98934611Y-90969139D01*
X98916867Y-90949560D01*
X98901127Y-90928337D01*
X98887543Y-90905674D01*
X98876245Y-90881788D01*
X98867344Y-90856909D01*
X98860924Y-90831278D01*
X98857047Y-90805141D01*
X98855750Y-90778750D01*
X98855750Y-89815250D01*
X98857047Y-89788859D01*
X98860924Y-89762722D01*
X98867344Y-89737091D01*
X98876245Y-89712212D01*
X98887543Y-89688326D01*
X98901127Y-89665663D01*
X98916867Y-89644440D01*
X98934611Y-89624861D01*
X98954190Y-89607117D01*
X98975413Y-89591377D01*
X98998076Y-89577793D01*
X99021962Y-89566495D01*
X99046841Y-89557594D01*
X99072472Y-89551174D01*
X99098609Y-89547297D01*
X99125000Y-89546000D01*
X99663500Y-89546000D01*
X99689891Y-89547297D01*
X99689891Y-89547297D01*
G37*
D16*
X99394250Y-90297000D03*
D20*
X138938000Y-72897000D03*
X138938000Y-69597000D03*
D15*
G36*
X85471141Y-77203547D02*
G01*
X85497278Y-77207424D01*
X85522909Y-77213844D01*
X85547788Y-77222745D01*
X85571674Y-77234043D01*
X85594337Y-77247627D01*
X85615560Y-77263367D01*
X85635139Y-77281111D01*
X85652883Y-77300690D01*
X85668623Y-77321913D01*
X85682207Y-77344576D01*
X85693505Y-77368462D01*
X85702406Y-77393341D01*
X85708826Y-77418972D01*
X85712703Y-77445109D01*
X85714000Y-77471500D01*
X85714000Y-78010000D01*
X85712703Y-78036391D01*
X85708826Y-78062528D01*
X85702406Y-78088159D01*
X85693505Y-78113038D01*
X85682207Y-78136924D01*
X85668623Y-78159587D01*
X85652883Y-78180810D01*
X85635139Y-78200389D01*
X85615560Y-78218133D01*
X85594337Y-78233873D01*
X85571674Y-78247457D01*
X85547788Y-78258755D01*
X85522909Y-78267656D01*
X85497278Y-78274076D01*
X85471141Y-78277953D01*
X85444750Y-78279250D01*
X84481250Y-78279250D01*
X84454859Y-78277953D01*
X84428722Y-78274076D01*
X84403091Y-78267656D01*
X84378212Y-78258755D01*
X84354326Y-78247457D01*
X84331663Y-78233873D01*
X84310440Y-78218133D01*
X84290861Y-78200389D01*
X84273117Y-78180810D01*
X84257377Y-78159587D01*
X84243793Y-78136924D01*
X84232495Y-78113038D01*
X84223594Y-78088159D01*
X84217174Y-78062528D01*
X84213297Y-78036391D01*
X84212000Y-78010000D01*
X84212000Y-77471500D01*
X84213297Y-77445109D01*
X84217174Y-77418972D01*
X84223594Y-77393341D01*
X84232495Y-77368462D01*
X84243793Y-77344576D01*
X84257377Y-77321913D01*
X84273117Y-77300690D01*
X84290861Y-77281111D01*
X84310440Y-77263367D01*
X84331663Y-77247627D01*
X84354326Y-77234043D01*
X84378212Y-77222745D01*
X84403091Y-77213844D01*
X84428722Y-77207424D01*
X84454859Y-77203547D01*
X84481250Y-77202250D01*
X85444750Y-77202250D01*
X85471141Y-77203547D01*
X85471141Y-77203547D01*
G37*
D16*
X84963000Y-77740750D03*
D15*
G36*
X85471141Y-75328547D02*
G01*
X85497278Y-75332424D01*
X85522909Y-75338844D01*
X85547788Y-75347745D01*
X85571674Y-75359043D01*
X85594337Y-75372627D01*
X85615560Y-75388367D01*
X85635139Y-75406111D01*
X85652883Y-75425690D01*
X85668623Y-75446913D01*
X85682207Y-75469576D01*
X85693505Y-75493462D01*
X85702406Y-75518341D01*
X85708826Y-75543972D01*
X85712703Y-75570109D01*
X85714000Y-75596500D01*
X85714000Y-76135000D01*
X85712703Y-76161391D01*
X85708826Y-76187528D01*
X85702406Y-76213159D01*
X85693505Y-76238038D01*
X85682207Y-76261924D01*
X85668623Y-76284587D01*
X85652883Y-76305810D01*
X85635139Y-76325389D01*
X85615560Y-76343133D01*
X85594337Y-76358873D01*
X85571674Y-76372457D01*
X85547788Y-76383755D01*
X85522909Y-76392656D01*
X85497278Y-76399076D01*
X85471141Y-76402953D01*
X85444750Y-76404250D01*
X84481250Y-76404250D01*
X84454859Y-76402953D01*
X84428722Y-76399076D01*
X84403091Y-76392656D01*
X84378212Y-76383755D01*
X84354326Y-76372457D01*
X84331663Y-76358873D01*
X84310440Y-76343133D01*
X84290861Y-76325389D01*
X84273117Y-76305810D01*
X84257377Y-76284587D01*
X84243793Y-76261924D01*
X84232495Y-76238038D01*
X84223594Y-76213159D01*
X84217174Y-76187528D01*
X84213297Y-76161391D01*
X84212000Y-76135000D01*
X84212000Y-75596500D01*
X84213297Y-75570109D01*
X84217174Y-75543972D01*
X84223594Y-75518341D01*
X84232495Y-75493462D01*
X84243793Y-75469576D01*
X84257377Y-75446913D01*
X84273117Y-75425690D01*
X84290861Y-75406111D01*
X84310440Y-75388367D01*
X84331663Y-75372627D01*
X84354326Y-75359043D01*
X84378212Y-75347745D01*
X84403091Y-75338844D01*
X84428722Y-75332424D01*
X84454859Y-75328547D01*
X84481250Y-75327250D01*
X85444750Y-75327250D01*
X85471141Y-75328547D01*
X85471141Y-75328547D01*
G37*
D16*
X84963000Y-75865750D03*
D15*
G36*
X80708641Y-71359797D02*
G01*
X80734778Y-71363674D01*
X80760409Y-71370094D01*
X80785288Y-71378995D01*
X80809174Y-71390293D01*
X80831837Y-71403877D01*
X80853060Y-71419617D01*
X80872639Y-71437361D01*
X80890383Y-71456940D01*
X80906123Y-71478163D01*
X80919707Y-71500826D01*
X80931005Y-71524712D01*
X80939906Y-71549591D01*
X80946326Y-71575222D01*
X80950203Y-71601359D01*
X80951500Y-71627750D01*
X80951500Y-72166250D01*
X80950203Y-72192641D01*
X80946326Y-72218778D01*
X80939906Y-72244409D01*
X80931005Y-72269288D01*
X80919707Y-72293174D01*
X80906123Y-72315837D01*
X80890383Y-72337060D01*
X80872639Y-72356639D01*
X80853060Y-72374383D01*
X80831837Y-72390123D01*
X80809174Y-72403707D01*
X80785288Y-72415005D01*
X80760409Y-72423906D01*
X80734778Y-72430326D01*
X80708641Y-72434203D01*
X80682250Y-72435500D01*
X79718750Y-72435500D01*
X79692359Y-72434203D01*
X79666222Y-72430326D01*
X79640591Y-72423906D01*
X79615712Y-72415005D01*
X79591826Y-72403707D01*
X79569163Y-72390123D01*
X79547940Y-72374383D01*
X79528361Y-72356639D01*
X79510617Y-72337060D01*
X79494877Y-72315837D01*
X79481293Y-72293174D01*
X79469995Y-72269288D01*
X79461094Y-72244409D01*
X79454674Y-72218778D01*
X79450797Y-72192641D01*
X79449500Y-72166250D01*
X79449500Y-71627750D01*
X79450797Y-71601359D01*
X79454674Y-71575222D01*
X79461094Y-71549591D01*
X79469995Y-71524712D01*
X79481293Y-71500826D01*
X79494877Y-71478163D01*
X79510617Y-71456940D01*
X79528361Y-71437361D01*
X79547940Y-71419617D01*
X79569163Y-71403877D01*
X79591826Y-71390293D01*
X79615712Y-71378995D01*
X79640591Y-71370094D01*
X79666222Y-71363674D01*
X79692359Y-71359797D01*
X79718750Y-71358500D01*
X80682250Y-71358500D01*
X80708641Y-71359797D01*
X80708641Y-71359797D01*
G37*
D16*
X80200500Y-71897000D03*
D15*
G36*
X80708641Y-73234797D02*
G01*
X80734778Y-73238674D01*
X80760409Y-73245094D01*
X80785288Y-73253995D01*
X80809174Y-73265293D01*
X80831837Y-73278877D01*
X80853060Y-73294617D01*
X80872639Y-73312361D01*
X80890383Y-73331940D01*
X80906123Y-73353163D01*
X80919707Y-73375826D01*
X80931005Y-73399712D01*
X80939906Y-73424591D01*
X80946326Y-73450222D01*
X80950203Y-73476359D01*
X80951500Y-73502750D01*
X80951500Y-74041250D01*
X80950203Y-74067641D01*
X80946326Y-74093778D01*
X80939906Y-74119409D01*
X80931005Y-74144288D01*
X80919707Y-74168174D01*
X80906123Y-74190837D01*
X80890383Y-74212060D01*
X80872639Y-74231639D01*
X80853060Y-74249383D01*
X80831837Y-74265123D01*
X80809174Y-74278707D01*
X80785288Y-74290005D01*
X80760409Y-74298906D01*
X80734778Y-74305326D01*
X80708641Y-74309203D01*
X80682250Y-74310500D01*
X79718750Y-74310500D01*
X79692359Y-74309203D01*
X79666222Y-74305326D01*
X79640591Y-74298906D01*
X79615712Y-74290005D01*
X79591826Y-74278707D01*
X79569163Y-74265123D01*
X79547940Y-74249383D01*
X79528361Y-74231639D01*
X79510617Y-74212060D01*
X79494877Y-74190837D01*
X79481293Y-74168174D01*
X79469995Y-74144288D01*
X79461094Y-74119409D01*
X79454674Y-74093778D01*
X79450797Y-74067641D01*
X79449500Y-74041250D01*
X79449500Y-73502750D01*
X79450797Y-73476359D01*
X79454674Y-73450222D01*
X79461094Y-73424591D01*
X79469995Y-73399712D01*
X79481293Y-73375826D01*
X79494877Y-73353163D01*
X79510617Y-73331940D01*
X79528361Y-73312361D01*
X79547940Y-73294617D01*
X79569163Y-73278877D01*
X79591826Y-73265293D01*
X79615712Y-73253995D01*
X79640591Y-73245094D01*
X79666222Y-73238674D01*
X79692359Y-73234797D01*
X79718750Y-73233500D01*
X80682250Y-73233500D01*
X80708641Y-73234797D01*
X80708641Y-73234797D01*
G37*
D16*
X80200500Y-73772000D03*
D15*
G36*
X92228641Y-89801297D02*
G01*
X92254778Y-89805174D01*
X92280409Y-89811594D01*
X92305288Y-89820495D01*
X92329174Y-89831793D01*
X92351837Y-89845377D01*
X92373060Y-89861117D01*
X92392639Y-89878861D01*
X92410383Y-89898440D01*
X92426123Y-89919663D01*
X92439707Y-89942326D01*
X92451005Y-89966212D01*
X92459906Y-89991091D01*
X92466326Y-90016722D01*
X92470203Y-90042859D01*
X92471500Y-90069250D01*
X92471500Y-91032750D01*
X92470203Y-91059141D01*
X92466326Y-91085278D01*
X92459906Y-91110909D01*
X92451005Y-91135788D01*
X92439707Y-91159674D01*
X92426123Y-91182337D01*
X92410383Y-91203560D01*
X92392639Y-91223139D01*
X92373060Y-91240883D01*
X92351837Y-91256623D01*
X92329174Y-91270207D01*
X92305288Y-91281505D01*
X92280409Y-91290406D01*
X92254778Y-91296826D01*
X92228641Y-91300703D01*
X92202250Y-91302000D01*
X91663750Y-91302000D01*
X91637359Y-91300703D01*
X91611222Y-91296826D01*
X91585591Y-91290406D01*
X91560712Y-91281505D01*
X91536826Y-91270207D01*
X91514163Y-91256623D01*
X91492940Y-91240883D01*
X91473361Y-91223139D01*
X91455617Y-91203560D01*
X91439877Y-91182337D01*
X91426293Y-91159674D01*
X91414995Y-91135788D01*
X91406094Y-91110909D01*
X91399674Y-91085278D01*
X91395797Y-91059141D01*
X91394500Y-91032750D01*
X91394500Y-90069250D01*
X91395797Y-90042859D01*
X91399674Y-90016722D01*
X91406094Y-89991091D01*
X91414995Y-89966212D01*
X91426293Y-89942326D01*
X91439877Y-89919663D01*
X91455617Y-89898440D01*
X91473361Y-89878861D01*
X91492940Y-89861117D01*
X91514163Y-89845377D01*
X91536826Y-89831793D01*
X91560712Y-89820495D01*
X91585591Y-89811594D01*
X91611222Y-89805174D01*
X91637359Y-89801297D01*
X91663750Y-89800000D01*
X92202250Y-89800000D01*
X92228641Y-89801297D01*
X92228641Y-89801297D01*
G37*
D16*
X91933000Y-90551000D03*
D15*
G36*
X90353641Y-89801297D02*
G01*
X90379778Y-89805174D01*
X90405409Y-89811594D01*
X90430288Y-89820495D01*
X90454174Y-89831793D01*
X90476837Y-89845377D01*
X90498060Y-89861117D01*
X90517639Y-89878861D01*
X90535383Y-89898440D01*
X90551123Y-89919663D01*
X90564707Y-89942326D01*
X90576005Y-89966212D01*
X90584906Y-89991091D01*
X90591326Y-90016722D01*
X90595203Y-90042859D01*
X90596500Y-90069250D01*
X90596500Y-91032750D01*
X90595203Y-91059141D01*
X90591326Y-91085278D01*
X90584906Y-91110909D01*
X90576005Y-91135788D01*
X90564707Y-91159674D01*
X90551123Y-91182337D01*
X90535383Y-91203560D01*
X90517639Y-91223139D01*
X90498060Y-91240883D01*
X90476837Y-91256623D01*
X90454174Y-91270207D01*
X90430288Y-91281505D01*
X90405409Y-91290406D01*
X90379778Y-91296826D01*
X90353641Y-91300703D01*
X90327250Y-91302000D01*
X89788750Y-91302000D01*
X89762359Y-91300703D01*
X89736222Y-91296826D01*
X89710591Y-91290406D01*
X89685712Y-91281505D01*
X89661826Y-91270207D01*
X89639163Y-91256623D01*
X89617940Y-91240883D01*
X89598361Y-91223139D01*
X89580617Y-91203560D01*
X89564877Y-91182337D01*
X89551293Y-91159674D01*
X89539995Y-91135788D01*
X89531094Y-91110909D01*
X89524674Y-91085278D01*
X89520797Y-91059141D01*
X89519500Y-91032750D01*
X89519500Y-90069250D01*
X89520797Y-90042859D01*
X89524674Y-90016722D01*
X89531094Y-89991091D01*
X89539995Y-89966212D01*
X89551293Y-89942326D01*
X89564877Y-89919663D01*
X89580617Y-89898440D01*
X89598361Y-89878861D01*
X89617940Y-89861117D01*
X89639163Y-89845377D01*
X89661826Y-89831793D01*
X89685712Y-89820495D01*
X89710591Y-89811594D01*
X89736222Y-89805174D01*
X89762359Y-89801297D01*
X89788750Y-89800000D01*
X90327250Y-89800000D01*
X90353641Y-89801297D01*
X90353641Y-89801297D01*
G37*
D16*
X90058000Y-90551000D03*
D15*
G36*
X100552391Y-67391047D02*
G01*
X100578528Y-67394924D01*
X100604159Y-67401344D01*
X100629038Y-67410245D01*
X100652924Y-67421543D01*
X100675587Y-67435127D01*
X100696810Y-67450867D01*
X100716389Y-67468611D01*
X100734133Y-67488190D01*
X100749873Y-67509413D01*
X100763457Y-67532076D01*
X100774755Y-67555962D01*
X100783656Y-67580841D01*
X100790076Y-67606472D01*
X100793953Y-67632609D01*
X100795250Y-67659000D01*
X100795250Y-68197500D01*
X100793953Y-68223891D01*
X100790076Y-68250028D01*
X100783656Y-68275659D01*
X100774755Y-68300538D01*
X100763457Y-68324424D01*
X100749873Y-68347087D01*
X100734133Y-68368310D01*
X100716389Y-68387889D01*
X100696810Y-68405633D01*
X100675587Y-68421373D01*
X100652924Y-68434957D01*
X100629038Y-68446255D01*
X100604159Y-68455156D01*
X100578528Y-68461576D01*
X100552391Y-68465453D01*
X100526000Y-68466750D01*
X99562500Y-68466750D01*
X99536109Y-68465453D01*
X99509972Y-68461576D01*
X99484341Y-68455156D01*
X99459462Y-68446255D01*
X99435576Y-68434957D01*
X99412913Y-68421373D01*
X99391690Y-68405633D01*
X99372111Y-68387889D01*
X99354367Y-68368310D01*
X99338627Y-68347087D01*
X99325043Y-68324424D01*
X99313745Y-68300538D01*
X99304844Y-68275659D01*
X99298424Y-68250028D01*
X99294547Y-68223891D01*
X99293250Y-68197500D01*
X99293250Y-67659000D01*
X99294547Y-67632609D01*
X99298424Y-67606472D01*
X99304844Y-67580841D01*
X99313745Y-67555962D01*
X99325043Y-67532076D01*
X99338627Y-67509413D01*
X99354367Y-67488190D01*
X99372111Y-67468611D01*
X99391690Y-67450867D01*
X99412913Y-67435127D01*
X99435576Y-67421543D01*
X99459462Y-67410245D01*
X99484341Y-67401344D01*
X99509972Y-67394924D01*
X99536109Y-67391047D01*
X99562500Y-67389750D01*
X100526000Y-67389750D01*
X100552391Y-67391047D01*
X100552391Y-67391047D01*
G37*
D16*
X100044250Y-67928250D03*
D15*
G36*
X100552391Y-69266047D02*
G01*
X100578528Y-69269924D01*
X100604159Y-69276344D01*
X100629038Y-69285245D01*
X100652924Y-69296543D01*
X100675587Y-69310127D01*
X100696810Y-69325867D01*
X100716389Y-69343611D01*
X100734133Y-69363190D01*
X100749873Y-69384413D01*
X100763457Y-69407076D01*
X100774755Y-69430962D01*
X100783656Y-69455841D01*
X100790076Y-69481472D01*
X100793953Y-69507609D01*
X100795250Y-69534000D01*
X100795250Y-70072500D01*
X100793953Y-70098891D01*
X100790076Y-70125028D01*
X100783656Y-70150659D01*
X100774755Y-70175538D01*
X100763457Y-70199424D01*
X100749873Y-70222087D01*
X100734133Y-70243310D01*
X100716389Y-70262889D01*
X100696810Y-70280633D01*
X100675587Y-70296373D01*
X100652924Y-70309957D01*
X100629038Y-70321255D01*
X100604159Y-70330156D01*
X100578528Y-70336576D01*
X100552391Y-70340453D01*
X100526000Y-70341750D01*
X99562500Y-70341750D01*
X99536109Y-70340453D01*
X99509972Y-70336576D01*
X99484341Y-70330156D01*
X99459462Y-70321255D01*
X99435576Y-70309957D01*
X99412913Y-70296373D01*
X99391690Y-70280633D01*
X99372111Y-70262889D01*
X99354367Y-70243310D01*
X99338627Y-70222087D01*
X99325043Y-70199424D01*
X99313745Y-70175538D01*
X99304844Y-70150659D01*
X99298424Y-70125028D01*
X99294547Y-70098891D01*
X99293250Y-70072500D01*
X99293250Y-69534000D01*
X99294547Y-69507609D01*
X99298424Y-69481472D01*
X99304844Y-69455841D01*
X99313745Y-69430962D01*
X99325043Y-69407076D01*
X99338627Y-69384413D01*
X99354367Y-69363190D01*
X99372111Y-69343611D01*
X99391690Y-69325867D01*
X99412913Y-69310127D01*
X99435576Y-69296543D01*
X99459462Y-69285245D01*
X99484341Y-69276344D01*
X99509972Y-69269924D01*
X99536109Y-69266047D01*
X99562500Y-69264750D01*
X100526000Y-69264750D01*
X100552391Y-69266047D01*
X100552391Y-69266047D01*
G37*
D16*
X100044250Y-69803250D03*
D15*
G36*
X91027391Y-69266047D02*
G01*
X91053528Y-69269924D01*
X91079159Y-69276344D01*
X91104038Y-69285245D01*
X91127924Y-69296543D01*
X91150587Y-69310127D01*
X91171810Y-69325867D01*
X91191389Y-69343611D01*
X91209133Y-69363190D01*
X91224873Y-69384413D01*
X91238457Y-69407076D01*
X91249755Y-69430962D01*
X91258656Y-69455841D01*
X91265076Y-69481472D01*
X91268953Y-69507609D01*
X91270250Y-69534000D01*
X91270250Y-70072500D01*
X91268953Y-70098891D01*
X91265076Y-70125028D01*
X91258656Y-70150659D01*
X91249755Y-70175538D01*
X91238457Y-70199424D01*
X91224873Y-70222087D01*
X91209133Y-70243310D01*
X91191389Y-70262889D01*
X91171810Y-70280633D01*
X91150587Y-70296373D01*
X91127924Y-70309957D01*
X91104038Y-70321255D01*
X91079159Y-70330156D01*
X91053528Y-70336576D01*
X91027391Y-70340453D01*
X91001000Y-70341750D01*
X90037500Y-70341750D01*
X90011109Y-70340453D01*
X89984972Y-70336576D01*
X89959341Y-70330156D01*
X89934462Y-70321255D01*
X89910576Y-70309957D01*
X89887913Y-70296373D01*
X89866690Y-70280633D01*
X89847111Y-70262889D01*
X89829367Y-70243310D01*
X89813627Y-70222087D01*
X89800043Y-70199424D01*
X89788745Y-70175538D01*
X89779844Y-70150659D01*
X89773424Y-70125028D01*
X89769547Y-70098891D01*
X89768250Y-70072500D01*
X89768250Y-69534000D01*
X89769547Y-69507609D01*
X89773424Y-69481472D01*
X89779844Y-69455841D01*
X89788745Y-69430962D01*
X89800043Y-69407076D01*
X89813627Y-69384413D01*
X89829367Y-69363190D01*
X89847111Y-69343611D01*
X89866690Y-69325867D01*
X89887913Y-69310127D01*
X89910576Y-69296543D01*
X89934462Y-69285245D01*
X89959341Y-69276344D01*
X89984972Y-69269924D01*
X90011109Y-69266047D01*
X90037500Y-69264750D01*
X91001000Y-69264750D01*
X91027391Y-69266047D01*
X91027391Y-69266047D01*
G37*
D16*
X90519250Y-69803250D03*
D15*
G36*
X91027391Y-67391047D02*
G01*
X91053528Y-67394924D01*
X91079159Y-67401344D01*
X91104038Y-67410245D01*
X91127924Y-67421543D01*
X91150587Y-67435127D01*
X91171810Y-67450867D01*
X91191389Y-67468611D01*
X91209133Y-67488190D01*
X91224873Y-67509413D01*
X91238457Y-67532076D01*
X91249755Y-67555962D01*
X91258656Y-67580841D01*
X91265076Y-67606472D01*
X91268953Y-67632609D01*
X91270250Y-67659000D01*
X91270250Y-68197500D01*
X91268953Y-68223891D01*
X91265076Y-68250028D01*
X91258656Y-68275659D01*
X91249755Y-68300538D01*
X91238457Y-68324424D01*
X91224873Y-68347087D01*
X91209133Y-68368310D01*
X91191389Y-68387889D01*
X91171810Y-68405633D01*
X91150587Y-68421373D01*
X91127924Y-68434957D01*
X91104038Y-68446255D01*
X91079159Y-68455156D01*
X91053528Y-68461576D01*
X91027391Y-68465453D01*
X91001000Y-68466750D01*
X90037500Y-68466750D01*
X90011109Y-68465453D01*
X89984972Y-68461576D01*
X89959341Y-68455156D01*
X89934462Y-68446255D01*
X89910576Y-68434957D01*
X89887913Y-68421373D01*
X89866690Y-68405633D01*
X89847111Y-68387889D01*
X89829367Y-68368310D01*
X89813627Y-68347087D01*
X89800043Y-68324424D01*
X89788745Y-68300538D01*
X89779844Y-68275659D01*
X89773424Y-68250028D01*
X89769547Y-68223891D01*
X89768250Y-68197500D01*
X89768250Y-67659000D01*
X89769547Y-67632609D01*
X89773424Y-67606472D01*
X89779844Y-67580841D01*
X89788745Y-67555962D01*
X89800043Y-67532076D01*
X89813627Y-67509413D01*
X89829367Y-67488190D01*
X89847111Y-67468611D01*
X89866690Y-67450867D01*
X89887913Y-67435127D01*
X89910576Y-67421543D01*
X89934462Y-67410245D01*
X89959341Y-67401344D01*
X89984972Y-67394924D01*
X90011109Y-67391047D01*
X90037500Y-67389750D01*
X91001000Y-67389750D01*
X91027391Y-67391047D01*
X91027391Y-67391047D01*
G37*
D16*
X90519250Y-67928250D03*
D15*
G36*
X85407641Y-86252297D02*
G01*
X85433778Y-86256174D01*
X85459409Y-86262594D01*
X85484288Y-86271495D01*
X85508174Y-86282793D01*
X85530837Y-86296377D01*
X85552060Y-86312117D01*
X85571639Y-86329861D01*
X85589383Y-86349440D01*
X85605123Y-86370663D01*
X85618707Y-86393326D01*
X85630005Y-86417212D01*
X85638906Y-86442091D01*
X85645326Y-86467722D01*
X85649203Y-86493859D01*
X85650500Y-86520250D01*
X85650500Y-87058750D01*
X85649203Y-87085141D01*
X85645326Y-87111278D01*
X85638906Y-87136909D01*
X85630005Y-87161788D01*
X85618707Y-87185674D01*
X85605123Y-87208337D01*
X85589383Y-87229560D01*
X85571639Y-87249139D01*
X85552060Y-87266883D01*
X85530837Y-87282623D01*
X85508174Y-87296207D01*
X85484288Y-87307505D01*
X85459409Y-87316406D01*
X85433778Y-87322826D01*
X85407641Y-87326703D01*
X85381250Y-87328000D01*
X84417750Y-87328000D01*
X84391359Y-87326703D01*
X84365222Y-87322826D01*
X84339591Y-87316406D01*
X84314712Y-87307505D01*
X84290826Y-87296207D01*
X84268163Y-87282623D01*
X84246940Y-87266883D01*
X84227361Y-87249139D01*
X84209617Y-87229560D01*
X84193877Y-87208337D01*
X84180293Y-87185674D01*
X84168995Y-87161788D01*
X84160094Y-87136909D01*
X84153674Y-87111278D01*
X84149797Y-87085141D01*
X84148500Y-87058750D01*
X84148500Y-86520250D01*
X84149797Y-86493859D01*
X84153674Y-86467722D01*
X84160094Y-86442091D01*
X84168995Y-86417212D01*
X84180293Y-86393326D01*
X84193877Y-86370663D01*
X84209617Y-86349440D01*
X84227361Y-86329861D01*
X84246940Y-86312117D01*
X84268163Y-86296377D01*
X84290826Y-86282793D01*
X84314712Y-86271495D01*
X84339591Y-86262594D01*
X84365222Y-86256174D01*
X84391359Y-86252297D01*
X84417750Y-86251000D01*
X85381250Y-86251000D01*
X85407641Y-86252297D01*
X85407641Y-86252297D01*
G37*
D16*
X84899500Y-86789500D03*
D15*
G36*
X85407641Y-84377297D02*
G01*
X85433778Y-84381174D01*
X85459409Y-84387594D01*
X85484288Y-84396495D01*
X85508174Y-84407793D01*
X85530837Y-84421377D01*
X85552060Y-84437117D01*
X85571639Y-84454861D01*
X85589383Y-84474440D01*
X85605123Y-84495663D01*
X85618707Y-84518326D01*
X85630005Y-84542212D01*
X85638906Y-84567091D01*
X85645326Y-84592722D01*
X85649203Y-84618859D01*
X85650500Y-84645250D01*
X85650500Y-85183750D01*
X85649203Y-85210141D01*
X85645326Y-85236278D01*
X85638906Y-85261909D01*
X85630005Y-85286788D01*
X85618707Y-85310674D01*
X85605123Y-85333337D01*
X85589383Y-85354560D01*
X85571639Y-85374139D01*
X85552060Y-85391883D01*
X85530837Y-85407623D01*
X85508174Y-85421207D01*
X85484288Y-85432505D01*
X85459409Y-85441406D01*
X85433778Y-85447826D01*
X85407641Y-85451703D01*
X85381250Y-85453000D01*
X84417750Y-85453000D01*
X84391359Y-85451703D01*
X84365222Y-85447826D01*
X84339591Y-85441406D01*
X84314712Y-85432505D01*
X84290826Y-85421207D01*
X84268163Y-85407623D01*
X84246940Y-85391883D01*
X84227361Y-85374139D01*
X84209617Y-85354560D01*
X84193877Y-85333337D01*
X84180293Y-85310674D01*
X84168995Y-85286788D01*
X84160094Y-85261909D01*
X84153674Y-85236278D01*
X84149797Y-85210141D01*
X84148500Y-85183750D01*
X84148500Y-84645250D01*
X84149797Y-84618859D01*
X84153674Y-84592722D01*
X84160094Y-84567091D01*
X84168995Y-84542212D01*
X84180293Y-84518326D01*
X84193877Y-84495663D01*
X84209617Y-84474440D01*
X84227361Y-84454861D01*
X84246940Y-84437117D01*
X84268163Y-84421377D01*
X84290826Y-84407793D01*
X84314712Y-84396495D01*
X84339591Y-84387594D01*
X84365222Y-84381174D01*
X84391359Y-84377297D01*
X84417750Y-84376000D01*
X85381250Y-84376000D01*
X85407641Y-84377297D01*
X85407641Y-84377297D01*
G37*
D16*
X84899500Y-84914500D03*
D20*
X119888000Y-91947000D03*
X119888000Y-88647000D03*
D15*
G36*
X85471141Y-79297297D02*
G01*
X85497278Y-79301174D01*
X85522909Y-79307594D01*
X85547788Y-79316495D01*
X85571674Y-79327793D01*
X85594337Y-79341377D01*
X85615560Y-79357117D01*
X85635139Y-79374861D01*
X85652883Y-79394440D01*
X85668623Y-79415663D01*
X85682207Y-79438326D01*
X85693505Y-79462212D01*
X85702406Y-79487091D01*
X85708826Y-79512722D01*
X85712703Y-79538859D01*
X85714000Y-79565250D01*
X85714000Y-80103750D01*
X85712703Y-80130141D01*
X85708826Y-80156278D01*
X85702406Y-80181909D01*
X85693505Y-80206788D01*
X85682207Y-80230674D01*
X85668623Y-80253337D01*
X85652883Y-80274560D01*
X85635139Y-80294139D01*
X85615560Y-80311883D01*
X85594337Y-80327623D01*
X85571674Y-80341207D01*
X85547788Y-80352505D01*
X85522909Y-80361406D01*
X85497278Y-80367826D01*
X85471141Y-80371703D01*
X85444750Y-80373000D01*
X84481250Y-80373000D01*
X84454859Y-80371703D01*
X84428722Y-80367826D01*
X84403091Y-80361406D01*
X84378212Y-80352505D01*
X84354326Y-80341207D01*
X84331663Y-80327623D01*
X84310440Y-80311883D01*
X84290861Y-80294139D01*
X84273117Y-80274560D01*
X84257377Y-80253337D01*
X84243793Y-80230674D01*
X84232495Y-80206788D01*
X84223594Y-80181909D01*
X84217174Y-80156278D01*
X84213297Y-80130141D01*
X84212000Y-80103750D01*
X84212000Y-79565250D01*
X84213297Y-79538859D01*
X84217174Y-79512722D01*
X84223594Y-79487091D01*
X84232495Y-79462212D01*
X84243793Y-79438326D01*
X84257377Y-79415663D01*
X84273117Y-79394440D01*
X84290861Y-79374861D01*
X84310440Y-79357117D01*
X84331663Y-79341377D01*
X84354326Y-79327793D01*
X84378212Y-79316495D01*
X84403091Y-79307594D01*
X84428722Y-79301174D01*
X84454859Y-79297297D01*
X84481250Y-79296000D01*
X85444750Y-79296000D01*
X85471141Y-79297297D01*
X85471141Y-79297297D01*
G37*
D16*
X84963000Y-79834500D03*
D15*
G36*
X85471141Y-81172297D02*
G01*
X85497278Y-81176174D01*
X85522909Y-81182594D01*
X85547788Y-81191495D01*
X85571674Y-81202793D01*
X85594337Y-81216377D01*
X85615560Y-81232117D01*
X85635139Y-81249861D01*
X85652883Y-81269440D01*
X85668623Y-81290663D01*
X85682207Y-81313326D01*
X85693505Y-81337212D01*
X85702406Y-81362091D01*
X85708826Y-81387722D01*
X85712703Y-81413859D01*
X85714000Y-81440250D01*
X85714000Y-81978750D01*
X85712703Y-82005141D01*
X85708826Y-82031278D01*
X85702406Y-82056909D01*
X85693505Y-82081788D01*
X85682207Y-82105674D01*
X85668623Y-82128337D01*
X85652883Y-82149560D01*
X85635139Y-82169139D01*
X85615560Y-82186883D01*
X85594337Y-82202623D01*
X85571674Y-82216207D01*
X85547788Y-82227505D01*
X85522909Y-82236406D01*
X85497278Y-82242826D01*
X85471141Y-82246703D01*
X85444750Y-82248000D01*
X84481250Y-82248000D01*
X84454859Y-82246703D01*
X84428722Y-82242826D01*
X84403091Y-82236406D01*
X84378212Y-82227505D01*
X84354326Y-82216207D01*
X84331663Y-82202623D01*
X84310440Y-82186883D01*
X84290861Y-82169139D01*
X84273117Y-82149560D01*
X84257377Y-82128337D01*
X84243793Y-82105674D01*
X84232495Y-82081788D01*
X84223594Y-82056909D01*
X84217174Y-82031278D01*
X84213297Y-82005141D01*
X84212000Y-81978750D01*
X84212000Y-81440250D01*
X84213297Y-81413859D01*
X84217174Y-81387722D01*
X84223594Y-81362091D01*
X84232495Y-81337212D01*
X84243793Y-81313326D01*
X84257377Y-81290663D01*
X84273117Y-81269440D01*
X84290861Y-81249861D01*
X84310440Y-81232117D01*
X84331663Y-81216377D01*
X84354326Y-81202793D01*
X84378212Y-81191495D01*
X84403091Y-81182594D01*
X84428722Y-81176174D01*
X84454859Y-81172297D01*
X84481250Y-81171000D01*
X85444750Y-81171000D01*
X85471141Y-81172297D01*
X85471141Y-81172297D01*
G37*
D16*
X84963000Y-81709500D03*
D20*
X119888000Y-72897000D03*
X119888000Y-69597000D03*
D15*
G36*
X80882604Y-76316052D02*
G01*
X80908852Y-76319946D01*
X80934593Y-76326393D01*
X80959578Y-76335333D01*
X80983566Y-76346678D01*
X81006326Y-76360321D01*
X81027640Y-76376128D01*
X81047302Y-76393948D01*
X81065122Y-76413610D01*
X81080929Y-76434924D01*
X81094572Y-76457684D01*
X81105917Y-76481672D01*
X81114857Y-76506657D01*
X81121304Y-76532398D01*
X81125198Y-76558646D01*
X81126500Y-76585150D01*
X81126500Y-77396350D01*
X81125198Y-77422854D01*
X81121304Y-77449102D01*
X81114857Y-77474843D01*
X81105917Y-77499828D01*
X81094572Y-77523816D01*
X81080929Y-77546576D01*
X81065122Y-77567890D01*
X81047302Y-77587552D01*
X81027640Y-77605372D01*
X81006326Y-77621179D01*
X80983566Y-77634822D01*
X80959578Y-77646167D01*
X80934593Y-77655107D01*
X80908852Y-77661554D01*
X80882604Y-77665448D01*
X80856100Y-77666750D01*
X79544900Y-77666750D01*
X79518396Y-77665448D01*
X79492148Y-77661554D01*
X79466407Y-77655107D01*
X79441422Y-77646167D01*
X79417434Y-77634822D01*
X79394674Y-77621179D01*
X79373360Y-77605372D01*
X79353698Y-77587552D01*
X79335878Y-77567890D01*
X79320071Y-77546576D01*
X79306428Y-77523816D01*
X79295083Y-77499828D01*
X79286143Y-77474843D01*
X79279696Y-77449102D01*
X79275802Y-77422854D01*
X79274500Y-77396350D01*
X79274500Y-76585150D01*
X79275802Y-76558646D01*
X79279696Y-76532398D01*
X79286143Y-76506657D01*
X79295083Y-76481672D01*
X79306428Y-76457684D01*
X79320071Y-76434924D01*
X79335878Y-76413610D01*
X79353698Y-76393948D01*
X79373360Y-76376128D01*
X79394674Y-76360321D01*
X79417434Y-76346678D01*
X79441422Y-76335333D01*
X79466407Y-76326393D01*
X79492148Y-76319946D01*
X79518396Y-76316052D01*
X79544900Y-76314750D01*
X80856100Y-76314750D01*
X80882604Y-76316052D01*
X80882604Y-76316052D01*
G37*
D21*
X80200500Y-76990750D03*
D15*
G36*
X80882604Y-79116052D02*
G01*
X80908852Y-79119946D01*
X80934593Y-79126393D01*
X80959578Y-79135333D01*
X80983566Y-79146678D01*
X81006326Y-79160321D01*
X81027640Y-79176128D01*
X81047302Y-79193948D01*
X81065122Y-79213610D01*
X81080929Y-79234924D01*
X81094572Y-79257684D01*
X81105917Y-79281672D01*
X81114857Y-79306657D01*
X81121304Y-79332398D01*
X81125198Y-79358646D01*
X81126500Y-79385150D01*
X81126500Y-80196350D01*
X81125198Y-80222854D01*
X81121304Y-80249102D01*
X81114857Y-80274843D01*
X81105917Y-80299828D01*
X81094572Y-80323816D01*
X81080929Y-80346576D01*
X81065122Y-80367890D01*
X81047302Y-80387552D01*
X81027640Y-80405372D01*
X81006326Y-80421179D01*
X80983566Y-80434822D01*
X80959578Y-80446167D01*
X80934593Y-80455107D01*
X80908852Y-80461554D01*
X80882604Y-80465448D01*
X80856100Y-80466750D01*
X79544900Y-80466750D01*
X79518396Y-80465448D01*
X79492148Y-80461554D01*
X79466407Y-80455107D01*
X79441422Y-80446167D01*
X79417434Y-80434822D01*
X79394674Y-80421179D01*
X79373360Y-80405372D01*
X79353698Y-80387552D01*
X79335878Y-80367890D01*
X79320071Y-80346576D01*
X79306428Y-80323816D01*
X79295083Y-80299828D01*
X79286143Y-80274843D01*
X79279696Y-80249102D01*
X79275802Y-80222854D01*
X79274500Y-80196350D01*
X79274500Y-79385150D01*
X79275802Y-79358646D01*
X79279696Y-79332398D01*
X79286143Y-79306657D01*
X79295083Y-79281672D01*
X79306428Y-79257684D01*
X79320071Y-79234924D01*
X79335878Y-79213610D01*
X79353698Y-79193948D01*
X79373360Y-79176128D01*
X79394674Y-79160321D01*
X79417434Y-79146678D01*
X79441422Y-79135333D01*
X79466407Y-79126393D01*
X79492148Y-79119946D01*
X79518396Y-79116052D01*
X79544900Y-79114750D01*
X80856100Y-79114750D01*
X80882604Y-79116052D01*
X80882604Y-79116052D01*
G37*
D21*
X80200500Y-79790750D03*
D22*
X133520500Y-66457000D03*
D23*
X133500500Y-66747000D02*
X133540500Y-66167000D01*
D22*
X133540500Y-66167000D03*
X127845501Y-67977000D03*
D23*
X127190500Y-68707000D02*
X128500502Y-67247000D01*
D24*
X131000500Y-71247000D03*
D22*
X128500500Y-67247000D03*
D25*
X125920500Y-71247000D03*
X136080500Y-71247000D03*
D22*
X133520500Y-85507000D03*
D23*
X133500500Y-85797000D02*
X133540500Y-85217000D01*
D22*
X133540500Y-85217000D03*
X127845501Y-87027000D03*
D23*
X127190500Y-87757000D02*
X128500502Y-86297000D01*
D24*
X131000500Y-90297000D03*
D22*
X128500500Y-86297000D03*
D25*
X125920500Y-90297000D03*
X136080500Y-90297000D03*
D22*
X114470500Y-85507000D03*
D23*
X114450500Y-85797000D02*
X114490500Y-85217000D01*
D22*
X114490500Y-85217000D03*
X108795501Y-87027000D03*
D23*
X108140500Y-87757000D02*
X109450502Y-86297000D01*
D24*
X111950500Y-90297000D03*
D22*
X109450500Y-86297000D03*
D25*
X106870500Y-90297000D03*
X117030500Y-90297000D03*
D20*
X138938000Y-91947000D03*
X138938000Y-88647000D03*
D22*
X114470500Y-66457000D03*
D23*
X114450500Y-66747000D02*
X114490500Y-66167000D01*
D22*
X114490500Y-66167000D03*
X108795501Y-67977000D03*
D23*
X108140500Y-68707000D02*
X109450502Y-67247000D01*
D24*
X111950500Y-71247000D03*
D22*
X109450500Y-67247000D03*
D25*
X106870500Y-71247000D03*
X117030500Y-71247000D03*
M02*
