G04 #@! TF.GenerationSoftware,KiCad,Pcbnew,(5.1.4-0-10_14)*
G04 #@! TF.CreationDate,2021-03-21T04:54:58+00:00*
G04 #@! TF.ProjectId,aio3,61696f33-2e6b-4696-9361-645f70636258,rev?*
G04 #@! TF.SameCoordinates,Original*
G04 #@! TF.FileFunction,Soldermask,Bot*
G04 #@! TF.FilePolarity,Negative*
%FSLAX46Y46*%
G04 Gerber Fmt 4.6, Leading zero omitted, Abs format (unit mm)*
G04 Created by KiCad (PCBNEW (5.1.4-0-10_14)) date 2021-03-21 04:54:58*
%MOMM*%
%LPD*%
G04 APERTURE LIST*
%ADD10C,0.100000*%
G04 APERTURE END LIST*
D10*
G36*
X86632750Y-97510500D02*
G01*
X84730750Y-97510500D01*
X84730750Y-96308500D01*
X86632750Y-96308500D01*
X86632750Y-97510500D01*
X86632750Y-97510500D01*
G37*
G36*
X80432750Y-97510500D02*
G01*
X78530750Y-97510500D01*
X78530750Y-96308500D01*
X80432750Y-96308500D01*
X80432750Y-97510500D01*
X80432750Y-97510500D01*
G37*
G36*
X99766218Y-94313065D02*
G01*
X99804888Y-94324796D01*
X99840527Y-94343846D01*
X99871767Y-94369483D01*
X99897404Y-94400723D01*
X99916454Y-94436362D01*
X99928185Y-94475032D01*
X99932750Y-94521388D01*
X99932750Y-95597612D01*
X99928185Y-95643968D01*
X99916454Y-95682638D01*
X99897404Y-95718277D01*
X99871767Y-95749517D01*
X99840527Y-95775154D01*
X99804888Y-95794204D01*
X99766218Y-95805935D01*
X99719862Y-95810500D01*
X99068638Y-95810500D01*
X99022282Y-95805935D01*
X98983612Y-95794204D01*
X98947973Y-95775154D01*
X98916733Y-95749517D01*
X98891096Y-95718277D01*
X98872046Y-95682638D01*
X98860315Y-95643968D01*
X98855750Y-95597612D01*
X98855750Y-94521388D01*
X98860315Y-94475032D01*
X98872046Y-94436362D01*
X98891096Y-94400723D01*
X98916733Y-94369483D01*
X98947973Y-94343846D01*
X98983612Y-94324796D01*
X99022282Y-94313065D01*
X99068638Y-94308500D01*
X99719862Y-94308500D01*
X99766218Y-94313065D01*
X99766218Y-94313065D01*
G37*
G36*
X97891218Y-94313065D02*
G01*
X97929888Y-94324796D01*
X97965527Y-94343846D01*
X97996767Y-94369483D01*
X98022404Y-94400723D01*
X98041454Y-94436362D01*
X98053185Y-94475032D01*
X98057750Y-94521388D01*
X98057750Y-95597612D01*
X98053185Y-95643968D01*
X98041454Y-95682638D01*
X98022404Y-95718277D01*
X97996767Y-95749517D01*
X97965527Y-95775154D01*
X97929888Y-95794204D01*
X97891218Y-95805935D01*
X97844862Y-95810500D01*
X97193638Y-95810500D01*
X97147282Y-95805935D01*
X97108612Y-95794204D01*
X97072973Y-95775154D01*
X97041733Y-95749517D01*
X97016096Y-95718277D01*
X96997046Y-95682638D01*
X96985315Y-95643968D01*
X96980750Y-95597612D01*
X96980750Y-94521388D01*
X96985315Y-94475032D01*
X96997046Y-94436362D01*
X97016096Y-94400723D01*
X97041733Y-94369483D01*
X97072973Y-94343846D01*
X97108612Y-94324796D01*
X97147282Y-94313065D01*
X97193638Y-94308500D01*
X97844862Y-94308500D01*
X97891218Y-94313065D01*
X97891218Y-94313065D01*
G37*
G36*
X86632750Y-93810500D02*
G01*
X84730750Y-93810500D01*
X84730750Y-92608500D01*
X86632750Y-92608500D01*
X86632750Y-93810500D01*
X86632750Y-93810500D01*
G37*
G36*
X80432750Y-93810500D02*
G01*
X78530750Y-93810500D01*
X78530750Y-92608500D01*
X80432750Y-92608500D01*
X80432750Y-93810500D01*
X80432750Y-93810500D01*
G37*
G36*
X139589000Y-92448000D02*
G01*
X138287000Y-92448000D01*
X138287000Y-91446000D01*
X139589000Y-91446000D01*
X139589000Y-92448000D01*
X139589000Y-92448000D01*
G37*
G36*
X120539000Y-92448000D02*
G01*
X119237000Y-92448000D01*
X119237000Y-91446000D01*
X120539000Y-91446000D01*
X120539000Y-92448000D01*
X120539000Y-92448000D01*
G37*
G36*
X131596974Y-88330684D02*
G01*
X131814974Y-88420983D01*
X131969123Y-88484833D01*
X132304048Y-88708623D01*
X132588877Y-88993452D01*
X132812667Y-89328377D01*
X132845062Y-89406586D01*
X132966816Y-89700526D01*
X133045400Y-90095594D01*
X133045400Y-90498406D01*
X132966816Y-90893474D01*
X132915951Y-91016272D01*
X132812667Y-91265623D01*
X132588877Y-91600548D01*
X132304048Y-91885377D01*
X131969123Y-92109167D01*
X131814974Y-92173017D01*
X131596974Y-92263316D01*
X131201906Y-92341900D01*
X130799094Y-92341900D01*
X130404026Y-92263316D01*
X130186026Y-92173017D01*
X130031877Y-92109167D01*
X129696952Y-91885377D01*
X129412123Y-91600548D01*
X129188333Y-91265623D01*
X129085049Y-91016272D01*
X129034184Y-90893474D01*
X128955600Y-90498406D01*
X128955600Y-90095594D01*
X129034184Y-89700526D01*
X129155938Y-89406586D01*
X129188333Y-89328377D01*
X129412123Y-88993452D01*
X129696952Y-88708623D01*
X130031877Y-88484833D01*
X130186026Y-88420983D01*
X130404026Y-88330684D01*
X130799094Y-88252100D01*
X131201906Y-88252100D01*
X131596974Y-88330684D01*
X131596974Y-88330684D01*
G37*
G36*
X112546974Y-88330684D02*
G01*
X112764974Y-88420983D01*
X112919123Y-88484833D01*
X113254048Y-88708623D01*
X113538877Y-88993452D01*
X113762667Y-89328377D01*
X113795062Y-89406586D01*
X113916816Y-89700526D01*
X113995400Y-90095594D01*
X113995400Y-90498406D01*
X113916816Y-90893474D01*
X113865951Y-91016272D01*
X113762667Y-91265623D01*
X113538877Y-91600548D01*
X113254048Y-91885377D01*
X112919123Y-92109167D01*
X112764974Y-92173017D01*
X112546974Y-92263316D01*
X112151906Y-92341900D01*
X111749094Y-92341900D01*
X111354026Y-92263316D01*
X111136026Y-92173017D01*
X110981877Y-92109167D01*
X110646952Y-91885377D01*
X110362123Y-91600548D01*
X110138333Y-91265623D01*
X110035049Y-91016272D01*
X109984184Y-90893474D01*
X109905600Y-90498406D01*
X109905600Y-90095594D01*
X109984184Y-89700526D01*
X110105938Y-89406586D01*
X110138333Y-89328377D01*
X110362123Y-88993452D01*
X110646952Y-88708623D01*
X110981877Y-88484833D01*
X111136026Y-88420983D01*
X111354026Y-88330684D01*
X111749094Y-88252100D01*
X112151906Y-88252100D01*
X112546974Y-88330684D01*
X112546974Y-88330684D01*
G37*
G36*
X92304968Y-89804565D02*
G01*
X92343638Y-89816296D01*
X92379277Y-89835346D01*
X92410517Y-89860983D01*
X92436154Y-89892223D01*
X92455204Y-89927862D01*
X92466935Y-89966532D01*
X92471500Y-90012888D01*
X92471500Y-91089112D01*
X92466935Y-91135468D01*
X92455204Y-91174138D01*
X92436154Y-91209777D01*
X92410517Y-91241017D01*
X92379277Y-91266654D01*
X92343638Y-91285704D01*
X92304968Y-91297435D01*
X92258612Y-91302000D01*
X91607388Y-91302000D01*
X91561032Y-91297435D01*
X91522362Y-91285704D01*
X91486723Y-91266654D01*
X91455483Y-91241017D01*
X91429846Y-91209777D01*
X91410796Y-91174138D01*
X91399065Y-91135468D01*
X91394500Y-91089112D01*
X91394500Y-90012888D01*
X91399065Y-89966532D01*
X91410796Y-89927862D01*
X91429846Y-89892223D01*
X91455483Y-89860983D01*
X91486723Y-89835346D01*
X91522362Y-89816296D01*
X91561032Y-89804565D01*
X91607388Y-89800000D01*
X92258612Y-89800000D01*
X92304968Y-89804565D01*
X92304968Y-89804565D01*
G37*
G36*
X90429968Y-89804565D02*
G01*
X90468638Y-89816296D01*
X90504277Y-89835346D01*
X90535517Y-89860983D01*
X90561154Y-89892223D01*
X90580204Y-89927862D01*
X90591935Y-89966532D01*
X90596500Y-90012888D01*
X90596500Y-91089112D01*
X90591935Y-91135468D01*
X90580204Y-91174138D01*
X90561154Y-91209777D01*
X90535517Y-91241017D01*
X90504277Y-91266654D01*
X90468638Y-91285704D01*
X90429968Y-91297435D01*
X90383612Y-91302000D01*
X89732388Y-91302000D01*
X89686032Y-91297435D01*
X89647362Y-91285704D01*
X89611723Y-91266654D01*
X89580483Y-91241017D01*
X89554846Y-91209777D01*
X89535796Y-91174138D01*
X89524065Y-91135468D01*
X89519500Y-91089112D01*
X89519500Y-90012888D01*
X89524065Y-89966532D01*
X89535796Y-89927862D01*
X89554846Y-89892223D01*
X89580483Y-89860983D01*
X89611723Y-89835346D01*
X89647362Y-89816296D01*
X89686032Y-89804565D01*
X89732388Y-89800000D01*
X90383612Y-89800000D01*
X90429968Y-89804565D01*
X90429968Y-89804565D01*
G37*
G36*
X117300604Y-89406585D02*
G01*
X117469126Y-89476389D01*
X117620791Y-89577728D01*
X117749772Y-89706709D01*
X117851111Y-89858374D01*
X117920915Y-90026896D01*
X117956500Y-90205797D01*
X117956500Y-90388203D01*
X117920915Y-90567104D01*
X117851111Y-90735626D01*
X117749772Y-90887291D01*
X117620791Y-91016272D01*
X117469126Y-91117611D01*
X117300604Y-91187415D01*
X117121703Y-91223000D01*
X116939297Y-91223000D01*
X116760396Y-91187415D01*
X116591874Y-91117611D01*
X116440209Y-91016272D01*
X116311228Y-90887291D01*
X116209889Y-90735626D01*
X116140085Y-90567104D01*
X116104500Y-90388203D01*
X116104500Y-90205797D01*
X116140085Y-90026896D01*
X116209889Y-89858374D01*
X116311228Y-89706709D01*
X116440209Y-89577728D01*
X116591874Y-89476389D01*
X116760396Y-89406585D01*
X116939297Y-89371000D01*
X117121703Y-89371000D01*
X117300604Y-89406585D01*
X117300604Y-89406585D01*
G37*
G36*
X107140604Y-89406585D02*
G01*
X107309126Y-89476389D01*
X107460791Y-89577728D01*
X107589772Y-89706709D01*
X107691111Y-89858374D01*
X107760915Y-90026896D01*
X107796500Y-90205797D01*
X107796500Y-90388203D01*
X107760915Y-90567104D01*
X107691111Y-90735626D01*
X107589772Y-90887291D01*
X107460791Y-91016272D01*
X107309126Y-91117611D01*
X107140604Y-91187415D01*
X106961703Y-91223000D01*
X106779297Y-91223000D01*
X106600396Y-91187415D01*
X106431874Y-91117611D01*
X106280209Y-91016272D01*
X106151228Y-90887291D01*
X106049889Y-90735626D01*
X105980085Y-90567104D01*
X105944500Y-90388203D01*
X105944500Y-90205797D01*
X105980085Y-90026896D01*
X106049889Y-89858374D01*
X106151228Y-89706709D01*
X106280209Y-89577728D01*
X106431874Y-89476389D01*
X106600396Y-89406585D01*
X106779297Y-89371000D01*
X106961703Y-89371000D01*
X107140604Y-89406585D01*
X107140604Y-89406585D01*
G37*
G36*
X136350604Y-89406585D02*
G01*
X136519126Y-89476389D01*
X136670791Y-89577728D01*
X136799772Y-89706709D01*
X136901111Y-89858374D01*
X136970915Y-90026896D01*
X137006500Y-90205797D01*
X137006500Y-90388203D01*
X136970915Y-90567104D01*
X136901111Y-90735626D01*
X136799772Y-90887291D01*
X136670791Y-91016272D01*
X136519126Y-91117611D01*
X136350604Y-91187415D01*
X136171703Y-91223000D01*
X135989297Y-91223000D01*
X135810396Y-91187415D01*
X135641874Y-91117611D01*
X135490209Y-91016272D01*
X135361228Y-90887291D01*
X135259889Y-90735626D01*
X135190085Y-90567104D01*
X135154500Y-90388203D01*
X135154500Y-90205797D01*
X135190085Y-90026896D01*
X135259889Y-89858374D01*
X135361228Y-89706709D01*
X135490209Y-89577728D01*
X135641874Y-89476389D01*
X135810396Y-89406585D01*
X135989297Y-89371000D01*
X136171703Y-89371000D01*
X136350604Y-89406585D01*
X136350604Y-89406585D01*
G37*
G36*
X126190604Y-89406585D02*
G01*
X126359126Y-89476389D01*
X126510791Y-89577728D01*
X126639772Y-89706709D01*
X126741111Y-89858374D01*
X126810915Y-90026896D01*
X126846500Y-90205797D01*
X126846500Y-90388203D01*
X126810915Y-90567104D01*
X126741111Y-90735626D01*
X126639772Y-90887291D01*
X126510791Y-91016272D01*
X126359126Y-91117611D01*
X126190604Y-91187415D01*
X126011703Y-91223000D01*
X125829297Y-91223000D01*
X125650396Y-91187415D01*
X125481874Y-91117611D01*
X125330209Y-91016272D01*
X125201228Y-90887291D01*
X125099889Y-90735626D01*
X125030085Y-90567104D01*
X124994500Y-90388203D01*
X124994500Y-90205797D01*
X125030085Y-90026896D01*
X125099889Y-89858374D01*
X125201228Y-89706709D01*
X125330209Y-89577728D01*
X125481874Y-89476389D01*
X125650396Y-89406585D01*
X125829297Y-89371000D01*
X126011703Y-89371000D01*
X126190604Y-89406585D01*
X126190604Y-89406585D01*
G37*
G36*
X97891218Y-89550565D02*
G01*
X97929888Y-89562296D01*
X97965527Y-89581346D01*
X97996767Y-89606983D01*
X98022404Y-89638223D01*
X98041454Y-89673862D01*
X98053185Y-89712532D01*
X98057750Y-89758888D01*
X98057750Y-90835112D01*
X98053185Y-90881468D01*
X98041454Y-90920138D01*
X98022404Y-90955777D01*
X97996767Y-90987017D01*
X97965527Y-91012654D01*
X97929888Y-91031704D01*
X97891218Y-91043435D01*
X97844862Y-91048000D01*
X97193638Y-91048000D01*
X97147282Y-91043435D01*
X97108612Y-91031704D01*
X97072973Y-91012654D01*
X97041733Y-90987017D01*
X97016096Y-90955777D01*
X96997046Y-90920138D01*
X96985315Y-90881468D01*
X96980750Y-90835112D01*
X96980750Y-89758888D01*
X96985315Y-89712532D01*
X96997046Y-89673862D01*
X97016096Y-89638223D01*
X97041733Y-89606983D01*
X97072973Y-89581346D01*
X97108612Y-89562296D01*
X97147282Y-89550565D01*
X97193638Y-89546000D01*
X97844862Y-89546000D01*
X97891218Y-89550565D01*
X97891218Y-89550565D01*
G37*
G36*
X99766218Y-89550565D02*
G01*
X99804888Y-89562296D01*
X99840527Y-89581346D01*
X99871767Y-89606983D01*
X99897404Y-89638223D01*
X99916454Y-89673862D01*
X99928185Y-89712532D01*
X99932750Y-89758888D01*
X99932750Y-90835112D01*
X99928185Y-90881468D01*
X99916454Y-90920138D01*
X99897404Y-90955777D01*
X99871767Y-90987017D01*
X99840527Y-91012654D01*
X99804888Y-91031704D01*
X99766218Y-91043435D01*
X99719862Y-91048000D01*
X99068638Y-91048000D01*
X99022282Y-91043435D01*
X98983612Y-91031704D01*
X98947973Y-91012654D01*
X98916733Y-90987017D01*
X98891096Y-90955777D01*
X98872046Y-90920138D01*
X98860315Y-90881468D01*
X98855750Y-90835112D01*
X98855750Y-89758888D01*
X98860315Y-89712532D01*
X98872046Y-89673862D01*
X98891096Y-89638223D01*
X98916733Y-89606983D01*
X98947973Y-89581346D01*
X98983612Y-89562296D01*
X99022282Y-89550565D01*
X99068638Y-89546000D01*
X99719862Y-89546000D01*
X99766218Y-89550565D01*
X99766218Y-89550565D01*
G37*
G36*
X120539000Y-89148000D02*
G01*
X119237000Y-89148000D01*
X119237000Y-88146000D01*
X120539000Y-88146000D01*
X120539000Y-89148000D01*
X120539000Y-89148000D01*
G37*
G36*
X139589000Y-89148000D02*
G01*
X138287000Y-89148000D01*
X138287000Y-88146000D01*
X139589000Y-88146000D01*
X139589000Y-89148000D01*
X139589000Y-89148000D01*
G37*
G36*
X109473705Y-85120881D02*
G01*
X109479145Y-85121000D01*
X109566328Y-85121000D01*
X109582597Y-85124236D01*
X109601456Y-85126515D01*
X109618032Y-85127246D01*
X109702723Y-85148010D01*
X109708018Y-85149184D01*
X109793527Y-85166193D01*
X109808862Y-85172545D01*
X109826901Y-85178455D01*
X109843021Y-85182407D01*
X109922004Y-85219280D01*
X109926994Y-85221477D01*
X110007545Y-85254842D01*
X110021341Y-85264060D01*
X110037893Y-85273382D01*
X110052926Y-85280400D01*
X110123194Y-85331971D01*
X110127692Y-85335122D01*
X110200156Y-85383541D01*
X110211883Y-85395268D01*
X110226309Y-85407648D01*
X110239679Y-85417461D01*
X110239680Y-85417462D01*
X110298521Y-85481733D01*
X110302329Y-85485714D01*
X110363959Y-85547344D01*
X110373174Y-85561135D01*
X110384896Y-85576078D01*
X110396105Y-85588321D01*
X110441299Y-85662874D01*
X110444246Y-85667501D01*
X110492658Y-85739955D01*
X110499005Y-85755277D01*
X110507592Y-85772231D01*
X110516191Y-85786417D01*
X110545978Y-85868368D01*
X110547952Y-85873448D01*
X110581307Y-85953973D01*
X110581307Y-85953974D01*
X110584541Y-85970233D01*
X110589658Y-85988542D01*
X110595325Y-86004134D01*
X110608555Y-86090345D01*
X110609501Y-86095713D01*
X110626500Y-86181173D01*
X110626500Y-86197752D01*
X110627944Y-86216692D01*
X110630463Y-86233104D01*
X110626620Y-86320249D01*
X110626500Y-86325689D01*
X110626500Y-86412826D01*
X110625628Y-86417212D01*
X110623266Y-86429083D01*
X110620988Y-86447941D01*
X110620256Y-86464531D01*
X110599488Y-86549237D01*
X110598312Y-86554537D01*
X110581307Y-86640027D01*
X110574957Y-86655357D01*
X110569049Y-86673393D01*
X110565095Y-86689520D01*
X110528211Y-86768526D01*
X110526011Y-86773523D01*
X110492658Y-86854045D01*
X110483444Y-86867835D01*
X110474122Y-86884387D01*
X110467102Y-86899424D01*
X110415511Y-86969720D01*
X110412366Y-86974210D01*
X110363961Y-87046654D01*
X110306960Y-87103655D01*
X110302311Y-87108563D01*
X109870811Y-87589470D01*
X108977223Y-88585376D01*
X108849179Y-88702602D01*
X108750131Y-88762645D01*
X108651083Y-88822689D01*
X108433366Y-88901823D01*
X108204395Y-88936961D01*
X107972970Y-88926754D01*
X107747981Y-88871593D01*
X107643227Y-88822689D01*
X107538079Y-88773602D01*
X107441338Y-88702602D01*
X107351323Y-88636539D01*
X107276894Y-88555241D01*
X107194898Y-88465679D01*
X107113064Y-88330685D01*
X107074811Y-88267583D01*
X106995677Y-88049866D01*
X106960539Y-87820895D01*
X106970746Y-87589470D01*
X107025907Y-87364481D01*
X107085992Y-87235777D01*
X107123898Y-87154580D01*
X107152864Y-87115112D01*
X107226614Y-87014622D01*
X107981745Y-86173027D01*
X108513287Y-85580621D01*
X108524181Y-85566589D01*
X108537039Y-85547346D01*
X108594073Y-85490312D01*
X108598723Y-85485403D01*
X108613778Y-85468624D01*
X108635201Y-85449011D01*
X108639182Y-85445203D01*
X108700846Y-85383539D01*
X108714643Y-85374320D01*
X108729602Y-85362585D01*
X108741821Y-85351398D01*
X108785140Y-85325138D01*
X108816330Y-85306231D01*
X108820921Y-85303308D01*
X108893455Y-85254842D01*
X108908800Y-85248486D01*
X108925748Y-85239901D01*
X108939916Y-85231312D01*
X108939917Y-85231312D01*
X108939918Y-85231311D01*
X109021812Y-85201545D01*
X109026910Y-85199563D01*
X109107473Y-85166193D01*
X109123752Y-85162955D01*
X109142042Y-85157844D01*
X109157635Y-85152177D01*
X109243800Y-85138954D01*
X109249163Y-85138009D01*
X109334673Y-85121000D01*
X109351266Y-85121000D01*
X109370209Y-85119555D01*
X109386606Y-85117039D01*
X109473705Y-85120881D01*
X109473705Y-85120881D01*
G37*
G36*
X128523705Y-85120881D02*
G01*
X128529145Y-85121000D01*
X128616328Y-85121000D01*
X128632597Y-85124236D01*
X128651456Y-85126515D01*
X128668032Y-85127246D01*
X128752723Y-85148010D01*
X128758018Y-85149184D01*
X128843527Y-85166193D01*
X128858862Y-85172545D01*
X128876901Y-85178455D01*
X128893021Y-85182407D01*
X128972004Y-85219280D01*
X128976994Y-85221477D01*
X129057545Y-85254842D01*
X129071341Y-85264060D01*
X129087893Y-85273382D01*
X129102926Y-85280400D01*
X129173194Y-85331971D01*
X129177692Y-85335122D01*
X129250156Y-85383541D01*
X129261883Y-85395268D01*
X129276309Y-85407648D01*
X129289679Y-85417461D01*
X129289680Y-85417462D01*
X129348521Y-85481733D01*
X129352329Y-85485714D01*
X129413959Y-85547344D01*
X129423174Y-85561135D01*
X129434896Y-85576078D01*
X129446105Y-85588321D01*
X129491299Y-85662874D01*
X129494246Y-85667501D01*
X129542658Y-85739955D01*
X129549005Y-85755277D01*
X129557592Y-85772231D01*
X129566191Y-85786417D01*
X129595978Y-85868368D01*
X129597952Y-85873448D01*
X129631307Y-85953973D01*
X129631307Y-85953974D01*
X129634541Y-85970233D01*
X129639658Y-85988542D01*
X129645325Y-86004134D01*
X129658555Y-86090345D01*
X129659501Y-86095713D01*
X129676500Y-86181173D01*
X129676500Y-86197752D01*
X129677944Y-86216692D01*
X129680463Y-86233104D01*
X129676620Y-86320249D01*
X129676500Y-86325689D01*
X129676500Y-86412826D01*
X129675628Y-86417212D01*
X129673266Y-86429083D01*
X129670988Y-86447941D01*
X129670256Y-86464531D01*
X129649488Y-86549237D01*
X129648312Y-86554537D01*
X129631307Y-86640027D01*
X129624957Y-86655357D01*
X129619049Y-86673393D01*
X129615095Y-86689520D01*
X129578211Y-86768526D01*
X129576011Y-86773523D01*
X129542658Y-86854045D01*
X129533444Y-86867835D01*
X129524122Y-86884387D01*
X129517102Y-86899424D01*
X129465511Y-86969720D01*
X129462366Y-86974210D01*
X129413961Y-87046654D01*
X129356960Y-87103655D01*
X129352311Y-87108563D01*
X128920811Y-87589470D01*
X128027223Y-88585376D01*
X127899179Y-88702602D01*
X127800131Y-88762645D01*
X127701083Y-88822689D01*
X127483366Y-88901823D01*
X127254395Y-88936961D01*
X127022970Y-88926754D01*
X126797981Y-88871593D01*
X126693227Y-88822689D01*
X126588079Y-88773602D01*
X126491338Y-88702602D01*
X126401323Y-88636539D01*
X126326894Y-88555241D01*
X126244898Y-88465679D01*
X126163064Y-88330685D01*
X126124811Y-88267583D01*
X126045677Y-88049866D01*
X126010539Y-87820895D01*
X126020746Y-87589470D01*
X126075907Y-87364481D01*
X126135992Y-87235777D01*
X126173898Y-87154580D01*
X126202864Y-87115112D01*
X126276614Y-87014622D01*
X127031745Y-86173027D01*
X127563287Y-85580621D01*
X127574181Y-85566589D01*
X127587039Y-85547346D01*
X127644073Y-85490312D01*
X127648723Y-85485403D01*
X127663778Y-85468624D01*
X127685201Y-85449011D01*
X127689182Y-85445203D01*
X127750846Y-85383539D01*
X127764643Y-85374320D01*
X127779602Y-85362585D01*
X127791821Y-85351398D01*
X127835140Y-85325138D01*
X127866330Y-85306231D01*
X127870921Y-85303308D01*
X127943455Y-85254842D01*
X127958800Y-85248486D01*
X127975748Y-85239901D01*
X127989916Y-85231312D01*
X127989917Y-85231312D01*
X127989918Y-85231311D01*
X128071812Y-85201545D01*
X128076910Y-85199563D01*
X128157473Y-85166193D01*
X128173752Y-85162955D01*
X128192042Y-85157844D01*
X128207635Y-85152177D01*
X128293800Y-85138954D01*
X128299163Y-85138009D01*
X128384673Y-85121000D01*
X128401266Y-85121000D01*
X128420209Y-85119555D01*
X128436606Y-85117039D01*
X128523705Y-85120881D01*
X128523705Y-85120881D01*
G37*
G36*
X98814000Y-88066750D02*
G01*
X90162000Y-88066750D01*
X90162000Y-86464750D01*
X98814000Y-86464750D01*
X98814000Y-88066750D01*
X98814000Y-88066750D01*
G37*
G36*
X85483968Y-86255565D02*
G01*
X85522638Y-86267296D01*
X85558277Y-86286346D01*
X85589517Y-86311983D01*
X85615154Y-86343223D01*
X85634204Y-86378862D01*
X85645935Y-86417532D01*
X85650500Y-86463888D01*
X85650500Y-87115112D01*
X85645935Y-87161468D01*
X85634204Y-87200138D01*
X85615154Y-87235777D01*
X85589517Y-87267017D01*
X85558277Y-87292654D01*
X85522638Y-87311704D01*
X85483968Y-87323435D01*
X85437612Y-87328000D01*
X84361388Y-87328000D01*
X84315032Y-87323435D01*
X84276362Y-87311704D01*
X84240723Y-87292654D01*
X84209483Y-87267017D01*
X84183846Y-87235777D01*
X84164796Y-87200138D01*
X84153065Y-87161468D01*
X84148500Y-87115112D01*
X84148500Y-86463888D01*
X84153065Y-86417532D01*
X84164796Y-86378862D01*
X84183846Y-86343223D01*
X84209483Y-86311983D01*
X84240723Y-86286346D01*
X84276362Y-86267296D01*
X84315032Y-86255565D01*
X84361388Y-86251000D01*
X85437612Y-86251000D01*
X85483968Y-86255565D01*
X85483968Y-86255565D01*
G37*
G36*
X114578627Y-84039261D02*
G01*
X114599400Y-84041000D01*
X114606327Y-84041000D01*
X114701254Y-84059882D01*
X114704848Y-84060542D01*
X114800230Y-84076624D01*
X114806703Y-84079085D01*
X114826728Y-84084841D01*
X114833527Y-84086193D01*
X114895914Y-84112034D01*
X114922943Y-84123230D01*
X114926344Y-84124581D01*
X115016755Y-84158961D01*
X115022627Y-84162640D01*
X115041136Y-84172187D01*
X115047545Y-84174842D01*
X115128063Y-84228642D01*
X115131054Y-84230578D01*
X115213057Y-84281959D01*
X115218084Y-84286700D01*
X115234396Y-84299691D01*
X115240152Y-84303537D01*
X115308610Y-84371995D01*
X115311189Y-84374499D01*
X115381590Y-84440889D01*
X115385595Y-84446519D01*
X115399059Y-84462444D01*
X115403959Y-84467344D01*
X115457744Y-84547839D01*
X115459791Y-84550807D01*
X115515880Y-84629645D01*
X115518714Y-84635958D01*
X115528808Y-84654193D01*
X115532658Y-84659955D01*
X115569720Y-84749430D01*
X115571124Y-84752685D01*
X115610765Y-84840973D01*
X115612315Y-84847725D01*
X115618652Y-84867562D01*
X115621307Y-84873973D01*
X115640192Y-84968917D01*
X115640938Y-84972401D01*
X115662598Y-85066751D01*
X115662598Y-85066754D01*
X115662800Y-85073654D01*
X115665147Y-85094370D01*
X115666500Y-85101174D01*
X115666500Y-85197986D01*
X115666553Y-85201584D01*
X115667688Y-85240277D01*
X115666795Y-85253225D01*
X115666500Y-85261797D01*
X115666500Y-85332826D01*
X115660581Y-85362585D01*
X115660104Y-85364979D01*
X115658000Y-85380750D01*
X115619738Y-85935545D01*
X115590876Y-86106730D01*
X115508538Y-86323255D01*
X115385541Y-86519557D01*
X115226611Y-86688090D01*
X115037855Y-86822380D01*
X114826527Y-86917265D01*
X114600749Y-86969098D01*
X114369198Y-86975889D01*
X114369197Y-86975889D01*
X114323512Y-86968186D01*
X114140770Y-86937376D01*
X113924245Y-86855038D01*
X113727943Y-86732041D01*
X113559410Y-86573111D01*
X113425120Y-86384355D01*
X113330235Y-86173027D01*
X113278402Y-85947249D01*
X113273312Y-85773723D01*
X113314204Y-85180794D01*
X113314500Y-85172196D01*
X113314500Y-85101175D01*
X113333382Y-85006250D01*
X113334044Y-85002645D01*
X113339731Y-84968917D01*
X113350124Y-84907270D01*
X113352585Y-84900799D01*
X113358342Y-84880767D01*
X113359693Y-84873974D01*
X113362343Y-84867576D01*
X113396764Y-84784476D01*
X113398053Y-84781230D01*
X113432462Y-84690745D01*
X113436136Y-84684881D01*
X113445687Y-84666365D01*
X113448342Y-84659955D01*
X113502157Y-84579415D01*
X113504077Y-84576449D01*
X113555459Y-84494443D01*
X113560211Y-84489404D01*
X113573189Y-84473107D01*
X113577037Y-84467348D01*
X113645493Y-84398892D01*
X113648046Y-84396262D01*
X113668523Y-84374548D01*
X113714389Y-84325910D01*
X113720021Y-84321903D01*
X113735947Y-84308438D01*
X113740846Y-84303539D01*
X113821324Y-84249766D01*
X113824306Y-84247710D01*
X113903145Y-84191620D01*
X113909455Y-84188787D01*
X113927694Y-84178691D01*
X113933451Y-84174844D01*
X113933454Y-84174843D01*
X113933455Y-84174842D01*
X114022929Y-84137781D01*
X114026187Y-84136375D01*
X114114473Y-84096735D01*
X114121225Y-84095185D01*
X114141062Y-84088848D01*
X114147473Y-84086193D01*
X114242399Y-84067311D01*
X114245946Y-84066551D01*
X114340251Y-84044901D01*
X114342630Y-84044831D01*
X114347165Y-84044698D01*
X114367881Y-84042351D01*
X114374674Y-84041000D01*
X114471459Y-84041000D01*
X114475084Y-84040947D01*
X114571802Y-84038110D01*
X114578627Y-84039261D01*
X114578627Y-84039261D01*
G37*
G36*
X133628627Y-84039261D02*
G01*
X133649400Y-84041000D01*
X133656327Y-84041000D01*
X133751254Y-84059882D01*
X133754848Y-84060542D01*
X133850230Y-84076624D01*
X133856703Y-84079085D01*
X133876728Y-84084841D01*
X133883527Y-84086193D01*
X133945914Y-84112034D01*
X133972943Y-84123230D01*
X133976344Y-84124581D01*
X134066755Y-84158961D01*
X134072627Y-84162640D01*
X134091136Y-84172187D01*
X134097545Y-84174842D01*
X134178063Y-84228642D01*
X134181054Y-84230578D01*
X134263057Y-84281959D01*
X134268084Y-84286700D01*
X134284396Y-84299691D01*
X134290152Y-84303537D01*
X134358610Y-84371995D01*
X134361189Y-84374499D01*
X134431590Y-84440889D01*
X134435595Y-84446519D01*
X134449059Y-84462444D01*
X134453959Y-84467344D01*
X134507744Y-84547839D01*
X134509791Y-84550807D01*
X134565880Y-84629645D01*
X134568714Y-84635958D01*
X134578808Y-84654193D01*
X134582658Y-84659955D01*
X134619720Y-84749430D01*
X134621124Y-84752685D01*
X134660765Y-84840973D01*
X134662315Y-84847725D01*
X134668652Y-84867562D01*
X134671307Y-84873973D01*
X134690192Y-84968917D01*
X134690938Y-84972401D01*
X134712598Y-85066751D01*
X134712598Y-85066754D01*
X134712800Y-85073654D01*
X134715147Y-85094370D01*
X134716500Y-85101174D01*
X134716500Y-85197986D01*
X134716553Y-85201584D01*
X134717688Y-85240277D01*
X134716795Y-85253225D01*
X134716500Y-85261797D01*
X134716500Y-85332826D01*
X134710581Y-85362585D01*
X134710104Y-85364979D01*
X134708000Y-85380750D01*
X134669738Y-85935545D01*
X134640876Y-86106730D01*
X134558538Y-86323255D01*
X134435541Y-86519557D01*
X134276611Y-86688090D01*
X134087855Y-86822380D01*
X133876527Y-86917265D01*
X133650749Y-86969098D01*
X133419198Y-86975889D01*
X133419197Y-86975889D01*
X133373512Y-86968186D01*
X133190770Y-86937376D01*
X132974245Y-86855038D01*
X132777943Y-86732041D01*
X132609410Y-86573111D01*
X132475120Y-86384355D01*
X132380235Y-86173027D01*
X132328402Y-85947249D01*
X132323312Y-85773723D01*
X132364204Y-85180794D01*
X132364500Y-85172196D01*
X132364500Y-85101175D01*
X132383382Y-85006250D01*
X132384044Y-85002645D01*
X132389731Y-84968917D01*
X132400124Y-84907270D01*
X132402585Y-84900799D01*
X132408342Y-84880767D01*
X132409693Y-84873974D01*
X132412343Y-84867576D01*
X132446764Y-84784476D01*
X132448053Y-84781230D01*
X132482462Y-84690745D01*
X132486136Y-84684881D01*
X132495687Y-84666365D01*
X132498342Y-84659955D01*
X132552157Y-84579415D01*
X132554077Y-84576449D01*
X132605459Y-84494443D01*
X132610211Y-84489404D01*
X132623189Y-84473107D01*
X132627037Y-84467348D01*
X132695493Y-84398892D01*
X132698046Y-84396262D01*
X132718523Y-84374548D01*
X132764389Y-84325910D01*
X132770021Y-84321903D01*
X132785947Y-84308438D01*
X132790846Y-84303539D01*
X132871324Y-84249766D01*
X132874306Y-84247710D01*
X132953145Y-84191620D01*
X132959455Y-84188787D01*
X132977694Y-84178691D01*
X132983451Y-84174844D01*
X132983454Y-84174843D01*
X132983455Y-84174842D01*
X133072929Y-84137781D01*
X133076187Y-84136375D01*
X133164473Y-84096735D01*
X133171225Y-84095185D01*
X133191062Y-84088848D01*
X133197473Y-84086193D01*
X133292399Y-84067311D01*
X133295946Y-84066551D01*
X133390251Y-84044901D01*
X133392630Y-84044831D01*
X133397165Y-84044698D01*
X133417881Y-84042351D01*
X133424674Y-84041000D01*
X133521459Y-84041000D01*
X133525084Y-84040947D01*
X133621802Y-84038110D01*
X133628627Y-84039261D01*
X133628627Y-84039261D01*
G37*
G36*
X89589000Y-85891750D02*
G01*
X87987000Y-85891750D01*
X87987000Y-77239750D01*
X89589000Y-77239750D01*
X89589000Y-85891750D01*
X89589000Y-85891750D01*
G37*
G36*
X100989000Y-85891750D02*
G01*
X99387000Y-85891750D01*
X99387000Y-77239750D01*
X100989000Y-77239750D01*
X100989000Y-85891750D01*
X100989000Y-85891750D01*
G37*
G36*
X85483968Y-84380565D02*
G01*
X85522638Y-84392296D01*
X85558277Y-84411346D01*
X85589517Y-84436983D01*
X85615154Y-84468223D01*
X85634204Y-84503862D01*
X85645935Y-84542532D01*
X85650500Y-84588888D01*
X85650500Y-85240112D01*
X85645935Y-85286468D01*
X85634204Y-85325138D01*
X85615154Y-85360777D01*
X85589517Y-85392017D01*
X85558277Y-85417654D01*
X85522638Y-85436704D01*
X85483968Y-85448435D01*
X85437612Y-85453000D01*
X84361388Y-85453000D01*
X84315032Y-85448435D01*
X84276362Y-85436704D01*
X84240723Y-85417654D01*
X84209483Y-85392017D01*
X84183846Y-85360777D01*
X84164796Y-85325138D01*
X84153065Y-85286468D01*
X84148500Y-85240112D01*
X84148500Y-84588888D01*
X84153065Y-84542532D01*
X84164796Y-84503862D01*
X84183846Y-84468223D01*
X84209483Y-84436983D01*
X84240723Y-84411346D01*
X84276362Y-84392296D01*
X84315032Y-84380565D01*
X84361388Y-84376000D01*
X85437612Y-84376000D01*
X85483968Y-84380565D01*
X85483968Y-84380565D01*
G37*
G36*
X85547468Y-81175565D02*
G01*
X85586138Y-81187296D01*
X85621777Y-81206346D01*
X85653017Y-81231983D01*
X85678654Y-81263223D01*
X85697704Y-81298862D01*
X85709435Y-81337532D01*
X85714000Y-81383888D01*
X85714000Y-82035112D01*
X85709435Y-82081468D01*
X85697704Y-82120138D01*
X85678654Y-82155777D01*
X85653017Y-82187017D01*
X85621777Y-82212654D01*
X85586138Y-82231704D01*
X85547468Y-82243435D01*
X85501112Y-82248000D01*
X84424888Y-82248000D01*
X84378532Y-82243435D01*
X84339862Y-82231704D01*
X84304223Y-82212654D01*
X84272983Y-82187017D01*
X84247346Y-82155777D01*
X84228296Y-82120138D01*
X84216565Y-82081468D01*
X84212000Y-82035112D01*
X84212000Y-81383888D01*
X84216565Y-81337532D01*
X84228296Y-81298862D01*
X84247346Y-81263223D01*
X84272983Y-81231983D01*
X84304223Y-81206346D01*
X84339862Y-81187296D01*
X84378532Y-81175565D01*
X84424888Y-81171000D01*
X85501112Y-81171000D01*
X85547468Y-81175565D01*
X85547468Y-81175565D01*
G37*
G36*
X80969104Y-79119097D02*
G01*
X81005644Y-79130182D01*
X81039321Y-79148183D01*
X81068841Y-79172409D01*
X81093067Y-79201929D01*
X81111068Y-79235606D01*
X81122153Y-79272146D01*
X81126500Y-79316288D01*
X81126500Y-80265212D01*
X81122153Y-80309354D01*
X81111068Y-80345894D01*
X81093067Y-80379571D01*
X81068841Y-80409091D01*
X81039321Y-80433317D01*
X81005644Y-80451318D01*
X80969104Y-80462403D01*
X80924962Y-80466750D01*
X79476038Y-80466750D01*
X79431896Y-80462403D01*
X79395356Y-80451318D01*
X79361679Y-80433317D01*
X79332159Y-80409091D01*
X79307933Y-80379571D01*
X79289932Y-80345894D01*
X79278847Y-80309354D01*
X79274500Y-80265212D01*
X79274500Y-79316288D01*
X79278847Y-79272146D01*
X79289932Y-79235606D01*
X79307933Y-79201929D01*
X79332159Y-79172409D01*
X79361679Y-79148183D01*
X79395356Y-79130182D01*
X79431896Y-79119097D01*
X79476038Y-79114750D01*
X80924962Y-79114750D01*
X80969104Y-79119097D01*
X80969104Y-79119097D01*
G37*
G36*
X85547468Y-79300565D02*
G01*
X85586138Y-79312296D01*
X85621777Y-79331346D01*
X85653017Y-79356983D01*
X85678654Y-79388223D01*
X85697704Y-79423862D01*
X85709435Y-79462532D01*
X85714000Y-79508888D01*
X85714000Y-80160112D01*
X85709435Y-80206468D01*
X85697704Y-80245138D01*
X85678654Y-80280777D01*
X85653017Y-80312017D01*
X85621777Y-80337654D01*
X85586138Y-80356704D01*
X85547468Y-80368435D01*
X85501112Y-80373000D01*
X84424888Y-80373000D01*
X84378532Y-80368435D01*
X84339862Y-80356704D01*
X84304223Y-80337654D01*
X84272983Y-80312017D01*
X84247346Y-80280777D01*
X84228296Y-80245138D01*
X84216565Y-80206468D01*
X84212000Y-80160112D01*
X84212000Y-79508888D01*
X84216565Y-79462532D01*
X84228296Y-79423862D01*
X84247346Y-79388223D01*
X84272983Y-79356983D01*
X84304223Y-79331346D01*
X84339862Y-79312296D01*
X84378532Y-79300565D01*
X84424888Y-79296000D01*
X85501112Y-79296000D01*
X85547468Y-79300565D01*
X85547468Y-79300565D01*
G37*
G36*
X85547468Y-77206815D02*
G01*
X85586138Y-77218546D01*
X85621777Y-77237596D01*
X85653017Y-77263233D01*
X85678654Y-77294473D01*
X85697704Y-77330112D01*
X85709435Y-77368782D01*
X85714000Y-77415138D01*
X85714000Y-78066362D01*
X85709435Y-78112718D01*
X85697704Y-78151388D01*
X85678654Y-78187027D01*
X85653017Y-78218267D01*
X85621777Y-78243904D01*
X85586138Y-78262954D01*
X85547468Y-78274685D01*
X85501112Y-78279250D01*
X84424888Y-78279250D01*
X84378532Y-78274685D01*
X84339862Y-78262954D01*
X84304223Y-78243904D01*
X84272983Y-78218267D01*
X84247346Y-78187027D01*
X84228296Y-78151388D01*
X84216565Y-78112718D01*
X84212000Y-78066362D01*
X84212000Y-77415138D01*
X84216565Y-77368782D01*
X84228296Y-77330112D01*
X84247346Y-77294473D01*
X84272983Y-77263233D01*
X84304223Y-77237596D01*
X84339862Y-77218546D01*
X84378532Y-77206815D01*
X84424888Y-77202250D01*
X85501112Y-77202250D01*
X85547468Y-77206815D01*
X85547468Y-77206815D01*
G37*
G36*
X80969104Y-76319097D02*
G01*
X81005644Y-76330182D01*
X81039321Y-76348183D01*
X81068841Y-76372409D01*
X81093067Y-76401929D01*
X81111068Y-76435606D01*
X81122153Y-76472146D01*
X81126500Y-76516288D01*
X81126500Y-77465212D01*
X81122153Y-77509354D01*
X81111068Y-77545894D01*
X81093067Y-77579571D01*
X81068841Y-77609091D01*
X81039321Y-77633317D01*
X81005644Y-77651318D01*
X80969104Y-77662403D01*
X80924962Y-77666750D01*
X79476038Y-77666750D01*
X79431896Y-77662403D01*
X79395356Y-77651318D01*
X79361679Y-77633317D01*
X79332159Y-77609091D01*
X79307933Y-77579571D01*
X79289932Y-77545894D01*
X79278847Y-77509354D01*
X79274500Y-77465212D01*
X79274500Y-76516288D01*
X79278847Y-76472146D01*
X79289932Y-76435606D01*
X79307933Y-76401929D01*
X79332159Y-76372409D01*
X79361679Y-76348183D01*
X79395356Y-76330182D01*
X79431896Y-76319097D01*
X79476038Y-76314750D01*
X80924962Y-76314750D01*
X80969104Y-76319097D01*
X80969104Y-76319097D01*
G37*
G36*
X98814000Y-76666750D02*
G01*
X90162000Y-76666750D01*
X90162000Y-75064750D01*
X98814000Y-75064750D01*
X98814000Y-76666750D01*
X98814000Y-76666750D01*
G37*
G36*
X85547468Y-75331815D02*
G01*
X85586138Y-75343546D01*
X85621777Y-75362596D01*
X85653017Y-75388233D01*
X85678654Y-75419473D01*
X85697704Y-75455112D01*
X85709435Y-75493782D01*
X85714000Y-75540138D01*
X85714000Y-76191362D01*
X85709435Y-76237718D01*
X85697704Y-76276388D01*
X85678654Y-76312027D01*
X85653017Y-76343267D01*
X85621777Y-76368904D01*
X85586138Y-76387954D01*
X85547468Y-76399685D01*
X85501112Y-76404250D01*
X84424888Y-76404250D01*
X84378532Y-76399685D01*
X84339862Y-76387954D01*
X84304223Y-76368904D01*
X84272983Y-76343267D01*
X84247346Y-76312027D01*
X84228296Y-76276388D01*
X84216565Y-76237718D01*
X84212000Y-76191362D01*
X84212000Y-75540138D01*
X84216565Y-75493782D01*
X84228296Y-75455112D01*
X84247346Y-75419473D01*
X84272983Y-75388233D01*
X84304223Y-75362596D01*
X84339862Y-75343546D01*
X84378532Y-75331815D01*
X84424888Y-75327250D01*
X85501112Y-75327250D01*
X85547468Y-75331815D01*
X85547468Y-75331815D01*
G37*
G36*
X80784968Y-73238065D02*
G01*
X80823638Y-73249796D01*
X80859277Y-73268846D01*
X80890517Y-73294483D01*
X80916154Y-73325723D01*
X80935204Y-73361362D01*
X80946935Y-73400032D01*
X80951500Y-73446388D01*
X80951500Y-74097612D01*
X80946935Y-74143968D01*
X80935204Y-74182638D01*
X80916154Y-74218277D01*
X80890517Y-74249517D01*
X80859277Y-74275154D01*
X80823638Y-74294204D01*
X80784968Y-74305935D01*
X80738612Y-74310500D01*
X79662388Y-74310500D01*
X79616032Y-74305935D01*
X79577362Y-74294204D01*
X79541723Y-74275154D01*
X79510483Y-74249517D01*
X79484846Y-74218277D01*
X79465796Y-74182638D01*
X79454065Y-74143968D01*
X79449500Y-74097612D01*
X79449500Y-73446388D01*
X79454065Y-73400032D01*
X79465796Y-73361362D01*
X79484846Y-73325723D01*
X79510483Y-73294483D01*
X79541723Y-73268846D01*
X79577362Y-73249796D01*
X79616032Y-73238065D01*
X79662388Y-73233500D01*
X80738612Y-73233500D01*
X80784968Y-73238065D01*
X80784968Y-73238065D01*
G37*
G36*
X84753718Y-73238065D02*
G01*
X84792388Y-73249796D01*
X84828027Y-73268846D01*
X84859267Y-73294483D01*
X84884904Y-73325723D01*
X84903954Y-73361362D01*
X84915685Y-73400032D01*
X84920250Y-73446388D01*
X84920250Y-74097612D01*
X84915685Y-74143968D01*
X84903954Y-74182638D01*
X84884904Y-74218277D01*
X84859267Y-74249517D01*
X84828027Y-74275154D01*
X84792388Y-74294204D01*
X84753718Y-74305935D01*
X84707362Y-74310500D01*
X83631138Y-74310500D01*
X83584782Y-74305935D01*
X83546112Y-74294204D01*
X83510473Y-74275154D01*
X83479233Y-74249517D01*
X83453596Y-74218277D01*
X83434546Y-74182638D01*
X83422815Y-74143968D01*
X83418250Y-74097612D01*
X83418250Y-73446388D01*
X83422815Y-73400032D01*
X83434546Y-73361362D01*
X83453596Y-73325723D01*
X83479233Y-73294483D01*
X83510473Y-73268846D01*
X83546112Y-73249796D01*
X83584782Y-73238065D01*
X83631138Y-73233500D01*
X84707362Y-73233500D01*
X84753718Y-73238065D01*
X84753718Y-73238065D01*
G37*
G36*
X88531968Y-73174565D02*
G01*
X88570638Y-73186296D01*
X88606277Y-73205346D01*
X88637517Y-73230983D01*
X88663154Y-73262223D01*
X88682204Y-73297862D01*
X88693935Y-73336532D01*
X88698500Y-73382888D01*
X88698500Y-74034112D01*
X88693935Y-74080468D01*
X88682204Y-74119138D01*
X88663154Y-74154777D01*
X88637517Y-74186017D01*
X88606277Y-74211654D01*
X88570638Y-74230704D01*
X88531968Y-74242435D01*
X88485612Y-74247000D01*
X87409388Y-74247000D01*
X87363032Y-74242435D01*
X87324362Y-74230704D01*
X87288723Y-74211654D01*
X87257483Y-74186017D01*
X87231846Y-74154777D01*
X87212796Y-74119138D01*
X87201065Y-74080468D01*
X87196500Y-74034112D01*
X87196500Y-73382888D01*
X87201065Y-73336532D01*
X87212796Y-73297862D01*
X87231846Y-73262223D01*
X87257483Y-73230983D01*
X87288723Y-73205346D01*
X87324362Y-73186296D01*
X87363032Y-73174565D01*
X87409388Y-73170000D01*
X88485612Y-73170000D01*
X88531968Y-73174565D01*
X88531968Y-73174565D01*
G37*
G36*
X120539000Y-73398000D02*
G01*
X119237000Y-73398000D01*
X119237000Y-72396000D01*
X120539000Y-72396000D01*
X120539000Y-73398000D01*
X120539000Y-73398000D01*
G37*
G36*
X139589000Y-73398000D02*
G01*
X138287000Y-73398000D01*
X138287000Y-72396000D01*
X139589000Y-72396000D01*
X139589000Y-73398000D01*
X139589000Y-73398000D01*
G37*
G36*
X131596974Y-69280684D02*
G01*
X131814974Y-69370983D01*
X131969123Y-69434833D01*
X132304048Y-69658623D01*
X132588877Y-69943452D01*
X132812667Y-70278377D01*
X132845062Y-70356586D01*
X132966816Y-70650526D01*
X133045400Y-71045594D01*
X133045400Y-71448406D01*
X132966816Y-71843474D01*
X132915951Y-71966272D01*
X132812667Y-72215623D01*
X132588877Y-72550548D01*
X132304048Y-72835377D01*
X131969123Y-73059167D01*
X131814974Y-73123017D01*
X131596974Y-73213316D01*
X131201906Y-73291900D01*
X130799094Y-73291900D01*
X130404026Y-73213316D01*
X130186026Y-73123017D01*
X130031877Y-73059167D01*
X129696952Y-72835377D01*
X129412123Y-72550548D01*
X129188333Y-72215623D01*
X129085049Y-71966272D01*
X129034184Y-71843474D01*
X128955600Y-71448406D01*
X128955600Y-71045594D01*
X129034184Y-70650526D01*
X129155938Y-70356586D01*
X129188333Y-70278377D01*
X129412123Y-69943452D01*
X129696952Y-69658623D01*
X130031877Y-69434833D01*
X130186026Y-69370983D01*
X130404026Y-69280684D01*
X130799094Y-69202100D01*
X131201906Y-69202100D01*
X131596974Y-69280684D01*
X131596974Y-69280684D01*
G37*
G36*
X112546974Y-69280684D02*
G01*
X112764974Y-69370983D01*
X112919123Y-69434833D01*
X113254048Y-69658623D01*
X113538877Y-69943452D01*
X113762667Y-70278377D01*
X113795062Y-70356586D01*
X113916816Y-70650526D01*
X113995400Y-71045594D01*
X113995400Y-71448406D01*
X113916816Y-71843474D01*
X113865951Y-71966272D01*
X113762667Y-72215623D01*
X113538877Y-72550548D01*
X113254048Y-72835377D01*
X112919123Y-73059167D01*
X112764974Y-73123017D01*
X112546974Y-73213316D01*
X112151906Y-73291900D01*
X111749094Y-73291900D01*
X111354026Y-73213316D01*
X111136026Y-73123017D01*
X110981877Y-73059167D01*
X110646952Y-72835377D01*
X110362123Y-72550548D01*
X110138333Y-72215623D01*
X110035049Y-71966272D01*
X109984184Y-71843474D01*
X109905600Y-71448406D01*
X109905600Y-71045594D01*
X109984184Y-70650526D01*
X110105938Y-70356586D01*
X110138333Y-70278377D01*
X110362123Y-69943452D01*
X110646952Y-69658623D01*
X110981877Y-69434833D01*
X111136026Y-69370983D01*
X111354026Y-69280684D01*
X111749094Y-69202100D01*
X112151906Y-69202100D01*
X112546974Y-69280684D01*
X112546974Y-69280684D01*
G37*
G36*
X84753718Y-71363065D02*
G01*
X84792388Y-71374796D01*
X84828027Y-71393846D01*
X84859267Y-71419483D01*
X84884904Y-71450723D01*
X84903954Y-71486362D01*
X84915685Y-71525032D01*
X84920250Y-71571388D01*
X84920250Y-72222612D01*
X84915685Y-72268968D01*
X84903954Y-72307638D01*
X84884904Y-72343277D01*
X84859267Y-72374517D01*
X84828027Y-72400154D01*
X84792388Y-72419204D01*
X84753718Y-72430935D01*
X84707362Y-72435500D01*
X83631138Y-72435500D01*
X83584782Y-72430935D01*
X83546112Y-72419204D01*
X83510473Y-72400154D01*
X83479233Y-72374517D01*
X83453596Y-72343277D01*
X83434546Y-72307638D01*
X83422815Y-72268968D01*
X83418250Y-72222612D01*
X83418250Y-71571388D01*
X83422815Y-71525032D01*
X83434546Y-71486362D01*
X83453596Y-71450723D01*
X83479233Y-71419483D01*
X83510473Y-71393846D01*
X83546112Y-71374796D01*
X83584782Y-71363065D01*
X83631138Y-71358500D01*
X84707362Y-71358500D01*
X84753718Y-71363065D01*
X84753718Y-71363065D01*
G37*
G36*
X80784968Y-71363065D02*
G01*
X80823638Y-71374796D01*
X80859277Y-71393846D01*
X80890517Y-71419483D01*
X80916154Y-71450723D01*
X80935204Y-71486362D01*
X80946935Y-71525032D01*
X80951500Y-71571388D01*
X80951500Y-72222612D01*
X80946935Y-72268968D01*
X80935204Y-72307638D01*
X80916154Y-72343277D01*
X80890517Y-72374517D01*
X80859277Y-72400154D01*
X80823638Y-72419204D01*
X80784968Y-72430935D01*
X80738612Y-72435500D01*
X79662388Y-72435500D01*
X79616032Y-72430935D01*
X79577362Y-72419204D01*
X79541723Y-72400154D01*
X79510483Y-72374517D01*
X79484846Y-72343277D01*
X79465796Y-72307638D01*
X79454065Y-72268968D01*
X79449500Y-72222612D01*
X79449500Y-71571388D01*
X79454065Y-71525032D01*
X79465796Y-71486362D01*
X79484846Y-71450723D01*
X79510483Y-71419483D01*
X79541723Y-71393846D01*
X79577362Y-71374796D01*
X79616032Y-71363065D01*
X79662388Y-71358500D01*
X80738612Y-71358500D01*
X80784968Y-71363065D01*
X80784968Y-71363065D01*
G37*
G36*
X88531968Y-71299565D02*
G01*
X88570638Y-71311296D01*
X88606277Y-71330346D01*
X88637517Y-71355983D01*
X88663154Y-71387223D01*
X88682204Y-71422862D01*
X88693935Y-71461532D01*
X88698500Y-71507888D01*
X88698500Y-72159112D01*
X88693935Y-72205468D01*
X88682204Y-72244138D01*
X88663154Y-72279777D01*
X88637517Y-72311017D01*
X88606277Y-72336654D01*
X88570638Y-72355704D01*
X88531968Y-72367435D01*
X88485612Y-72372000D01*
X87409388Y-72372000D01*
X87363032Y-72367435D01*
X87324362Y-72355704D01*
X87288723Y-72336654D01*
X87257483Y-72311017D01*
X87231846Y-72279777D01*
X87212796Y-72244138D01*
X87201065Y-72205468D01*
X87196500Y-72159112D01*
X87196500Y-71507888D01*
X87201065Y-71461532D01*
X87212796Y-71422862D01*
X87231846Y-71387223D01*
X87257483Y-71355983D01*
X87288723Y-71330346D01*
X87324362Y-71311296D01*
X87363032Y-71299565D01*
X87409388Y-71295000D01*
X88485612Y-71295000D01*
X88531968Y-71299565D01*
X88531968Y-71299565D01*
G37*
G36*
X117300604Y-70356585D02*
G01*
X117469126Y-70426389D01*
X117620791Y-70527728D01*
X117749772Y-70656709D01*
X117851111Y-70808374D01*
X117920915Y-70976896D01*
X117956500Y-71155797D01*
X117956500Y-71338203D01*
X117920915Y-71517104D01*
X117851111Y-71685626D01*
X117749772Y-71837291D01*
X117620791Y-71966272D01*
X117469126Y-72067611D01*
X117300604Y-72137415D01*
X117121703Y-72173000D01*
X116939297Y-72173000D01*
X116760396Y-72137415D01*
X116591874Y-72067611D01*
X116440209Y-71966272D01*
X116311228Y-71837291D01*
X116209889Y-71685626D01*
X116140085Y-71517104D01*
X116104500Y-71338203D01*
X116104500Y-71155797D01*
X116140085Y-70976896D01*
X116209889Y-70808374D01*
X116311228Y-70656709D01*
X116440209Y-70527728D01*
X116591874Y-70426389D01*
X116760396Y-70356585D01*
X116939297Y-70321000D01*
X117121703Y-70321000D01*
X117300604Y-70356585D01*
X117300604Y-70356585D01*
G37*
G36*
X107140604Y-70356585D02*
G01*
X107309126Y-70426389D01*
X107460791Y-70527728D01*
X107589772Y-70656709D01*
X107691111Y-70808374D01*
X107760915Y-70976896D01*
X107796500Y-71155797D01*
X107796500Y-71338203D01*
X107760915Y-71517104D01*
X107691111Y-71685626D01*
X107589772Y-71837291D01*
X107460791Y-71966272D01*
X107309126Y-72067611D01*
X107140604Y-72137415D01*
X106961703Y-72173000D01*
X106779297Y-72173000D01*
X106600396Y-72137415D01*
X106431874Y-72067611D01*
X106280209Y-71966272D01*
X106151228Y-71837291D01*
X106049889Y-71685626D01*
X105980085Y-71517104D01*
X105944500Y-71338203D01*
X105944500Y-71155797D01*
X105980085Y-70976896D01*
X106049889Y-70808374D01*
X106151228Y-70656709D01*
X106280209Y-70527728D01*
X106431874Y-70426389D01*
X106600396Y-70356585D01*
X106779297Y-70321000D01*
X106961703Y-70321000D01*
X107140604Y-70356585D01*
X107140604Y-70356585D01*
G37*
G36*
X136350604Y-70356585D02*
G01*
X136519126Y-70426389D01*
X136670791Y-70527728D01*
X136799772Y-70656709D01*
X136901111Y-70808374D01*
X136970915Y-70976896D01*
X137006500Y-71155797D01*
X137006500Y-71338203D01*
X136970915Y-71517104D01*
X136901111Y-71685626D01*
X136799772Y-71837291D01*
X136670791Y-71966272D01*
X136519126Y-72067611D01*
X136350604Y-72137415D01*
X136171703Y-72173000D01*
X135989297Y-72173000D01*
X135810396Y-72137415D01*
X135641874Y-72067611D01*
X135490209Y-71966272D01*
X135361228Y-71837291D01*
X135259889Y-71685626D01*
X135190085Y-71517104D01*
X135154500Y-71338203D01*
X135154500Y-71155797D01*
X135190085Y-70976896D01*
X135259889Y-70808374D01*
X135361228Y-70656709D01*
X135490209Y-70527728D01*
X135641874Y-70426389D01*
X135810396Y-70356585D01*
X135989297Y-70321000D01*
X136171703Y-70321000D01*
X136350604Y-70356585D01*
X136350604Y-70356585D01*
G37*
G36*
X126190604Y-70356585D02*
G01*
X126359126Y-70426389D01*
X126510791Y-70527728D01*
X126639772Y-70656709D01*
X126741111Y-70808374D01*
X126810915Y-70976896D01*
X126846500Y-71155797D01*
X126846500Y-71338203D01*
X126810915Y-71517104D01*
X126741111Y-71685626D01*
X126639772Y-71837291D01*
X126510791Y-71966272D01*
X126359126Y-72067611D01*
X126190604Y-72137415D01*
X126011703Y-72173000D01*
X125829297Y-72173000D01*
X125650396Y-72137415D01*
X125481874Y-72067611D01*
X125330209Y-71966272D01*
X125201228Y-71837291D01*
X125099889Y-71685626D01*
X125030085Y-71517104D01*
X124994500Y-71338203D01*
X124994500Y-71155797D01*
X125030085Y-70976896D01*
X125099889Y-70808374D01*
X125201228Y-70656709D01*
X125330209Y-70527728D01*
X125481874Y-70426389D01*
X125650396Y-70356585D01*
X125829297Y-70321000D01*
X126011703Y-70321000D01*
X126190604Y-70356585D01*
X126190604Y-70356585D01*
G37*
G36*
X94932750Y-70366750D02*
G01*
X93430750Y-70366750D01*
X93430750Y-69064750D01*
X94932750Y-69064750D01*
X94932750Y-70366750D01*
X94932750Y-70366750D01*
G37*
G36*
X97132750Y-70366750D02*
G01*
X95630750Y-70366750D01*
X95630750Y-69064750D01*
X97132750Y-69064750D01*
X97132750Y-70366750D01*
X97132750Y-70366750D01*
G37*
G36*
X100628718Y-69269315D02*
G01*
X100667388Y-69281046D01*
X100703027Y-69300096D01*
X100734267Y-69325733D01*
X100759904Y-69356973D01*
X100778954Y-69392612D01*
X100790685Y-69431282D01*
X100795250Y-69477638D01*
X100795250Y-70128862D01*
X100790685Y-70175218D01*
X100778954Y-70213888D01*
X100759904Y-70249527D01*
X100734267Y-70280767D01*
X100703027Y-70306404D01*
X100667388Y-70325454D01*
X100628718Y-70337185D01*
X100582362Y-70341750D01*
X99506138Y-70341750D01*
X99459782Y-70337185D01*
X99421112Y-70325454D01*
X99385473Y-70306404D01*
X99354233Y-70280767D01*
X99328596Y-70249527D01*
X99309546Y-70213888D01*
X99297815Y-70175218D01*
X99293250Y-70128862D01*
X99293250Y-69477638D01*
X99297815Y-69431282D01*
X99309546Y-69392612D01*
X99328596Y-69356973D01*
X99354233Y-69325733D01*
X99385473Y-69300096D01*
X99421112Y-69281046D01*
X99459782Y-69269315D01*
X99506138Y-69264750D01*
X100582362Y-69264750D01*
X100628718Y-69269315D01*
X100628718Y-69269315D01*
G37*
G36*
X91103718Y-69269315D02*
G01*
X91142388Y-69281046D01*
X91178027Y-69300096D01*
X91209267Y-69325733D01*
X91234904Y-69356973D01*
X91253954Y-69392612D01*
X91265685Y-69431282D01*
X91270250Y-69477638D01*
X91270250Y-70128862D01*
X91265685Y-70175218D01*
X91253954Y-70213888D01*
X91234904Y-70249527D01*
X91209267Y-70280767D01*
X91178027Y-70306404D01*
X91142388Y-70325454D01*
X91103718Y-70337185D01*
X91057362Y-70341750D01*
X89981138Y-70341750D01*
X89934782Y-70337185D01*
X89896112Y-70325454D01*
X89860473Y-70306404D01*
X89829233Y-70280767D01*
X89803596Y-70249527D01*
X89784546Y-70213888D01*
X89772815Y-70175218D01*
X89768250Y-70128862D01*
X89768250Y-69477638D01*
X89772815Y-69431282D01*
X89784546Y-69392612D01*
X89803596Y-69356973D01*
X89829233Y-69325733D01*
X89860473Y-69300096D01*
X89896112Y-69281046D01*
X89934782Y-69269315D01*
X89981138Y-69264750D01*
X91057362Y-69264750D01*
X91103718Y-69269315D01*
X91103718Y-69269315D01*
G37*
G36*
X139589000Y-70098000D02*
G01*
X138287000Y-70098000D01*
X138287000Y-69096000D01*
X139589000Y-69096000D01*
X139589000Y-70098000D01*
X139589000Y-70098000D01*
G37*
G36*
X120539000Y-70098000D02*
G01*
X119237000Y-70098000D01*
X119237000Y-69096000D01*
X120539000Y-69096000D01*
X120539000Y-70098000D01*
X120539000Y-70098000D01*
G37*
G36*
X128523705Y-66070881D02*
G01*
X128529145Y-66071000D01*
X128616328Y-66071000D01*
X128632597Y-66074236D01*
X128651456Y-66076515D01*
X128668032Y-66077246D01*
X128752723Y-66098010D01*
X128758018Y-66099184D01*
X128843527Y-66116193D01*
X128858862Y-66122545D01*
X128876901Y-66128455D01*
X128893021Y-66132407D01*
X128972004Y-66169280D01*
X128976994Y-66171477D01*
X129057545Y-66204842D01*
X129071341Y-66214060D01*
X129087893Y-66223382D01*
X129102926Y-66230400D01*
X129173194Y-66281971D01*
X129177692Y-66285122D01*
X129250156Y-66333541D01*
X129261883Y-66345268D01*
X129276309Y-66357648D01*
X129289679Y-66367461D01*
X129289680Y-66367462D01*
X129348521Y-66431733D01*
X129352329Y-66435714D01*
X129413959Y-66497344D01*
X129423174Y-66511135D01*
X129434896Y-66526078D01*
X129446105Y-66538321D01*
X129491299Y-66612874D01*
X129494246Y-66617501D01*
X129542658Y-66689955D01*
X129549005Y-66705277D01*
X129557592Y-66722231D01*
X129566191Y-66736417D01*
X129595978Y-66818368D01*
X129597952Y-66823448D01*
X129631307Y-66903973D01*
X129631307Y-66903974D01*
X129634541Y-66920233D01*
X129639658Y-66938542D01*
X129645325Y-66954134D01*
X129658555Y-67040345D01*
X129659501Y-67045713D01*
X129676500Y-67131173D01*
X129676500Y-67147752D01*
X129677944Y-67166692D01*
X129680463Y-67183104D01*
X129676620Y-67270249D01*
X129676500Y-67275689D01*
X129676500Y-67362825D01*
X129673266Y-67379083D01*
X129670988Y-67397941D01*
X129670256Y-67414531D01*
X129649488Y-67499237D01*
X129648312Y-67504537D01*
X129631307Y-67590027D01*
X129624957Y-67605357D01*
X129619049Y-67623393D01*
X129615095Y-67639520D01*
X129578211Y-67718526D01*
X129576011Y-67723523D01*
X129542658Y-67804045D01*
X129533444Y-67817835D01*
X129524122Y-67834387D01*
X129517102Y-67849424D01*
X129465511Y-67919720D01*
X129462366Y-67924210D01*
X129413961Y-67996654D01*
X129356960Y-68053655D01*
X129352311Y-68058563D01*
X128270045Y-69264750D01*
X128027223Y-69535376D01*
X127899179Y-69652602D01*
X127800130Y-69712646D01*
X127701083Y-69772689D01*
X127483366Y-69851823D01*
X127254395Y-69886961D01*
X127022970Y-69876754D01*
X126797981Y-69821593D01*
X126693227Y-69772689D01*
X126588079Y-69723602D01*
X126491338Y-69652602D01*
X126401323Y-69586539D01*
X126301623Y-69477638D01*
X126244898Y-69415679D01*
X126174831Y-69300096D01*
X126124811Y-69217583D01*
X126045677Y-68999866D01*
X126010539Y-68770895D01*
X126020746Y-68539470D01*
X126075907Y-68314481D01*
X126130519Y-68197500D01*
X126173898Y-68104580D01*
X126173900Y-68104577D01*
X126276614Y-67964622D01*
X127031745Y-67123027D01*
X127563287Y-66530621D01*
X127574181Y-66516589D01*
X127587039Y-66497346D01*
X127644073Y-66440312D01*
X127648723Y-66435403D01*
X127663778Y-66418624D01*
X127685201Y-66399011D01*
X127689182Y-66395203D01*
X127750846Y-66333539D01*
X127764643Y-66324320D01*
X127779602Y-66312585D01*
X127791821Y-66301398D01*
X127823885Y-66281961D01*
X127866330Y-66256231D01*
X127870921Y-66253308D01*
X127943455Y-66204842D01*
X127958800Y-66198486D01*
X127975748Y-66189901D01*
X127989916Y-66181312D01*
X127989917Y-66181312D01*
X127989918Y-66181311D01*
X128071812Y-66151545D01*
X128076910Y-66149563D01*
X128157473Y-66116193D01*
X128173752Y-66112955D01*
X128192042Y-66107844D01*
X128207635Y-66102177D01*
X128293800Y-66088954D01*
X128299163Y-66088009D01*
X128384673Y-66071000D01*
X128401266Y-66071000D01*
X128420209Y-66069555D01*
X128436606Y-66067039D01*
X128523705Y-66070881D01*
X128523705Y-66070881D01*
G37*
G36*
X109473705Y-66070881D02*
G01*
X109479145Y-66071000D01*
X109566328Y-66071000D01*
X109582597Y-66074236D01*
X109601456Y-66076515D01*
X109618032Y-66077246D01*
X109702723Y-66098010D01*
X109708018Y-66099184D01*
X109793527Y-66116193D01*
X109808862Y-66122545D01*
X109826901Y-66128455D01*
X109843021Y-66132407D01*
X109922004Y-66169280D01*
X109926994Y-66171477D01*
X110007545Y-66204842D01*
X110021341Y-66214060D01*
X110037893Y-66223382D01*
X110052926Y-66230400D01*
X110123194Y-66281971D01*
X110127692Y-66285122D01*
X110200156Y-66333541D01*
X110211883Y-66345268D01*
X110226309Y-66357648D01*
X110239679Y-66367461D01*
X110239680Y-66367462D01*
X110298521Y-66431733D01*
X110302329Y-66435714D01*
X110363959Y-66497344D01*
X110373174Y-66511135D01*
X110384896Y-66526078D01*
X110396105Y-66538321D01*
X110441299Y-66612874D01*
X110444246Y-66617501D01*
X110492658Y-66689955D01*
X110499005Y-66705277D01*
X110507592Y-66722231D01*
X110516191Y-66736417D01*
X110545978Y-66818368D01*
X110547952Y-66823448D01*
X110581307Y-66903973D01*
X110581307Y-66903974D01*
X110584541Y-66920233D01*
X110589658Y-66938542D01*
X110595325Y-66954134D01*
X110608555Y-67040345D01*
X110609501Y-67045713D01*
X110626500Y-67131173D01*
X110626500Y-67147752D01*
X110627944Y-67166692D01*
X110630463Y-67183104D01*
X110626620Y-67270249D01*
X110626500Y-67275689D01*
X110626500Y-67362825D01*
X110623266Y-67379083D01*
X110620988Y-67397941D01*
X110620256Y-67414531D01*
X110599488Y-67499237D01*
X110598312Y-67504537D01*
X110581307Y-67590027D01*
X110574957Y-67605357D01*
X110569049Y-67623393D01*
X110565095Y-67639520D01*
X110528211Y-67718526D01*
X110526011Y-67723523D01*
X110492658Y-67804045D01*
X110483444Y-67817835D01*
X110474122Y-67834387D01*
X110467102Y-67849424D01*
X110415511Y-67919720D01*
X110412366Y-67924210D01*
X110363961Y-67996654D01*
X110306960Y-68053655D01*
X110302311Y-68058563D01*
X109220045Y-69264750D01*
X108977223Y-69535376D01*
X108849179Y-69652602D01*
X108750130Y-69712646D01*
X108651083Y-69772689D01*
X108433366Y-69851823D01*
X108204395Y-69886961D01*
X107972970Y-69876754D01*
X107747981Y-69821593D01*
X107643227Y-69772689D01*
X107538079Y-69723602D01*
X107441338Y-69652602D01*
X107351323Y-69586539D01*
X107251623Y-69477638D01*
X107194898Y-69415679D01*
X107124831Y-69300096D01*
X107074811Y-69217583D01*
X106995677Y-68999866D01*
X106960539Y-68770895D01*
X106970746Y-68539470D01*
X107025907Y-68314481D01*
X107080519Y-68197500D01*
X107123898Y-68104580D01*
X107123900Y-68104577D01*
X107226614Y-67964622D01*
X107981745Y-67123027D01*
X108513287Y-66530621D01*
X108524181Y-66516589D01*
X108537039Y-66497346D01*
X108594073Y-66440312D01*
X108598723Y-66435403D01*
X108613778Y-66418624D01*
X108635201Y-66399011D01*
X108639182Y-66395203D01*
X108700846Y-66333539D01*
X108714643Y-66324320D01*
X108729602Y-66312585D01*
X108741821Y-66301398D01*
X108773885Y-66281961D01*
X108816330Y-66256231D01*
X108820921Y-66253308D01*
X108893455Y-66204842D01*
X108908800Y-66198486D01*
X108925748Y-66189901D01*
X108939916Y-66181312D01*
X108939917Y-66181312D01*
X108939918Y-66181311D01*
X109021812Y-66151545D01*
X109026910Y-66149563D01*
X109107473Y-66116193D01*
X109123752Y-66112955D01*
X109142042Y-66107844D01*
X109157635Y-66102177D01*
X109243800Y-66088954D01*
X109249163Y-66088009D01*
X109334673Y-66071000D01*
X109351266Y-66071000D01*
X109370209Y-66069555D01*
X109386606Y-66067039D01*
X109473705Y-66070881D01*
X109473705Y-66070881D01*
G37*
G36*
X79140127Y-66612037D02*
G01*
X79309966Y-66663557D01*
X79466491Y-66747222D01*
X79502229Y-66776552D01*
X79603686Y-66859814D01*
X79668296Y-66938543D01*
X79716278Y-66997009D01*
X79799943Y-67153534D01*
X79851463Y-67323373D01*
X79864500Y-67455742D01*
X79864500Y-68544258D01*
X79851463Y-68676627D01*
X79799943Y-68846466D01*
X79716278Y-69002991D01*
X79686948Y-69038729D01*
X79603686Y-69140186D01*
X79466489Y-69252779D01*
X79330002Y-69325733D01*
X79309965Y-69336443D01*
X79140126Y-69387963D01*
X78963500Y-69405359D01*
X78786873Y-69387963D01*
X78617034Y-69336443D01*
X78460509Y-69252778D01*
X78398758Y-69202100D01*
X78323314Y-69140186D01*
X78210721Y-69002989D01*
X78127058Y-68846467D01*
X78127057Y-68846465D01*
X78075537Y-68676626D01*
X78062500Y-68544257D01*
X78062501Y-67455742D01*
X78075538Y-67323373D01*
X78127058Y-67153534D01*
X78210723Y-66997009D01*
X78258705Y-66938543D01*
X78323315Y-66859814D01*
X78424772Y-66776552D01*
X78460510Y-66747222D01*
X78617035Y-66663557D01*
X78786874Y-66612037D01*
X78963500Y-66594641D01*
X79140127Y-66612037D01*
X79140127Y-66612037D01*
G37*
G36*
X86440127Y-66612037D02*
G01*
X86609966Y-66663557D01*
X86766491Y-66747222D01*
X86802229Y-66776552D01*
X86903686Y-66859814D01*
X86968296Y-66938543D01*
X87016278Y-66997009D01*
X87099943Y-67153534D01*
X87151463Y-67323373D01*
X87164500Y-67455742D01*
X87164500Y-68544258D01*
X87151463Y-68676627D01*
X87099943Y-68846466D01*
X87016278Y-69002991D01*
X86986948Y-69038729D01*
X86903686Y-69140186D01*
X86766489Y-69252779D01*
X86630002Y-69325733D01*
X86609965Y-69336443D01*
X86440126Y-69387963D01*
X86263500Y-69405359D01*
X86086873Y-69387963D01*
X85917034Y-69336443D01*
X85760509Y-69252778D01*
X85698758Y-69202100D01*
X85623314Y-69140186D01*
X85510721Y-69002989D01*
X85427058Y-68846467D01*
X85427057Y-68846465D01*
X85375537Y-68676626D01*
X85362500Y-68544257D01*
X85362501Y-67455742D01*
X85375538Y-67323373D01*
X85427058Y-67153534D01*
X85510723Y-66997009D01*
X85558705Y-66938543D01*
X85623315Y-66859814D01*
X85724772Y-66776552D01*
X85760510Y-66747222D01*
X85917035Y-66663557D01*
X86086874Y-66612037D01*
X86263500Y-66594641D01*
X86440127Y-66612037D01*
X86440127Y-66612037D01*
G37*
G36*
X84514500Y-69176000D02*
G01*
X80712500Y-69176000D01*
X80712500Y-66824000D01*
X84514500Y-66824000D01*
X84514500Y-69176000D01*
X84514500Y-69176000D01*
G37*
G36*
X94932750Y-68666750D02*
G01*
X93430750Y-68666750D01*
X93430750Y-67364750D01*
X94932750Y-67364750D01*
X94932750Y-68666750D01*
X94932750Y-68666750D01*
G37*
G36*
X97132750Y-68666750D02*
G01*
X95630750Y-68666750D01*
X95630750Y-67364750D01*
X97132750Y-67364750D01*
X97132750Y-68666750D01*
X97132750Y-68666750D01*
G37*
G36*
X100628718Y-67394315D02*
G01*
X100667388Y-67406046D01*
X100703027Y-67425096D01*
X100734267Y-67450733D01*
X100759904Y-67481973D01*
X100778954Y-67517612D01*
X100790685Y-67556282D01*
X100795250Y-67602638D01*
X100795250Y-68253862D01*
X100790685Y-68300218D01*
X100778954Y-68338888D01*
X100759904Y-68374527D01*
X100734267Y-68405767D01*
X100703027Y-68431404D01*
X100667388Y-68450454D01*
X100628718Y-68462185D01*
X100582362Y-68466750D01*
X99506138Y-68466750D01*
X99459782Y-68462185D01*
X99421112Y-68450454D01*
X99385473Y-68431404D01*
X99354233Y-68405767D01*
X99328596Y-68374527D01*
X99309546Y-68338888D01*
X99297815Y-68300218D01*
X99293250Y-68253862D01*
X99293250Y-67602638D01*
X99297815Y-67556282D01*
X99309546Y-67517612D01*
X99328596Y-67481973D01*
X99354233Y-67450733D01*
X99385473Y-67425096D01*
X99421112Y-67406046D01*
X99459782Y-67394315D01*
X99506138Y-67389750D01*
X100582362Y-67389750D01*
X100628718Y-67394315D01*
X100628718Y-67394315D01*
G37*
G36*
X91103718Y-67394315D02*
G01*
X91142388Y-67406046D01*
X91178027Y-67425096D01*
X91209267Y-67450733D01*
X91234904Y-67481973D01*
X91253954Y-67517612D01*
X91265685Y-67556282D01*
X91270250Y-67602638D01*
X91270250Y-68253862D01*
X91265685Y-68300218D01*
X91253954Y-68338888D01*
X91234904Y-68374527D01*
X91209267Y-68405767D01*
X91178027Y-68431404D01*
X91142388Y-68450454D01*
X91103718Y-68462185D01*
X91057362Y-68466750D01*
X89981138Y-68466750D01*
X89934782Y-68462185D01*
X89896112Y-68450454D01*
X89860473Y-68431404D01*
X89829233Y-68405767D01*
X89803596Y-68374527D01*
X89784546Y-68338888D01*
X89772815Y-68300218D01*
X89768250Y-68253862D01*
X89768250Y-67602638D01*
X89772815Y-67556282D01*
X89784546Y-67517612D01*
X89803596Y-67481973D01*
X89829233Y-67450733D01*
X89860473Y-67425096D01*
X89896112Y-67406046D01*
X89934782Y-67394315D01*
X89981138Y-67389750D01*
X91057362Y-67389750D01*
X91103718Y-67394315D01*
X91103718Y-67394315D01*
G37*
G36*
X133628627Y-64989261D02*
G01*
X133649400Y-64991000D01*
X133656327Y-64991000D01*
X133751254Y-65009882D01*
X133754848Y-65010542D01*
X133850230Y-65026624D01*
X133856703Y-65029085D01*
X133876728Y-65034841D01*
X133883527Y-65036193D01*
X133945914Y-65062034D01*
X133972943Y-65073230D01*
X133976344Y-65074581D01*
X134066755Y-65108961D01*
X134072627Y-65112640D01*
X134091136Y-65122187D01*
X134097545Y-65124842D01*
X134178063Y-65178642D01*
X134181054Y-65180578D01*
X134263057Y-65231959D01*
X134268084Y-65236700D01*
X134284396Y-65249691D01*
X134290152Y-65253537D01*
X134358610Y-65321995D01*
X134361189Y-65324499D01*
X134431590Y-65390889D01*
X134435595Y-65396519D01*
X134449059Y-65412444D01*
X134453959Y-65417344D01*
X134507744Y-65497839D01*
X134509791Y-65500807D01*
X134565880Y-65579645D01*
X134568714Y-65585958D01*
X134578808Y-65604193D01*
X134582658Y-65609955D01*
X134619720Y-65699430D01*
X134621124Y-65702685D01*
X134660765Y-65790973D01*
X134662315Y-65797725D01*
X134668652Y-65817562D01*
X134671307Y-65823973D01*
X134690192Y-65918917D01*
X134690938Y-65922401D01*
X134712598Y-66016751D01*
X134712598Y-66016754D01*
X134712800Y-66023654D01*
X134715147Y-66044370D01*
X134716500Y-66051174D01*
X134716500Y-66147986D01*
X134716553Y-66151584D01*
X134717688Y-66190277D01*
X134716795Y-66203225D01*
X134716500Y-66211797D01*
X134716500Y-66282826D01*
X134710581Y-66312585D01*
X134710104Y-66314979D01*
X134708000Y-66330750D01*
X134669738Y-66885545D01*
X134640876Y-67056730D01*
X134558538Y-67273255D01*
X134435541Y-67469557D01*
X134276611Y-67638090D01*
X134087855Y-67772380D01*
X133876527Y-67867265D01*
X133650749Y-67919098D01*
X133419198Y-67925889D01*
X133419197Y-67925889D01*
X133373512Y-67918186D01*
X133190770Y-67887376D01*
X132974245Y-67805038D01*
X132777943Y-67682041D01*
X132609410Y-67523111D01*
X132475120Y-67334355D01*
X132380235Y-67123027D01*
X132328402Y-66897249D01*
X132323312Y-66723723D01*
X132364204Y-66130794D01*
X132364500Y-66122196D01*
X132364500Y-66051175D01*
X132383382Y-65956250D01*
X132384044Y-65952645D01*
X132389731Y-65918917D01*
X132400124Y-65857270D01*
X132402585Y-65850799D01*
X132408342Y-65830767D01*
X132409693Y-65823974D01*
X132412343Y-65817576D01*
X132446764Y-65734476D01*
X132448053Y-65731230D01*
X132482462Y-65640745D01*
X132486136Y-65634881D01*
X132495687Y-65616365D01*
X132498342Y-65609955D01*
X132552157Y-65529415D01*
X132554077Y-65526449D01*
X132605459Y-65444443D01*
X132610211Y-65439404D01*
X132623189Y-65423107D01*
X132627037Y-65417348D01*
X132695493Y-65348892D01*
X132698046Y-65346262D01*
X132718523Y-65324548D01*
X132764389Y-65275910D01*
X132770021Y-65271903D01*
X132785947Y-65258438D01*
X132790846Y-65253539D01*
X132871324Y-65199766D01*
X132874306Y-65197710D01*
X132953145Y-65141620D01*
X132959455Y-65138787D01*
X132977694Y-65128691D01*
X132983451Y-65124844D01*
X132983454Y-65124843D01*
X132983455Y-65124842D01*
X133072929Y-65087781D01*
X133076187Y-65086375D01*
X133164473Y-65046735D01*
X133171225Y-65045185D01*
X133191062Y-65038848D01*
X133197473Y-65036193D01*
X133292399Y-65017311D01*
X133295946Y-65016551D01*
X133390251Y-64994901D01*
X133392630Y-64994831D01*
X133397165Y-64994698D01*
X133417881Y-64992351D01*
X133424674Y-64991000D01*
X133521459Y-64991000D01*
X133525084Y-64990947D01*
X133621802Y-64988110D01*
X133628627Y-64989261D01*
X133628627Y-64989261D01*
G37*
G36*
X114578627Y-64989261D02*
G01*
X114599400Y-64991000D01*
X114606327Y-64991000D01*
X114701254Y-65009882D01*
X114704848Y-65010542D01*
X114800230Y-65026624D01*
X114806703Y-65029085D01*
X114826728Y-65034841D01*
X114833527Y-65036193D01*
X114895914Y-65062034D01*
X114922943Y-65073230D01*
X114926344Y-65074581D01*
X115016755Y-65108961D01*
X115022627Y-65112640D01*
X115041136Y-65122187D01*
X115047545Y-65124842D01*
X115128063Y-65178642D01*
X115131054Y-65180578D01*
X115213057Y-65231959D01*
X115218084Y-65236700D01*
X115234396Y-65249691D01*
X115240152Y-65253537D01*
X115308610Y-65321995D01*
X115311189Y-65324499D01*
X115381590Y-65390889D01*
X115385595Y-65396519D01*
X115399059Y-65412444D01*
X115403959Y-65417344D01*
X115457744Y-65497839D01*
X115459791Y-65500807D01*
X115515880Y-65579645D01*
X115518714Y-65585958D01*
X115528808Y-65604193D01*
X115532658Y-65609955D01*
X115569720Y-65699430D01*
X115571124Y-65702685D01*
X115610765Y-65790973D01*
X115612315Y-65797725D01*
X115618652Y-65817562D01*
X115621307Y-65823973D01*
X115640192Y-65918917D01*
X115640938Y-65922401D01*
X115662598Y-66016751D01*
X115662598Y-66016754D01*
X115662800Y-66023654D01*
X115665147Y-66044370D01*
X115666500Y-66051174D01*
X115666500Y-66147986D01*
X115666553Y-66151584D01*
X115667688Y-66190277D01*
X115666795Y-66203225D01*
X115666500Y-66211797D01*
X115666500Y-66282826D01*
X115660581Y-66312585D01*
X115660104Y-66314979D01*
X115658000Y-66330750D01*
X115619738Y-66885545D01*
X115590876Y-67056730D01*
X115508538Y-67273255D01*
X115385541Y-67469557D01*
X115226611Y-67638090D01*
X115037855Y-67772380D01*
X114826527Y-67867265D01*
X114600749Y-67919098D01*
X114369198Y-67925889D01*
X114369197Y-67925889D01*
X114323512Y-67918186D01*
X114140770Y-67887376D01*
X113924245Y-67805038D01*
X113727943Y-67682041D01*
X113559410Y-67523111D01*
X113425120Y-67334355D01*
X113330235Y-67123027D01*
X113278402Y-66897249D01*
X113273312Y-66723723D01*
X113314204Y-66130794D01*
X113314500Y-66122196D01*
X113314500Y-66051175D01*
X113333382Y-65956250D01*
X113334044Y-65952645D01*
X113339731Y-65918917D01*
X113350124Y-65857270D01*
X113352585Y-65850799D01*
X113358342Y-65830767D01*
X113359693Y-65823974D01*
X113362343Y-65817576D01*
X113396764Y-65734476D01*
X113398053Y-65731230D01*
X113432462Y-65640745D01*
X113436136Y-65634881D01*
X113445687Y-65616365D01*
X113448342Y-65609955D01*
X113502157Y-65529415D01*
X113504077Y-65526449D01*
X113555459Y-65444443D01*
X113560211Y-65439404D01*
X113573189Y-65423107D01*
X113577037Y-65417348D01*
X113645493Y-65348892D01*
X113648046Y-65346262D01*
X113668523Y-65324548D01*
X113714389Y-65275910D01*
X113720021Y-65271903D01*
X113735947Y-65258438D01*
X113740846Y-65253539D01*
X113821324Y-65199766D01*
X113824306Y-65197710D01*
X113903145Y-65141620D01*
X113909455Y-65138787D01*
X113927694Y-65128691D01*
X113933451Y-65124844D01*
X113933454Y-65124843D01*
X113933455Y-65124842D01*
X114022929Y-65087781D01*
X114026187Y-65086375D01*
X114114473Y-65046735D01*
X114121225Y-65045185D01*
X114141062Y-65038848D01*
X114147473Y-65036193D01*
X114242399Y-65017311D01*
X114245946Y-65016551D01*
X114340251Y-64994901D01*
X114342630Y-64994831D01*
X114347165Y-64994698D01*
X114367881Y-64992351D01*
X114374674Y-64991000D01*
X114471459Y-64991000D01*
X114475084Y-64990947D01*
X114571802Y-64988110D01*
X114578627Y-64989261D01*
X114578627Y-64989261D01*
G37*
G36*
X86440127Y-62112037D02*
G01*
X86609966Y-62163557D01*
X86766491Y-62247222D01*
X86802229Y-62276552D01*
X86903686Y-62359814D01*
X86986948Y-62461271D01*
X87016278Y-62497009D01*
X87099943Y-62653534D01*
X87151463Y-62823373D01*
X87164500Y-62955742D01*
X87164500Y-64044258D01*
X87151463Y-64176627D01*
X87099943Y-64346466D01*
X87016278Y-64502991D01*
X86986948Y-64538729D01*
X86903686Y-64640186D01*
X86766489Y-64752779D01*
X86609967Y-64836442D01*
X86609965Y-64836443D01*
X86440126Y-64887963D01*
X86263500Y-64905359D01*
X86086873Y-64887963D01*
X85917034Y-64836443D01*
X85760509Y-64752778D01*
X85724771Y-64723448D01*
X85623314Y-64640186D01*
X85510721Y-64502989D01*
X85427058Y-64346467D01*
X85427057Y-64346465D01*
X85375537Y-64176626D01*
X85362500Y-64044257D01*
X85362501Y-62955742D01*
X85375538Y-62823373D01*
X85427058Y-62653534D01*
X85510723Y-62497009D01*
X85540053Y-62461271D01*
X85623315Y-62359814D01*
X85724772Y-62276552D01*
X85760510Y-62247222D01*
X85917035Y-62163557D01*
X86086874Y-62112037D01*
X86263500Y-62094641D01*
X86440127Y-62112037D01*
X86440127Y-62112037D01*
G37*
G36*
X79140127Y-62112037D02*
G01*
X79309966Y-62163557D01*
X79466491Y-62247222D01*
X79502229Y-62276552D01*
X79603686Y-62359814D01*
X79686948Y-62461271D01*
X79716278Y-62497009D01*
X79799943Y-62653534D01*
X79851463Y-62823373D01*
X79864500Y-62955742D01*
X79864500Y-64044258D01*
X79851463Y-64176627D01*
X79799943Y-64346466D01*
X79716278Y-64502991D01*
X79686948Y-64538729D01*
X79603686Y-64640186D01*
X79466489Y-64752779D01*
X79309967Y-64836442D01*
X79309965Y-64836443D01*
X79140126Y-64887963D01*
X78963500Y-64905359D01*
X78786873Y-64887963D01*
X78617034Y-64836443D01*
X78460509Y-64752778D01*
X78424771Y-64723448D01*
X78323314Y-64640186D01*
X78210721Y-64502989D01*
X78127058Y-64346467D01*
X78127057Y-64346465D01*
X78075537Y-64176626D01*
X78062500Y-64044257D01*
X78062501Y-62955742D01*
X78075538Y-62823373D01*
X78127058Y-62653534D01*
X78210723Y-62497009D01*
X78240053Y-62461271D01*
X78323315Y-62359814D01*
X78424772Y-62276552D01*
X78460510Y-62247222D01*
X78617035Y-62163557D01*
X78786874Y-62112037D01*
X78963500Y-62094641D01*
X79140127Y-62112037D01*
X79140127Y-62112037D01*
G37*
M02*
