M48
; DRILL file {KiCad (5.1.4-0-10_14)} date Sunday, 21 March 2021 at 04:55:08
; FORMAT={-:-/ absolute / inch / decimal}
; #@! TF.CreationDate,2021-03-21T04:55:08+00:00
; #@! TF.GenerationSoftware,Kicad,Pcbnew,(5.1.4-0-10_14)
; #@! TF.FileFunction,Plated,1,2,PTH
FMAT,2
INCH
T1C0.0157
T2C0.0276
T3C0.0579
%
G90
G05
T1
X3.2825Y-3.595
X3.3975Y-2.83
X3.4025Y-2.985
X3.4025Y-3.18
X3.4025Y-3.34
X3.5432Y-3.6243
X3.6125Y-2.895
X3.9125Y-3.625
X4.0175Y-3.085
T3
X4.2575Y-3.455
X4.3091Y-3.3975
X4.5059Y-3.3778
X4.5075Y-3.355
X5.0075Y-2.705
X5.0591Y-2.6475
X5.2559Y-2.6278
X5.2575Y-2.605
X5.0075Y-3.455
X5.0591Y-3.3975
X5.2559Y-3.3778
X5.2575Y-3.355
X4.2575Y-2.705
X4.3091Y-2.6475
X4.5059Y-2.6278
X4.5075Y-2.605
T2
G00X3.1088Y-2.4764
M15
G01X3.1088Y-2.5236
M16
G05
G00X3.1088Y-2.6535
M15
G01X3.1088Y-2.7008
M16
G05
G00X3.3962Y-2.4764
M15
G01X3.3962Y-2.5236
M16
G05
G00X3.3962Y-2.6535
M15
G01X3.3962Y-2.7008
M16
G05
T0
M30
