G04 #@! TF.GenerationSoftware,KiCad,Pcbnew,(5.1.4-0-10_14)*
G04 #@! TF.CreationDate,2021-03-21T04:54:58+00:00*
G04 #@! TF.ProjectId,aio3,61696f33-2e6b-4696-9361-645f70636258,rev?*
G04 #@! TF.SameCoordinates,Original*
G04 #@! TF.FileFunction,Paste,Bot*
G04 #@! TF.FilePolarity,Positive*
%FSLAX46Y46*%
G04 Gerber Fmt 4.6, Leading zero omitted, Abs format (unit mm)*
G04 Created by KiCad (PCBNEW (5.1.4-0-10_14)) date 2021-03-21 04:54:58*
%MOMM*%
%LPD*%
G04 APERTURE LIST*
%ADD10R,0.500000X2.250000*%
%ADD11R,1.800000X1.100000*%
%ADD12C,0.100000*%
%ADD13C,0.975000*%
%ADD14R,1.400000X1.200000*%
%ADD15R,0.550000X1.500000*%
%ADD16R,1.500000X0.550000*%
%ADD17R,1.200000X0.900000*%
%ADD18C,1.250000*%
G04 APERTURE END LIST*
D10*
X81013500Y-68000000D03*
X81813500Y-68000000D03*
X82613500Y-68000000D03*
X83413500Y-68000000D03*
X84213500Y-68000000D03*
D11*
X85681750Y-96909500D03*
X79481750Y-93209500D03*
X85681750Y-93209500D03*
X79481750Y-96909500D03*
D12*
G36*
X99661892Y-94360674D02*
G01*
X99685553Y-94364184D01*
X99708757Y-94369996D01*
X99731279Y-94378054D01*
X99752903Y-94388282D01*
X99773420Y-94400579D01*
X99792633Y-94414829D01*
X99810357Y-94430893D01*
X99826421Y-94448617D01*
X99840671Y-94467830D01*
X99852968Y-94488347D01*
X99863196Y-94509971D01*
X99871254Y-94532493D01*
X99877066Y-94555697D01*
X99880576Y-94579358D01*
X99881750Y-94603250D01*
X99881750Y-95515750D01*
X99880576Y-95539642D01*
X99877066Y-95563303D01*
X99871254Y-95586507D01*
X99863196Y-95609029D01*
X99852968Y-95630653D01*
X99840671Y-95651170D01*
X99826421Y-95670383D01*
X99810357Y-95688107D01*
X99792633Y-95704171D01*
X99773420Y-95718421D01*
X99752903Y-95730718D01*
X99731279Y-95740946D01*
X99708757Y-95749004D01*
X99685553Y-95754816D01*
X99661892Y-95758326D01*
X99638000Y-95759500D01*
X99150500Y-95759500D01*
X99126608Y-95758326D01*
X99102947Y-95754816D01*
X99079743Y-95749004D01*
X99057221Y-95740946D01*
X99035597Y-95730718D01*
X99015080Y-95718421D01*
X98995867Y-95704171D01*
X98978143Y-95688107D01*
X98962079Y-95670383D01*
X98947829Y-95651170D01*
X98935532Y-95630653D01*
X98925304Y-95609029D01*
X98917246Y-95586507D01*
X98911434Y-95563303D01*
X98907924Y-95539642D01*
X98906750Y-95515750D01*
X98906750Y-94603250D01*
X98907924Y-94579358D01*
X98911434Y-94555697D01*
X98917246Y-94532493D01*
X98925304Y-94509971D01*
X98935532Y-94488347D01*
X98947829Y-94467830D01*
X98962079Y-94448617D01*
X98978143Y-94430893D01*
X98995867Y-94414829D01*
X99015080Y-94400579D01*
X99035597Y-94388282D01*
X99057221Y-94378054D01*
X99079743Y-94369996D01*
X99102947Y-94364184D01*
X99126608Y-94360674D01*
X99150500Y-94359500D01*
X99638000Y-94359500D01*
X99661892Y-94360674D01*
X99661892Y-94360674D01*
G37*
D13*
X99394250Y-95059500D03*
D12*
G36*
X97786892Y-94360674D02*
G01*
X97810553Y-94364184D01*
X97833757Y-94369996D01*
X97856279Y-94378054D01*
X97877903Y-94388282D01*
X97898420Y-94400579D01*
X97917633Y-94414829D01*
X97935357Y-94430893D01*
X97951421Y-94448617D01*
X97965671Y-94467830D01*
X97977968Y-94488347D01*
X97988196Y-94509971D01*
X97996254Y-94532493D01*
X98002066Y-94555697D01*
X98005576Y-94579358D01*
X98006750Y-94603250D01*
X98006750Y-95515750D01*
X98005576Y-95539642D01*
X98002066Y-95563303D01*
X97996254Y-95586507D01*
X97988196Y-95609029D01*
X97977968Y-95630653D01*
X97965671Y-95651170D01*
X97951421Y-95670383D01*
X97935357Y-95688107D01*
X97917633Y-95704171D01*
X97898420Y-95718421D01*
X97877903Y-95730718D01*
X97856279Y-95740946D01*
X97833757Y-95749004D01*
X97810553Y-95754816D01*
X97786892Y-95758326D01*
X97763000Y-95759500D01*
X97275500Y-95759500D01*
X97251608Y-95758326D01*
X97227947Y-95754816D01*
X97204743Y-95749004D01*
X97182221Y-95740946D01*
X97160597Y-95730718D01*
X97140080Y-95718421D01*
X97120867Y-95704171D01*
X97103143Y-95688107D01*
X97087079Y-95670383D01*
X97072829Y-95651170D01*
X97060532Y-95630653D01*
X97050304Y-95609029D01*
X97042246Y-95586507D01*
X97036434Y-95563303D01*
X97032924Y-95539642D01*
X97031750Y-95515750D01*
X97031750Y-94603250D01*
X97032924Y-94579358D01*
X97036434Y-94555697D01*
X97042246Y-94532493D01*
X97050304Y-94509971D01*
X97060532Y-94488347D01*
X97072829Y-94467830D01*
X97087079Y-94448617D01*
X97103143Y-94430893D01*
X97120867Y-94414829D01*
X97140080Y-94400579D01*
X97160597Y-94388282D01*
X97182221Y-94378054D01*
X97204743Y-94369996D01*
X97227947Y-94364184D01*
X97251608Y-94360674D01*
X97275500Y-94359500D01*
X97763000Y-94359500D01*
X97786892Y-94360674D01*
X97786892Y-94360674D01*
G37*
D13*
X97519250Y-95059500D03*
D14*
X96381750Y-68015750D03*
X94181750Y-68015750D03*
X94181750Y-69715750D03*
X96381750Y-69715750D03*
D15*
X90488000Y-87265750D03*
X91288000Y-87265750D03*
X92088000Y-87265750D03*
X92888000Y-87265750D03*
X93688000Y-87265750D03*
X94488000Y-87265750D03*
X95288000Y-87265750D03*
X96088000Y-87265750D03*
X96888000Y-87265750D03*
X97688000Y-87265750D03*
X98488000Y-87265750D03*
D16*
X100188000Y-85565750D03*
X100188000Y-84765750D03*
X100188000Y-83965750D03*
X100188000Y-83165750D03*
X100188000Y-82365750D03*
X100188000Y-81565750D03*
X100188000Y-80765750D03*
X100188000Y-79965750D03*
X100188000Y-79165750D03*
X100188000Y-78365750D03*
X100188000Y-77565750D03*
D15*
X98488000Y-75865750D03*
X97688000Y-75865750D03*
X96888000Y-75865750D03*
X96088000Y-75865750D03*
X95288000Y-75865750D03*
X94488000Y-75865750D03*
X93688000Y-75865750D03*
X92888000Y-75865750D03*
X92088000Y-75865750D03*
X91288000Y-75865750D03*
X90488000Y-75865750D03*
D16*
X88788000Y-77565750D03*
X88788000Y-78365750D03*
X88788000Y-79165750D03*
X88788000Y-79965750D03*
X88788000Y-80765750D03*
X88788000Y-81565750D03*
X88788000Y-82365750D03*
X88788000Y-83165750D03*
X88788000Y-83965750D03*
X88788000Y-84765750D03*
X88788000Y-85565750D03*
D12*
G36*
X88427642Y-71347174D02*
G01*
X88451303Y-71350684D01*
X88474507Y-71356496D01*
X88497029Y-71364554D01*
X88518653Y-71374782D01*
X88539170Y-71387079D01*
X88558383Y-71401329D01*
X88576107Y-71417393D01*
X88592171Y-71435117D01*
X88606421Y-71454330D01*
X88618718Y-71474847D01*
X88628946Y-71496471D01*
X88637004Y-71518993D01*
X88642816Y-71542197D01*
X88646326Y-71565858D01*
X88647500Y-71589750D01*
X88647500Y-72077250D01*
X88646326Y-72101142D01*
X88642816Y-72124803D01*
X88637004Y-72148007D01*
X88628946Y-72170529D01*
X88618718Y-72192153D01*
X88606421Y-72212670D01*
X88592171Y-72231883D01*
X88576107Y-72249607D01*
X88558383Y-72265671D01*
X88539170Y-72279921D01*
X88518653Y-72292218D01*
X88497029Y-72302446D01*
X88474507Y-72310504D01*
X88451303Y-72316316D01*
X88427642Y-72319826D01*
X88403750Y-72321000D01*
X87491250Y-72321000D01*
X87467358Y-72319826D01*
X87443697Y-72316316D01*
X87420493Y-72310504D01*
X87397971Y-72302446D01*
X87376347Y-72292218D01*
X87355830Y-72279921D01*
X87336617Y-72265671D01*
X87318893Y-72249607D01*
X87302829Y-72231883D01*
X87288579Y-72212670D01*
X87276282Y-72192153D01*
X87266054Y-72170529D01*
X87257996Y-72148007D01*
X87252184Y-72124803D01*
X87248674Y-72101142D01*
X87247500Y-72077250D01*
X87247500Y-71589750D01*
X87248674Y-71565858D01*
X87252184Y-71542197D01*
X87257996Y-71518993D01*
X87266054Y-71496471D01*
X87276282Y-71474847D01*
X87288579Y-71454330D01*
X87302829Y-71435117D01*
X87318893Y-71417393D01*
X87336617Y-71401329D01*
X87355830Y-71387079D01*
X87376347Y-71374782D01*
X87397971Y-71364554D01*
X87420493Y-71356496D01*
X87443697Y-71350684D01*
X87467358Y-71347174D01*
X87491250Y-71346000D01*
X88403750Y-71346000D01*
X88427642Y-71347174D01*
X88427642Y-71347174D01*
G37*
D13*
X87947500Y-71833500D03*
D12*
G36*
X88427642Y-73222174D02*
G01*
X88451303Y-73225684D01*
X88474507Y-73231496D01*
X88497029Y-73239554D01*
X88518653Y-73249782D01*
X88539170Y-73262079D01*
X88558383Y-73276329D01*
X88576107Y-73292393D01*
X88592171Y-73310117D01*
X88606421Y-73329330D01*
X88618718Y-73349847D01*
X88628946Y-73371471D01*
X88637004Y-73393993D01*
X88642816Y-73417197D01*
X88646326Y-73440858D01*
X88647500Y-73464750D01*
X88647500Y-73952250D01*
X88646326Y-73976142D01*
X88642816Y-73999803D01*
X88637004Y-74023007D01*
X88628946Y-74045529D01*
X88618718Y-74067153D01*
X88606421Y-74087670D01*
X88592171Y-74106883D01*
X88576107Y-74124607D01*
X88558383Y-74140671D01*
X88539170Y-74154921D01*
X88518653Y-74167218D01*
X88497029Y-74177446D01*
X88474507Y-74185504D01*
X88451303Y-74191316D01*
X88427642Y-74194826D01*
X88403750Y-74196000D01*
X87491250Y-74196000D01*
X87467358Y-74194826D01*
X87443697Y-74191316D01*
X87420493Y-74185504D01*
X87397971Y-74177446D01*
X87376347Y-74167218D01*
X87355830Y-74154921D01*
X87336617Y-74140671D01*
X87318893Y-74124607D01*
X87302829Y-74106883D01*
X87288579Y-74087670D01*
X87276282Y-74067153D01*
X87266054Y-74045529D01*
X87257996Y-74023007D01*
X87252184Y-73999803D01*
X87248674Y-73976142D01*
X87247500Y-73952250D01*
X87247500Y-73464750D01*
X87248674Y-73440858D01*
X87252184Y-73417197D01*
X87257996Y-73393993D01*
X87266054Y-73371471D01*
X87276282Y-73349847D01*
X87288579Y-73329330D01*
X87302829Y-73310117D01*
X87318893Y-73292393D01*
X87336617Y-73276329D01*
X87355830Y-73262079D01*
X87376347Y-73249782D01*
X87397971Y-73239554D01*
X87420493Y-73231496D01*
X87443697Y-73225684D01*
X87467358Y-73222174D01*
X87491250Y-73221000D01*
X88403750Y-73221000D01*
X88427642Y-73222174D01*
X88427642Y-73222174D01*
G37*
D13*
X87947500Y-73708500D03*
D12*
G36*
X84649392Y-71410674D02*
G01*
X84673053Y-71414184D01*
X84696257Y-71419996D01*
X84718779Y-71428054D01*
X84740403Y-71438282D01*
X84760920Y-71450579D01*
X84780133Y-71464829D01*
X84797857Y-71480893D01*
X84813921Y-71498617D01*
X84828171Y-71517830D01*
X84840468Y-71538347D01*
X84850696Y-71559971D01*
X84858754Y-71582493D01*
X84864566Y-71605697D01*
X84868076Y-71629358D01*
X84869250Y-71653250D01*
X84869250Y-72140750D01*
X84868076Y-72164642D01*
X84864566Y-72188303D01*
X84858754Y-72211507D01*
X84850696Y-72234029D01*
X84840468Y-72255653D01*
X84828171Y-72276170D01*
X84813921Y-72295383D01*
X84797857Y-72313107D01*
X84780133Y-72329171D01*
X84760920Y-72343421D01*
X84740403Y-72355718D01*
X84718779Y-72365946D01*
X84696257Y-72374004D01*
X84673053Y-72379816D01*
X84649392Y-72383326D01*
X84625500Y-72384500D01*
X83713000Y-72384500D01*
X83689108Y-72383326D01*
X83665447Y-72379816D01*
X83642243Y-72374004D01*
X83619721Y-72365946D01*
X83598097Y-72355718D01*
X83577580Y-72343421D01*
X83558367Y-72329171D01*
X83540643Y-72313107D01*
X83524579Y-72295383D01*
X83510329Y-72276170D01*
X83498032Y-72255653D01*
X83487804Y-72234029D01*
X83479746Y-72211507D01*
X83473934Y-72188303D01*
X83470424Y-72164642D01*
X83469250Y-72140750D01*
X83469250Y-71653250D01*
X83470424Y-71629358D01*
X83473934Y-71605697D01*
X83479746Y-71582493D01*
X83487804Y-71559971D01*
X83498032Y-71538347D01*
X83510329Y-71517830D01*
X83524579Y-71498617D01*
X83540643Y-71480893D01*
X83558367Y-71464829D01*
X83577580Y-71450579D01*
X83598097Y-71438282D01*
X83619721Y-71428054D01*
X83642243Y-71419996D01*
X83665447Y-71414184D01*
X83689108Y-71410674D01*
X83713000Y-71409500D01*
X84625500Y-71409500D01*
X84649392Y-71410674D01*
X84649392Y-71410674D01*
G37*
D13*
X84169250Y-71897000D03*
D12*
G36*
X84649392Y-73285674D02*
G01*
X84673053Y-73289184D01*
X84696257Y-73294996D01*
X84718779Y-73303054D01*
X84740403Y-73313282D01*
X84760920Y-73325579D01*
X84780133Y-73339829D01*
X84797857Y-73355893D01*
X84813921Y-73373617D01*
X84828171Y-73392830D01*
X84840468Y-73413347D01*
X84850696Y-73434971D01*
X84858754Y-73457493D01*
X84864566Y-73480697D01*
X84868076Y-73504358D01*
X84869250Y-73528250D01*
X84869250Y-74015750D01*
X84868076Y-74039642D01*
X84864566Y-74063303D01*
X84858754Y-74086507D01*
X84850696Y-74109029D01*
X84840468Y-74130653D01*
X84828171Y-74151170D01*
X84813921Y-74170383D01*
X84797857Y-74188107D01*
X84780133Y-74204171D01*
X84760920Y-74218421D01*
X84740403Y-74230718D01*
X84718779Y-74240946D01*
X84696257Y-74249004D01*
X84673053Y-74254816D01*
X84649392Y-74258326D01*
X84625500Y-74259500D01*
X83713000Y-74259500D01*
X83689108Y-74258326D01*
X83665447Y-74254816D01*
X83642243Y-74249004D01*
X83619721Y-74240946D01*
X83598097Y-74230718D01*
X83577580Y-74218421D01*
X83558367Y-74204171D01*
X83540643Y-74188107D01*
X83524579Y-74170383D01*
X83510329Y-74151170D01*
X83498032Y-74130653D01*
X83487804Y-74109029D01*
X83479746Y-74086507D01*
X83473934Y-74063303D01*
X83470424Y-74039642D01*
X83469250Y-74015750D01*
X83469250Y-73528250D01*
X83470424Y-73504358D01*
X83473934Y-73480697D01*
X83479746Y-73457493D01*
X83487804Y-73434971D01*
X83498032Y-73413347D01*
X83510329Y-73392830D01*
X83524579Y-73373617D01*
X83540643Y-73355893D01*
X83558367Y-73339829D01*
X83577580Y-73325579D01*
X83598097Y-73313282D01*
X83619721Y-73303054D01*
X83642243Y-73294996D01*
X83665447Y-73289184D01*
X83689108Y-73285674D01*
X83713000Y-73284500D01*
X84625500Y-73284500D01*
X84649392Y-73285674D01*
X84649392Y-73285674D01*
G37*
D13*
X84169250Y-73772000D03*
D12*
G36*
X97786892Y-89598174D02*
G01*
X97810553Y-89601684D01*
X97833757Y-89607496D01*
X97856279Y-89615554D01*
X97877903Y-89625782D01*
X97898420Y-89638079D01*
X97917633Y-89652329D01*
X97935357Y-89668393D01*
X97951421Y-89686117D01*
X97965671Y-89705330D01*
X97977968Y-89725847D01*
X97988196Y-89747471D01*
X97996254Y-89769993D01*
X98002066Y-89793197D01*
X98005576Y-89816858D01*
X98006750Y-89840750D01*
X98006750Y-90753250D01*
X98005576Y-90777142D01*
X98002066Y-90800803D01*
X97996254Y-90824007D01*
X97988196Y-90846529D01*
X97977968Y-90868153D01*
X97965671Y-90888670D01*
X97951421Y-90907883D01*
X97935357Y-90925607D01*
X97917633Y-90941671D01*
X97898420Y-90955921D01*
X97877903Y-90968218D01*
X97856279Y-90978446D01*
X97833757Y-90986504D01*
X97810553Y-90992316D01*
X97786892Y-90995826D01*
X97763000Y-90997000D01*
X97275500Y-90997000D01*
X97251608Y-90995826D01*
X97227947Y-90992316D01*
X97204743Y-90986504D01*
X97182221Y-90978446D01*
X97160597Y-90968218D01*
X97140080Y-90955921D01*
X97120867Y-90941671D01*
X97103143Y-90925607D01*
X97087079Y-90907883D01*
X97072829Y-90888670D01*
X97060532Y-90868153D01*
X97050304Y-90846529D01*
X97042246Y-90824007D01*
X97036434Y-90800803D01*
X97032924Y-90777142D01*
X97031750Y-90753250D01*
X97031750Y-89840750D01*
X97032924Y-89816858D01*
X97036434Y-89793197D01*
X97042246Y-89769993D01*
X97050304Y-89747471D01*
X97060532Y-89725847D01*
X97072829Y-89705330D01*
X97087079Y-89686117D01*
X97103143Y-89668393D01*
X97120867Y-89652329D01*
X97140080Y-89638079D01*
X97160597Y-89625782D01*
X97182221Y-89615554D01*
X97204743Y-89607496D01*
X97227947Y-89601684D01*
X97251608Y-89598174D01*
X97275500Y-89597000D01*
X97763000Y-89597000D01*
X97786892Y-89598174D01*
X97786892Y-89598174D01*
G37*
D13*
X97519250Y-90297000D03*
D12*
G36*
X99661892Y-89598174D02*
G01*
X99685553Y-89601684D01*
X99708757Y-89607496D01*
X99731279Y-89615554D01*
X99752903Y-89625782D01*
X99773420Y-89638079D01*
X99792633Y-89652329D01*
X99810357Y-89668393D01*
X99826421Y-89686117D01*
X99840671Y-89705330D01*
X99852968Y-89725847D01*
X99863196Y-89747471D01*
X99871254Y-89769993D01*
X99877066Y-89793197D01*
X99880576Y-89816858D01*
X99881750Y-89840750D01*
X99881750Y-90753250D01*
X99880576Y-90777142D01*
X99877066Y-90800803D01*
X99871254Y-90824007D01*
X99863196Y-90846529D01*
X99852968Y-90868153D01*
X99840671Y-90888670D01*
X99826421Y-90907883D01*
X99810357Y-90925607D01*
X99792633Y-90941671D01*
X99773420Y-90955921D01*
X99752903Y-90968218D01*
X99731279Y-90978446D01*
X99708757Y-90986504D01*
X99685553Y-90992316D01*
X99661892Y-90995826D01*
X99638000Y-90997000D01*
X99150500Y-90997000D01*
X99126608Y-90995826D01*
X99102947Y-90992316D01*
X99079743Y-90986504D01*
X99057221Y-90978446D01*
X99035597Y-90968218D01*
X99015080Y-90955921D01*
X98995867Y-90941671D01*
X98978143Y-90925607D01*
X98962079Y-90907883D01*
X98947829Y-90888670D01*
X98935532Y-90868153D01*
X98925304Y-90846529D01*
X98917246Y-90824007D01*
X98911434Y-90800803D01*
X98907924Y-90777142D01*
X98906750Y-90753250D01*
X98906750Y-89840750D01*
X98907924Y-89816858D01*
X98911434Y-89793197D01*
X98917246Y-89769993D01*
X98925304Y-89747471D01*
X98935532Y-89725847D01*
X98947829Y-89705330D01*
X98962079Y-89686117D01*
X98978143Y-89668393D01*
X98995867Y-89652329D01*
X99015080Y-89638079D01*
X99035597Y-89625782D01*
X99057221Y-89615554D01*
X99079743Y-89607496D01*
X99102947Y-89601684D01*
X99126608Y-89598174D01*
X99150500Y-89597000D01*
X99638000Y-89597000D01*
X99661892Y-89598174D01*
X99661892Y-89598174D01*
G37*
D13*
X99394250Y-90297000D03*
D17*
X138938000Y-72897000D03*
X138938000Y-69597000D03*
D12*
G36*
X85443142Y-77254424D02*
G01*
X85466803Y-77257934D01*
X85490007Y-77263746D01*
X85512529Y-77271804D01*
X85534153Y-77282032D01*
X85554670Y-77294329D01*
X85573883Y-77308579D01*
X85591607Y-77324643D01*
X85607671Y-77342367D01*
X85621921Y-77361580D01*
X85634218Y-77382097D01*
X85644446Y-77403721D01*
X85652504Y-77426243D01*
X85658316Y-77449447D01*
X85661826Y-77473108D01*
X85663000Y-77497000D01*
X85663000Y-77984500D01*
X85661826Y-78008392D01*
X85658316Y-78032053D01*
X85652504Y-78055257D01*
X85644446Y-78077779D01*
X85634218Y-78099403D01*
X85621921Y-78119920D01*
X85607671Y-78139133D01*
X85591607Y-78156857D01*
X85573883Y-78172921D01*
X85554670Y-78187171D01*
X85534153Y-78199468D01*
X85512529Y-78209696D01*
X85490007Y-78217754D01*
X85466803Y-78223566D01*
X85443142Y-78227076D01*
X85419250Y-78228250D01*
X84506750Y-78228250D01*
X84482858Y-78227076D01*
X84459197Y-78223566D01*
X84435993Y-78217754D01*
X84413471Y-78209696D01*
X84391847Y-78199468D01*
X84371330Y-78187171D01*
X84352117Y-78172921D01*
X84334393Y-78156857D01*
X84318329Y-78139133D01*
X84304079Y-78119920D01*
X84291782Y-78099403D01*
X84281554Y-78077779D01*
X84273496Y-78055257D01*
X84267684Y-78032053D01*
X84264174Y-78008392D01*
X84263000Y-77984500D01*
X84263000Y-77497000D01*
X84264174Y-77473108D01*
X84267684Y-77449447D01*
X84273496Y-77426243D01*
X84281554Y-77403721D01*
X84291782Y-77382097D01*
X84304079Y-77361580D01*
X84318329Y-77342367D01*
X84334393Y-77324643D01*
X84352117Y-77308579D01*
X84371330Y-77294329D01*
X84391847Y-77282032D01*
X84413471Y-77271804D01*
X84435993Y-77263746D01*
X84459197Y-77257934D01*
X84482858Y-77254424D01*
X84506750Y-77253250D01*
X85419250Y-77253250D01*
X85443142Y-77254424D01*
X85443142Y-77254424D01*
G37*
D13*
X84963000Y-77740750D03*
D12*
G36*
X85443142Y-75379424D02*
G01*
X85466803Y-75382934D01*
X85490007Y-75388746D01*
X85512529Y-75396804D01*
X85534153Y-75407032D01*
X85554670Y-75419329D01*
X85573883Y-75433579D01*
X85591607Y-75449643D01*
X85607671Y-75467367D01*
X85621921Y-75486580D01*
X85634218Y-75507097D01*
X85644446Y-75528721D01*
X85652504Y-75551243D01*
X85658316Y-75574447D01*
X85661826Y-75598108D01*
X85663000Y-75622000D01*
X85663000Y-76109500D01*
X85661826Y-76133392D01*
X85658316Y-76157053D01*
X85652504Y-76180257D01*
X85644446Y-76202779D01*
X85634218Y-76224403D01*
X85621921Y-76244920D01*
X85607671Y-76264133D01*
X85591607Y-76281857D01*
X85573883Y-76297921D01*
X85554670Y-76312171D01*
X85534153Y-76324468D01*
X85512529Y-76334696D01*
X85490007Y-76342754D01*
X85466803Y-76348566D01*
X85443142Y-76352076D01*
X85419250Y-76353250D01*
X84506750Y-76353250D01*
X84482858Y-76352076D01*
X84459197Y-76348566D01*
X84435993Y-76342754D01*
X84413471Y-76334696D01*
X84391847Y-76324468D01*
X84371330Y-76312171D01*
X84352117Y-76297921D01*
X84334393Y-76281857D01*
X84318329Y-76264133D01*
X84304079Y-76244920D01*
X84291782Y-76224403D01*
X84281554Y-76202779D01*
X84273496Y-76180257D01*
X84267684Y-76157053D01*
X84264174Y-76133392D01*
X84263000Y-76109500D01*
X84263000Y-75622000D01*
X84264174Y-75598108D01*
X84267684Y-75574447D01*
X84273496Y-75551243D01*
X84281554Y-75528721D01*
X84291782Y-75507097D01*
X84304079Y-75486580D01*
X84318329Y-75467367D01*
X84334393Y-75449643D01*
X84352117Y-75433579D01*
X84371330Y-75419329D01*
X84391847Y-75407032D01*
X84413471Y-75396804D01*
X84435993Y-75388746D01*
X84459197Y-75382934D01*
X84482858Y-75379424D01*
X84506750Y-75378250D01*
X85419250Y-75378250D01*
X85443142Y-75379424D01*
X85443142Y-75379424D01*
G37*
D13*
X84963000Y-75865750D03*
D12*
G36*
X80680642Y-71410674D02*
G01*
X80704303Y-71414184D01*
X80727507Y-71419996D01*
X80750029Y-71428054D01*
X80771653Y-71438282D01*
X80792170Y-71450579D01*
X80811383Y-71464829D01*
X80829107Y-71480893D01*
X80845171Y-71498617D01*
X80859421Y-71517830D01*
X80871718Y-71538347D01*
X80881946Y-71559971D01*
X80890004Y-71582493D01*
X80895816Y-71605697D01*
X80899326Y-71629358D01*
X80900500Y-71653250D01*
X80900500Y-72140750D01*
X80899326Y-72164642D01*
X80895816Y-72188303D01*
X80890004Y-72211507D01*
X80881946Y-72234029D01*
X80871718Y-72255653D01*
X80859421Y-72276170D01*
X80845171Y-72295383D01*
X80829107Y-72313107D01*
X80811383Y-72329171D01*
X80792170Y-72343421D01*
X80771653Y-72355718D01*
X80750029Y-72365946D01*
X80727507Y-72374004D01*
X80704303Y-72379816D01*
X80680642Y-72383326D01*
X80656750Y-72384500D01*
X79744250Y-72384500D01*
X79720358Y-72383326D01*
X79696697Y-72379816D01*
X79673493Y-72374004D01*
X79650971Y-72365946D01*
X79629347Y-72355718D01*
X79608830Y-72343421D01*
X79589617Y-72329171D01*
X79571893Y-72313107D01*
X79555829Y-72295383D01*
X79541579Y-72276170D01*
X79529282Y-72255653D01*
X79519054Y-72234029D01*
X79510996Y-72211507D01*
X79505184Y-72188303D01*
X79501674Y-72164642D01*
X79500500Y-72140750D01*
X79500500Y-71653250D01*
X79501674Y-71629358D01*
X79505184Y-71605697D01*
X79510996Y-71582493D01*
X79519054Y-71559971D01*
X79529282Y-71538347D01*
X79541579Y-71517830D01*
X79555829Y-71498617D01*
X79571893Y-71480893D01*
X79589617Y-71464829D01*
X79608830Y-71450579D01*
X79629347Y-71438282D01*
X79650971Y-71428054D01*
X79673493Y-71419996D01*
X79696697Y-71414184D01*
X79720358Y-71410674D01*
X79744250Y-71409500D01*
X80656750Y-71409500D01*
X80680642Y-71410674D01*
X80680642Y-71410674D01*
G37*
D13*
X80200500Y-71897000D03*
D12*
G36*
X80680642Y-73285674D02*
G01*
X80704303Y-73289184D01*
X80727507Y-73294996D01*
X80750029Y-73303054D01*
X80771653Y-73313282D01*
X80792170Y-73325579D01*
X80811383Y-73339829D01*
X80829107Y-73355893D01*
X80845171Y-73373617D01*
X80859421Y-73392830D01*
X80871718Y-73413347D01*
X80881946Y-73434971D01*
X80890004Y-73457493D01*
X80895816Y-73480697D01*
X80899326Y-73504358D01*
X80900500Y-73528250D01*
X80900500Y-74015750D01*
X80899326Y-74039642D01*
X80895816Y-74063303D01*
X80890004Y-74086507D01*
X80881946Y-74109029D01*
X80871718Y-74130653D01*
X80859421Y-74151170D01*
X80845171Y-74170383D01*
X80829107Y-74188107D01*
X80811383Y-74204171D01*
X80792170Y-74218421D01*
X80771653Y-74230718D01*
X80750029Y-74240946D01*
X80727507Y-74249004D01*
X80704303Y-74254816D01*
X80680642Y-74258326D01*
X80656750Y-74259500D01*
X79744250Y-74259500D01*
X79720358Y-74258326D01*
X79696697Y-74254816D01*
X79673493Y-74249004D01*
X79650971Y-74240946D01*
X79629347Y-74230718D01*
X79608830Y-74218421D01*
X79589617Y-74204171D01*
X79571893Y-74188107D01*
X79555829Y-74170383D01*
X79541579Y-74151170D01*
X79529282Y-74130653D01*
X79519054Y-74109029D01*
X79510996Y-74086507D01*
X79505184Y-74063303D01*
X79501674Y-74039642D01*
X79500500Y-74015750D01*
X79500500Y-73528250D01*
X79501674Y-73504358D01*
X79505184Y-73480697D01*
X79510996Y-73457493D01*
X79519054Y-73434971D01*
X79529282Y-73413347D01*
X79541579Y-73392830D01*
X79555829Y-73373617D01*
X79571893Y-73355893D01*
X79589617Y-73339829D01*
X79608830Y-73325579D01*
X79629347Y-73313282D01*
X79650971Y-73303054D01*
X79673493Y-73294996D01*
X79696697Y-73289184D01*
X79720358Y-73285674D01*
X79744250Y-73284500D01*
X80656750Y-73284500D01*
X80680642Y-73285674D01*
X80680642Y-73285674D01*
G37*
D13*
X80200500Y-73772000D03*
D12*
G36*
X92200642Y-89852174D02*
G01*
X92224303Y-89855684D01*
X92247507Y-89861496D01*
X92270029Y-89869554D01*
X92291653Y-89879782D01*
X92312170Y-89892079D01*
X92331383Y-89906329D01*
X92349107Y-89922393D01*
X92365171Y-89940117D01*
X92379421Y-89959330D01*
X92391718Y-89979847D01*
X92401946Y-90001471D01*
X92410004Y-90023993D01*
X92415816Y-90047197D01*
X92419326Y-90070858D01*
X92420500Y-90094750D01*
X92420500Y-91007250D01*
X92419326Y-91031142D01*
X92415816Y-91054803D01*
X92410004Y-91078007D01*
X92401946Y-91100529D01*
X92391718Y-91122153D01*
X92379421Y-91142670D01*
X92365171Y-91161883D01*
X92349107Y-91179607D01*
X92331383Y-91195671D01*
X92312170Y-91209921D01*
X92291653Y-91222218D01*
X92270029Y-91232446D01*
X92247507Y-91240504D01*
X92224303Y-91246316D01*
X92200642Y-91249826D01*
X92176750Y-91251000D01*
X91689250Y-91251000D01*
X91665358Y-91249826D01*
X91641697Y-91246316D01*
X91618493Y-91240504D01*
X91595971Y-91232446D01*
X91574347Y-91222218D01*
X91553830Y-91209921D01*
X91534617Y-91195671D01*
X91516893Y-91179607D01*
X91500829Y-91161883D01*
X91486579Y-91142670D01*
X91474282Y-91122153D01*
X91464054Y-91100529D01*
X91455996Y-91078007D01*
X91450184Y-91054803D01*
X91446674Y-91031142D01*
X91445500Y-91007250D01*
X91445500Y-90094750D01*
X91446674Y-90070858D01*
X91450184Y-90047197D01*
X91455996Y-90023993D01*
X91464054Y-90001471D01*
X91474282Y-89979847D01*
X91486579Y-89959330D01*
X91500829Y-89940117D01*
X91516893Y-89922393D01*
X91534617Y-89906329D01*
X91553830Y-89892079D01*
X91574347Y-89879782D01*
X91595971Y-89869554D01*
X91618493Y-89861496D01*
X91641697Y-89855684D01*
X91665358Y-89852174D01*
X91689250Y-89851000D01*
X92176750Y-89851000D01*
X92200642Y-89852174D01*
X92200642Y-89852174D01*
G37*
D13*
X91933000Y-90551000D03*
D12*
G36*
X90325642Y-89852174D02*
G01*
X90349303Y-89855684D01*
X90372507Y-89861496D01*
X90395029Y-89869554D01*
X90416653Y-89879782D01*
X90437170Y-89892079D01*
X90456383Y-89906329D01*
X90474107Y-89922393D01*
X90490171Y-89940117D01*
X90504421Y-89959330D01*
X90516718Y-89979847D01*
X90526946Y-90001471D01*
X90535004Y-90023993D01*
X90540816Y-90047197D01*
X90544326Y-90070858D01*
X90545500Y-90094750D01*
X90545500Y-91007250D01*
X90544326Y-91031142D01*
X90540816Y-91054803D01*
X90535004Y-91078007D01*
X90526946Y-91100529D01*
X90516718Y-91122153D01*
X90504421Y-91142670D01*
X90490171Y-91161883D01*
X90474107Y-91179607D01*
X90456383Y-91195671D01*
X90437170Y-91209921D01*
X90416653Y-91222218D01*
X90395029Y-91232446D01*
X90372507Y-91240504D01*
X90349303Y-91246316D01*
X90325642Y-91249826D01*
X90301750Y-91251000D01*
X89814250Y-91251000D01*
X89790358Y-91249826D01*
X89766697Y-91246316D01*
X89743493Y-91240504D01*
X89720971Y-91232446D01*
X89699347Y-91222218D01*
X89678830Y-91209921D01*
X89659617Y-91195671D01*
X89641893Y-91179607D01*
X89625829Y-91161883D01*
X89611579Y-91142670D01*
X89599282Y-91122153D01*
X89589054Y-91100529D01*
X89580996Y-91078007D01*
X89575184Y-91054803D01*
X89571674Y-91031142D01*
X89570500Y-91007250D01*
X89570500Y-90094750D01*
X89571674Y-90070858D01*
X89575184Y-90047197D01*
X89580996Y-90023993D01*
X89589054Y-90001471D01*
X89599282Y-89979847D01*
X89611579Y-89959330D01*
X89625829Y-89940117D01*
X89641893Y-89922393D01*
X89659617Y-89906329D01*
X89678830Y-89892079D01*
X89699347Y-89879782D01*
X89720971Y-89869554D01*
X89743493Y-89861496D01*
X89766697Y-89855684D01*
X89790358Y-89852174D01*
X89814250Y-89851000D01*
X90301750Y-89851000D01*
X90325642Y-89852174D01*
X90325642Y-89852174D01*
G37*
D13*
X90058000Y-90551000D03*
D12*
G36*
X100524392Y-67441924D02*
G01*
X100548053Y-67445434D01*
X100571257Y-67451246D01*
X100593779Y-67459304D01*
X100615403Y-67469532D01*
X100635920Y-67481829D01*
X100655133Y-67496079D01*
X100672857Y-67512143D01*
X100688921Y-67529867D01*
X100703171Y-67549080D01*
X100715468Y-67569597D01*
X100725696Y-67591221D01*
X100733754Y-67613743D01*
X100739566Y-67636947D01*
X100743076Y-67660608D01*
X100744250Y-67684500D01*
X100744250Y-68172000D01*
X100743076Y-68195892D01*
X100739566Y-68219553D01*
X100733754Y-68242757D01*
X100725696Y-68265279D01*
X100715468Y-68286903D01*
X100703171Y-68307420D01*
X100688921Y-68326633D01*
X100672857Y-68344357D01*
X100655133Y-68360421D01*
X100635920Y-68374671D01*
X100615403Y-68386968D01*
X100593779Y-68397196D01*
X100571257Y-68405254D01*
X100548053Y-68411066D01*
X100524392Y-68414576D01*
X100500500Y-68415750D01*
X99588000Y-68415750D01*
X99564108Y-68414576D01*
X99540447Y-68411066D01*
X99517243Y-68405254D01*
X99494721Y-68397196D01*
X99473097Y-68386968D01*
X99452580Y-68374671D01*
X99433367Y-68360421D01*
X99415643Y-68344357D01*
X99399579Y-68326633D01*
X99385329Y-68307420D01*
X99373032Y-68286903D01*
X99362804Y-68265279D01*
X99354746Y-68242757D01*
X99348934Y-68219553D01*
X99345424Y-68195892D01*
X99344250Y-68172000D01*
X99344250Y-67684500D01*
X99345424Y-67660608D01*
X99348934Y-67636947D01*
X99354746Y-67613743D01*
X99362804Y-67591221D01*
X99373032Y-67569597D01*
X99385329Y-67549080D01*
X99399579Y-67529867D01*
X99415643Y-67512143D01*
X99433367Y-67496079D01*
X99452580Y-67481829D01*
X99473097Y-67469532D01*
X99494721Y-67459304D01*
X99517243Y-67451246D01*
X99540447Y-67445434D01*
X99564108Y-67441924D01*
X99588000Y-67440750D01*
X100500500Y-67440750D01*
X100524392Y-67441924D01*
X100524392Y-67441924D01*
G37*
D13*
X100044250Y-67928250D03*
D12*
G36*
X100524392Y-69316924D02*
G01*
X100548053Y-69320434D01*
X100571257Y-69326246D01*
X100593779Y-69334304D01*
X100615403Y-69344532D01*
X100635920Y-69356829D01*
X100655133Y-69371079D01*
X100672857Y-69387143D01*
X100688921Y-69404867D01*
X100703171Y-69424080D01*
X100715468Y-69444597D01*
X100725696Y-69466221D01*
X100733754Y-69488743D01*
X100739566Y-69511947D01*
X100743076Y-69535608D01*
X100744250Y-69559500D01*
X100744250Y-70047000D01*
X100743076Y-70070892D01*
X100739566Y-70094553D01*
X100733754Y-70117757D01*
X100725696Y-70140279D01*
X100715468Y-70161903D01*
X100703171Y-70182420D01*
X100688921Y-70201633D01*
X100672857Y-70219357D01*
X100655133Y-70235421D01*
X100635920Y-70249671D01*
X100615403Y-70261968D01*
X100593779Y-70272196D01*
X100571257Y-70280254D01*
X100548053Y-70286066D01*
X100524392Y-70289576D01*
X100500500Y-70290750D01*
X99588000Y-70290750D01*
X99564108Y-70289576D01*
X99540447Y-70286066D01*
X99517243Y-70280254D01*
X99494721Y-70272196D01*
X99473097Y-70261968D01*
X99452580Y-70249671D01*
X99433367Y-70235421D01*
X99415643Y-70219357D01*
X99399579Y-70201633D01*
X99385329Y-70182420D01*
X99373032Y-70161903D01*
X99362804Y-70140279D01*
X99354746Y-70117757D01*
X99348934Y-70094553D01*
X99345424Y-70070892D01*
X99344250Y-70047000D01*
X99344250Y-69559500D01*
X99345424Y-69535608D01*
X99348934Y-69511947D01*
X99354746Y-69488743D01*
X99362804Y-69466221D01*
X99373032Y-69444597D01*
X99385329Y-69424080D01*
X99399579Y-69404867D01*
X99415643Y-69387143D01*
X99433367Y-69371079D01*
X99452580Y-69356829D01*
X99473097Y-69344532D01*
X99494721Y-69334304D01*
X99517243Y-69326246D01*
X99540447Y-69320434D01*
X99564108Y-69316924D01*
X99588000Y-69315750D01*
X100500500Y-69315750D01*
X100524392Y-69316924D01*
X100524392Y-69316924D01*
G37*
D13*
X100044250Y-69803250D03*
D12*
G36*
X90999392Y-69316924D02*
G01*
X91023053Y-69320434D01*
X91046257Y-69326246D01*
X91068779Y-69334304D01*
X91090403Y-69344532D01*
X91110920Y-69356829D01*
X91130133Y-69371079D01*
X91147857Y-69387143D01*
X91163921Y-69404867D01*
X91178171Y-69424080D01*
X91190468Y-69444597D01*
X91200696Y-69466221D01*
X91208754Y-69488743D01*
X91214566Y-69511947D01*
X91218076Y-69535608D01*
X91219250Y-69559500D01*
X91219250Y-70047000D01*
X91218076Y-70070892D01*
X91214566Y-70094553D01*
X91208754Y-70117757D01*
X91200696Y-70140279D01*
X91190468Y-70161903D01*
X91178171Y-70182420D01*
X91163921Y-70201633D01*
X91147857Y-70219357D01*
X91130133Y-70235421D01*
X91110920Y-70249671D01*
X91090403Y-70261968D01*
X91068779Y-70272196D01*
X91046257Y-70280254D01*
X91023053Y-70286066D01*
X90999392Y-70289576D01*
X90975500Y-70290750D01*
X90063000Y-70290750D01*
X90039108Y-70289576D01*
X90015447Y-70286066D01*
X89992243Y-70280254D01*
X89969721Y-70272196D01*
X89948097Y-70261968D01*
X89927580Y-70249671D01*
X89908367Y-70235421D01*
X89890643Y-70219357D01*
X89874579Y-70201633D01*
X89860329Y-70182420D01*
X89848032Y-70161903D01*
X89837804Y-70140279D01*
X89829746Y-70117757D01*
X89823934Y-70094553D01*
X89820424Y-70070892D01*
X89819250Y-70047000D01*
X89819250Y-69559500D01*
X89820424Y-69535608D01*
X89823934Y-69511947D01*
X89829746Y-69488743D01*
X89837804Y-69466221D01*
X89848032Y-69444597D01*
X89860329Y-69424080D01*
X89874579Y-69404867D01*
X89890643Y-69387143D01*
X89908367Y-69371079D01*
X89927580Y-69356829D01*
X89948097Y-69344532D01*
X89969721Y-69334304D01*
X89992243Y-69326246D01*
X90015447Y-69320434D01*
X90039108Y-69316924D01*
X90063000Y-69315750D01*
X90975500Y-69315750D01*
X90999392Y-69316924D01*
X90999392Y-69316924D01*
G37*
D13*
X90519250Y-69803250D03*
D12*
G36*
X90999392Y-67441924D02*
G01*
X91023053Y-67445434D01*
X91046257Y-67451246D01*
X91068779Y-67459304D01*
X91090403Y-67469532D01*
X91110920Y-67481829D01*
X91130133Y-67496079D01*
X91147857Y-67512143D01*
X91163921Y-67529867D01*
X91178171Y-67549080D01*
X91190468Y-67569597D01*
X91200696Y-67591221D01*
X91208754Y-67613743D01*
X91214566Y-67636947D01*
X91218076Y-67660608D01*
X91219250Y-67684500D01*
X91219250Y-68172000D01*
X91218076Y-68195892D01*
X91214566Y-68219553D01*
X91208754Y-68242757D01*
X91200696Y-68265279D01*
X91190468Y-68286903D01*
X91178171Y-68307420D01*
X91163921Y-68326633D01*
X91147857Y-68344357D01*
X91130133Y-68360421D01*
X91110920Y-68374671D01*
X91090403Y-68386968D01*
X91068779Y-68397196D01*
X91046257Y-68405254D01*
X91023053Y-68411066D01*
X90999392Y-68414576D01*
X90975500Y-68415750D01*
X90063000Y-68415750D01*
X90039108Y-68414576D01*
X90015447Y-68411066D01*
X89992243Y-68405254D01*
X89969721Y-68397196D01*
X89948097Y-68386968D01*
X89927580Y-68374671D01*
X89908367Y-68360421D01*
X89890643Y-68344357D01*
X89874579Y-68326633D01*
X89860329Y-68307420D01*
X89848032Y-68286903D01*
X89837804Y-68265279D01*
X89829746Y-68242757D01*
X89823934Y-68219553D01*
X89820424Y-68195892D01*
X89819250Y-68172000D01*
X89819250Y-67684500D01*
X89820424Y-67660608D01*
X89823934Y-67636947D01*
X89829746Y-67613743D01*
X89837804Y-67591221D01*
X89848032Y-67569597D01*
X89860329Y-67549080D01*
X89874579Y-67529867D01*
X89890643Y-67512143D01*
X89908367Y-67496079D01*
X89927580Y-67481829D01*
X89948097Y-67469532D01*
X89969721Y-67459304D01*
X89992243Y-67451246D01*
X90015447Y-67445434D01*
X90039108Y-67441924D01*
X90063000Y-67440750D01*
X90975500Y-67440750D01*
X90999392Y-67441924D01*
X90999392Y-67441924D01*
G37*
D13*
X90519250Y-67928250D03*
D12*
G36*
X85379642Y-86303174D02*
G01*
X85403303Y-86306684D01*
X85426507Y-86312496D01*
X85449029Y-86320554D01*
X85470653Y-86330782D01*
X85491170Y-86343079D01*
X85510383Y-86357329D01*
X85528107Y-86373393D01*
X85544171Y-86391117D01*
X85558421Y-86410330D01*
X85570718Y-86430847D01*
X85580946Y-86452471D01*
X85589004Y-86474993D01*
X85594816Y-86498197D01*
X85598326Y-86521858D01*
X85599500Y-86545750D01*
X85599500Y-87033250D01*
X85598326Y-87057142D01*
X85594816Y-87080803D01*
X85589004Y-87104007D01*
X85580946Y-87126529D01*
X85570718Y-87148153D01*
X85558421Y-87168670D01*
X85544171Y-87187883D01*
X85528107Y-87205607D01*
X85510383Y-87221671D01*
X85491170Y-87235921D01*
X85470653Y-87248218D01*
X85449029Y-87258446D01*
X85426507Y-87266504D01*
X85403303Y-87272316D01*
X85379642Y-87275826D01*
X85355750Y-87277000D01*
X84443250Y-87277000D01*
X84419358Y-87275826D01*
X84395697Y-87272316D01*
X84372493Y-87266504D01*
X84349971Y-87258446D01*
X84328347Y-87248218D01*
X84307830Y-87235921D01*
X84288617Y-87221671D01*
X84270893Y-87205607D01*
X84254829Y-87187883D01*
X84240579Y-87168670D01*
X84228282Y-87148153D01*
X84218054Y-87126529D01*
X84209996Y-87104007D01*
X84204184Y-87080803D01*
X84200674Y-87057142D01*
X84199500Y-87033250D01*
X84199500Y-86545750D01*
X84200674Y-86521858D01*
X84204184Y-86498197D01*
X84209996Y-86474993D01*
X84218054Y-86452471D01*
X84228282Y-86430847D01*
X84240579Y-86410330D01*
X84254829Y-86391117D01*
X84270893Y-86373393D01*
X84288617Y-86357329D01*
X84307830Y-86343079D01*
X84328347Y-86330782D01*
X84349971Y-86320554D01*
X84372493Y-86312496D01*
X84395697Y-86306684D01*
X84419358Y-86303174D01*
X84443250Y-86302000D01*
X85355750Y-86302000D01*
X85379642Y-86303174D01*
X85379642Y-86303174D01*
G37*
D13*
X84899500Y-86789500D03*
D12*
G36*
X85379642Y-84428174D02*
G01*
X85403303Y-84431684D01*
X85426507Y-84437496D01*
X85449029Y-84445554D01*
X85470653Y-84455782D01*
X85491170Y-84468079D01*
X85510383Y-84482329D01*
X85528107Y-84498393D01*
X85544171Y-84516117D01*
X85558421Y-84535330D01*
X85570718Y-84555847D01*
X85580946Y-84577471D01*
X85589004Y-84599993D01*
X85594816Y-84623197D01*
X85598326Y-84646858D01*
X85599500Y-84670750D01*
X85599500Y-85158250D01*
X85598326Y-85182142D01*
X85594816Y-85205803D01*
X85589004Y-85229007D01*
X85580946Y-85251529D01*
X85570718Y-85273153D01*
X85558421Y-85293670D01*
X85544171Y-85312883D01*
X85528107Y-85330607D01*
X85510383Y-85346671D01*
X85491170Y-85360921D01*
X85470653Y-85373218D01*
X85449029Y-85383446D01*
X85426507Y-85391504D01*
X85403303Y-85397316D01*
X85379642Y-85400826D01*
X85355750Y-85402000D01*
X84443250Y-85402000D01*
X84419358Y-85400826D01*
X84395697Y-85397316D01*
X84372493Y-85391504D01*
X84349971Y-85383446D01*
X84328347Y-85373218D01*
X84307830Y-85360921D01*
X84288617Y-85346671D01*
X84270893Y-85330607D01*
X84254829Y-85312883D01*
X84240579Y-85293670D01*
X84228282Y-85273153D01*
X84218054Y-85251529D01*
X84209996Y-85229007D01*
X84204184Y-85205803D01*
X84200674Y-85182142D01*
X84199500Y-85158250D01*
X84199500Y-84670750D01*
X84200674Y-84646858D01*
X84204184Y-84623197D01*
X84209996Y-84599993D01*
X84218054Y-84577471D01*
X84228282Y-84555847D01*
X84240579Y-84535330D01*
X84254829Y-84516117D01*
X84270893Y-84498393D01*
X84288617Y-84482329D01*
X84307830Y-84468079D01*
X84328347Y-84455782D01*
X84349971Y-84445554D01*
X84372493Y-84437496D01*
X84395697Y-84431684D01*
X84419358Y-84428174D01*
X84443250Y-84427000D01*
X85355750Y-84427000D01*
X85379642Y-84428174D01*
X85379642Y-84428174D01*
G37*
D13*
X84899500Y-84914500D03*
D17*
X119888000Y-91947000D03*
X119888000Y-88647000D03*
D12*
G36*
X85443142Y-79348174D02*
G01*
X85466803Y-79351684D01*
X85490007Y-79357496D01*
X85512529Y-79365554D01*
X85534153Y-79375782D01*
X85554670Y-79388079D01*
X85573883Y-79402329D01*
X85591607Y-79418393D01*
X85607671Y-79436117D01*
X85621921Y-79455330D01*
X85634218Y-79475847D01*
X85644446Y-79497471D01*
X85652504Y-79519993D01*
X85658316Y-79543197D01*
X85661826Y-79566858D01*
X85663000Y-79590750D01*
X85663000Y-80078250D01*
X85661826Y-80102142D01*
X85658316Y-80125803D01*
X85652504Y-80149007D01*
X85644446Y-80171529D01*
X85634218Y-80193153D01*
X85621921Y-80213670D01*
X85607671Y-80232883D01*
X85591607Y-80250607D01*
X85573883Y-80266671D01*
X85554670Y-80280921D01*
X85534153Y-80293218D01*
X85512529Y-80303446D01*
X85490007Y-80311504D01*
X85466803Y-80317316D01*
X85443142Y-80320826D01*
X85419250Y-80322000D01*
X84506750Y-80322000D01*
X84482858Y-80320826D01*
X84459197Y-80317316D01*
X84435993Y-80311504D01*
X84413471Y-80303446D01*
X84391847Y-80293218D01*
X84371330Y-80280921D01*
X84352117Y-80266671D01*
X84334393Y-80250607D01*
X84318329Y-80232883D01*
X84304079Y-80213670D01*
X84291782Y-80193153D01*
X84281554Y-80171529D01*
X84273496Y-80149007D01*
X84267684Y-80125803D01*
X84264174Y-80102142D01*
X84263000Y-80078250D01*
X84263000Y-79590750D01*
X84264174Y-79566858D01*
X84267684Y-79543197D01*
X84273496Y-79519993D01*
X84281554Y-79497471D01*
X84291782Y-79475847D01*
X84304079Y-79455330D01*
X84318329Y-79436117D01*
X84334393Y-79418393D01*
X84352117Y-79402329D01*
X84371330Y-79388079D01*
X84391847Y-79375782D01*
X84413471Y-79365554D01*
X84435993Y-79357496D01*
X84459197Y-79351684D01*
X84482858Y-79348174D01*
X84506750Y-79347000D01*
X85419250Y-79347000D01*
X85443142Y-79348174D01*
X85443142Y-79348174D01*
G37*
D13*
X84963000Y-79834500D03*
D12*
G36*
X85443142Y-81223174D02*
G01*
X85466803Y-81226684D01*
X85490007Y-81232496D01*
X85512529Y-81240554D01*
X85534153Y-81250782D01*
X85554670Y-81263079D01*
X85573883Y-81277329D01*
X85591607Y-81293393D01*
X85607671Y-81311117D01*
X85621921Y-81330330D01*
X85634218Y-81350847D01*
X85644446Y-81372471D01*
X85652504Y-81394993D01*
X85658316Y-81418197D01*
X85661826Y-81441858D01*
X85663000Y-81465750D01*
X85663000Y-81953250D01*
X85661826Y-81977142D01*
X85658316Y-82000803D01*
X85652504Y-82024007D01*
X85644446Y-82046529D01*
X85634218Y-82068153D01*
X85621921Y-82088670D01*
X85607671Y-82107883D01*
X85591607Y-82125607D01*
X85573883Y-82141671D01*
X85554670Y-82155921D01*
X85534153Y-82168218D01*
X85512529Y-82178446D01*
X85490007Y-82186504D01*
X85466803Y-82192316D01*
X85443142Y-82195826D01*
X85419250Y-82197000D01*
X84506750Y-82197000D01*
X84482858Y-82195826D01*
X84459197Y-82192316D01*
X84435993Y-82186504D01*
X84413471Y-82178446D01*
X84391847Y-82168218D01*
X84371330Y-82155921D01*
X84352117Y-82141671D01*
X84334393Y-82125607D01*
X84318329Y-82107883D01*
X84304079Y-82088670D01*
X84291782Y-82068153D01*
X84281554Y-82046529D01*
X84273496Y-82024007D01*
X84267684Y-82000803D01*
X84264174Y-81977142D01*
X84263000Y-81953250D01*
X84263000Y-81465750D01*
X84264174Y-81441858D01*
X84267684Y-81418197D01*
X84273496Y-81394993D01*
X84281554Y-81372471D01*
X84291782Y-81350847D01*
X84304079Y-81330330D01*
X84318329Y-81311117D01*
X84334393Y-81293393D01*
X84352117Y-81277329D01*
X84371330Y-81263079D01*
X84391847Y-81250782D01*
X84413471Y-81240554D01*
X84435993Y-81232496D01*
X84459197Y-81226684D01*
X84482858Y-81223174D01*
X84506750Y-81222000D01*
X85419250Y-81222000D01*
X85443142Y-81223174D01*
X85443142Y-81223174D01*
G37*
D13*
X84963000Y-81709500D03*
D17*
X119888000Y-72897000D03*
X119888000Y-69597000D03*
D12*
G36*
X80850004Y-76366954D02*
G01*
X80874273Y-76370554D01*
X80898071Y-76376515D01*
X80921171Y-76384780D01*
X80943349Y-76395270D01*
X80964393Y-76407883D01*
X80984098Y-76422497D01*
X81002277Y-76438973D01*
X81018753Y-76457152D01*
X81033367Y-76476857D01*
X81045980Y-76497901D01*
X81056470Y-76520079D01*
X81064735Y-76543179D01*
X81070696Y-76566977D01*
X81074296Y-76591246D01*
X81075500Y-76615750D01*
X81075500Y-77365750D01*
X81074296Y-77390254D01*
X81070696Y-77414523D01*
X81064735Y-77438321D01*
X81056470Y-77461421D01*
X81045980Y-77483599D01*
X81033367Y-77504643D01*
X81018753Y-77524348D01*
X81002277Y-77542527D01*
X80984098Y-77559003D01*
X80964393Y-77573617D01*
X80943349Y-77586230D01*
X80921171Y-77596720D01*
X80898071Y-77604985D01*
X80874273Y-77610946D01*
X80850004Y-77614546D01*
X80825500Y-77615750D01*
X79575500Y-77615750D01*
X79550996Y-77614546D01*
X79526727Y-77610946D01*
X79502929Y-77604985D01*
X79479829Y-77596720D01*
X79457651Y-77586230D01*
X79436607Y-77573617D01*
X79416902Y-77559003D01*
X79398723Y-77542527D01*
X79382247Y-77524348D01*
X79367633Y-77504643D01*
X79355020Y-77483599D01*
X79344530Y-77461421D01*
X79336265Y-77438321D01*
X79330304Y-77414523D01*
X79326704Y-77390254D01*
X79325500Y-77365750D01*
X79325500Y-76615750D01*
X79326704Y-76591246D01*
X79330304Y-76566977D01*
X79336265Y-76543179D01*
X79344530Y-76520079D01*
X79355020Y-76497901D01*
X79367633Y-76476857D01*
X79382247Y-76457152D01*
X79398723Y-76438973D01*
X79416902Y-76422497D01*
X79436607Y-76407883D01*
X79457651Y-76395270D01*
X79479829Y-76384780D01*
X79502929Y-76376515D01*
X79526727Y-76370554D01*
X79550996Y-76366954D01*
X79575500Y-76365750D01*
X80825500Y-76365750D01*
X80850004Y-76366954D01*
X80850004Y-76366954D01*
G37*
D18*
X80200500Y-76990750D03*
D12*
G36*
X80850004Y-79166954D02*
G01*
X80874273Y-79170554D01*
X80898071Y-79176515D01*
X80921171Y-79184780D01*
X80943349Y-79195270D01*
X80964393Y-79207883D01*
X80984098Y-79222497D01*
X81002277Y-79238973D01*
X81018753Y-79257152D01*
X81033367Y-79276857D01*
X81045980Y-79297901D01*
X81056470Y-79320079D01*
X81064735Y-79343179D01*
X81070696Y-79366977D01*
X81074296Y-79391246D01*
X81075500Y-79415750D01*
X81075500Y-80165750D01*
X81074296Y-80190254D01*
X81070696Y-80214523D01*
X81064735Y-80238321D01*
X81056470Y-80261421D01*
X81045980Y-80283599D01*
X81033367Y-80304643D01*
X81018753Y-80324348D01*
X81002277Y-80342527D01*
X80984098Y-80359003D01*
X80964393Y-80373617D01*
X80943349Y-80386230D01*
X80921171Y-80396720D01*
X80898071Y-80404985D01*
X80874273Y-80410946D01*
X80850004Y-80414546D01*
X80825500Y-80415750D01*
X79575500Y-80415750D01*
X79550996Y-80414546D01*
X79526727Y-80410946D01*
X79502929Y-80404985D01*
X79479829Y-80396720D01*
X79457651Y-80386230D01*
X79436607Y-80373617D01*
X79416902Y-80359003D01*
X79398723Y-80342527D01*
X79382247Y-80324348D01*
X79367633Y-80304643D01*
X79355020Y-80283599D01*
X79344530Y-80261421D01*
X79336265Y-80238321D01*
X79330304Y-80214523D01*
X79326704Y-80190254D01*
X79325500Y-80165750D01*
X79325500Y-79415750D01*
X79326704Y-79391246D01*
X79330304Y-79366977D01*
X79336265Y-79343179D01*
X79344530Y-79320079D01*
X79355020Y-79297901D01*
X79367633Y-79276857D01*
X79382247Y-79257152D01*
X79398723Y-79238973D01*
X79416902Y-79222497D01*
X79436607Y-79207883D01*
X79457651Y-79195270D01*
X79479829Y-79184780D01*
X79502929Y-79176515D01*
X79526727Y-79170554D01*
X79550996Y-79166954D01*
X79575500Y-79165750D01*
X80825500Y-79165750D01*
X80850004Y-79166954D01*
X80850004Y-79166954D01*
G37*
D18*
X80200500Y-79790750D03*
D17*
X138938000Y-91947000D03*
X138938000Y-88647000D03*
M02*
